Kumimoji-Medium.sfdir
StartChar: uF1D97
Encoding: 990615 990615 0
Width: 1000
VWidth: 0
Flags: MW
LayerCount: 2
Back
Fore
SplineSet
356 695 m 4
 356 702 360 710 384 710 c 4
 412 710 440 706 496 706 c 4
 539 706 521 708 584 708 c 4
 591 708 612 707 612 694 c 4
 612 685 595 679 566 667 c 4
 538 656 534 591 534 552 c 4
 534 317 530 274 530 182 c 4
 530 121 537 89 556 61 c 4
 577 32 594 30 604 30 c 4
 607 30 621 29 624 29 c 4
 634 29 644 23 644 18 c 4
 644 2 637 0 620 0 c 4
 566 0 557 4 524 4 c 4
 472 4 450 -1 414 -1 c 4
 373 -1 370 6 370 14 c 4
 370 41 429 13 444 78 c 4
 446 86 454 277 454 345 c 6
 454 402 l 6
 454 431 456 469 456 510 c 6
 456 556 l 6
 456 582 455 607 452 629 c 4
 447 665 404 679 376 680 c 4
 356 681 356 690 356 695 c 4
EndSplineSet
EndChar
StartChar: uF1D98
Encoding: 990616 990616 1
Width: 1000
VWidth: 0
Flags: MW
LayerCount: 2
Back
Fore
SplineSet
216 695 m 4
 216 702 220 710 244 710 c 4
 272 710 302 706 358 706 c 4
 401 706 383 708 446 708 c 4
 453 708 472 707 472 694 c 4
 472 685 455 679 426 667 c 4
 398 656 394 591 394 552 c 4
 394 317 392 274 392 182 c 4
 392 121 397 89 416 61 c 4
 437 32 454 30 464 30 c 4
 467 30 481 29 484 29 c 4
 494 29 506 23 506 18 c 4
 506 2 497 0 480 0 c 4
 426 0 419 4 386 4 c 4
 334 4 312 -1 276 -1 c 4
 235 -1 230 6 230 14 c 4
 230 41 289 13 304 78 c 4
 306 86 316 277 316 345 c 6
 316 402 l 6
 316 431 316 469 316 510 c 6
 316 556 l 6
 316 582 315 607 312 629 c 4
 307 665 266 679 238 680 c 4
 218 681 216 690 216 695 c 4
494 695 m 4
 494 702 498 710 522 710 c 4
 550 710 580 706 636 706 c 4
 679 706 661 708 724 708 c 4
 731 708 750 707 750 694 c 4
 750 685 733 679 704 667 c 4
 676 656 672 591 672 552 c 4
 672 317 670 274 670 182 c 4
 670 121 675 89 694 61 c 4
 715 32 732 30 742 30 c 4
 745 30 759 29 762 29 c 4
 772 29 784 23 784 18 c 4
 784 2 775 0 758 0 c 4
 704 0 697 4 664 4 c 4
 612 4 590 -1 554 -1 c 4
 513 -1 508 6 508 14 c 4
 508 41 567 13 582 78 c 4
 584 86 594 277 594 345 c 6
 594 402 l 6
 594 431 594 469 594 510 c 6
 594 556 l 6
 594 582 593 607 590 629 c 4
 585 665 544 679 516 680 c 4
 496 681 494 690 494 695 c 4
EndSplineSet
EndChar
StartChar: uF1D99
Encoding: 990617 990617 2
Width: 1000
VWidth: 0
Flags: MW
LayerCount: 2
Back
Fore
SplineSet
78 695 m 4
 78 702 82 710 106 710 c 4
 134 710 162 706 218 706 c 4
 261 706 243 708 306 708 c 4
 313 708 334 707 334 694 c 4
 334 685 317 679 288 667 c 4
 260 656 256 591 256 552 c 4
 256 317 252 274 252 182 c 4
 252 121 259 89 278 61 c 4
 299 32 316 30 326 30 c 4
 329 30 343 29 346 29 c 4
 356 29 366 23 366 18 c 4
 366 2 359 0 342 0 c 4
 288 0 279 4 246 4 c 4
 194 4 172 -1 136 -1 c 4
 95 -1 92 6 92 14 c 4
 92 41 151 13 166 78 c 4
 168 86 176 277 176 345 c 6
 176 402 l 6
 176 431 178 469 178 510 c 6
 178 556 l 6
 178 582 177 607 174 629 c 4
 169 665 126 679 98 680 c 4
 78 681 78 690 78 695 c 4
356 695 m 4
 356 702 360 710 384 710 c 4
 412 710 440 706 496 706 c 4
 539 706 521 708 584 708 c 4
 591 708 612 707 612 694 c 4
 612 685 595 679 566 667 c 4
 538 656 534 591 534 552 c 4
 534 317 530 274 530 182 c 4
 530 121 537 89 556 61 c 4
 577 32 594 30 604 30 c 4
 607 30 621 29 624 29 c 4
 634 29 644 23 644 18 c 4
 644 2 637 0 620 0 c 4
 566 0 557 4 524 4 c 4
 472 4 450 -1 414 -1 c 4
 373 -1 370 6 370 14 c 4
 370 41 429 13 444 78 c 4
 446 86 454 277 454 345 c 6
 454 402 l 6
 454 431 456 469 456 510 c 6
 456 556 l 6
 456 582 455 607 452 629 c 4
 447 665 404 679 376 680 c 4
 356 681 356 690 356 695 c 4
634 695 m 4
 634 702 638 710 662 710 c 4
 690 710 718 706 774 706 c 4
 817 706 799 708 862 708 c 4
 869 708 890 707 890 694 c 4
 890 685 873 679 844 667 c 4
 816 656 812 591 812 552 c 4
 812 317 808 274 808 182 c 4
 808 121 815 89 834 61 c 4
 855 32 872 30 882 30 c 4
 885 30 899 29 902 29 c 4
 912 29 922 23 922 18 c 4
 922 2 915 0 898 0 c 4
 844 0 835 4 802 4 c 4
 750 4 728 -1 692 -1 c 4
 651 -1 648 6 648 14 c 4
 648 41 707 13 722 78 c 4
 724 86 732 277 732 345 c 6
 732 402 l 6
 732 431 734 469 734 510 c 6
 734 556 l 6
 734 582 733 607 730 629 c 4
 725 665 682 679 654 680 c 4
 634 681 634 690 634 695 c 4
EndSplineSet
EndChar
StartChar: uF1D9A
Encoding: 990618 990618 3
Width: 1000
VWidth: 0
Flags: MW
LayerCount: 2
Back
Fore
SplineSet
18 695 m 4
 18 702 21 710 43 710 c 4
 68 710 95 706 145 706 c 4
 184 706 167 708 224 708 c 4
 230 708 248 707 248 694 c 4
 248 685 233 679 207 667 c 4
 182 656 178 591 178 552 c 4
 178 317 176 274 176 182 c 4
 176 121 181 89 198 61 c 4
 217 32 232 30 241 30 c 4
 244 30 256 29 259 29 c 4
 268 29 278 23 278 18 c 4
 278 2 271 0 256 0 c 4
 207 0 200 4 170 4 c 4
 123 4 103 -1 71 -1 c 4
 34 -1 31 6 31 14 c 4
 31 41 83 13 97 78 c 4
 99 86 107 277 107 345 c 6
 107 402 l 6
 107 431 108 469 108 510 c 6
 108 556 l 6
 108 582 107 607 104 629 c 4
 100 665 62 679 37 680 c 4
 19 681 18 690 18 695 c 4
268 696 m 4
 268 709 283 710 293 710 c 4
 313 710 333 706 392 706 c 4
 408 706 432 708 451 708 c 4
 478 708 481 707 481 697 c 4
 481 682 444 683 444 650 c 4
 444 608 473 557 570 312 c 4
 600 236 648 119 660 119 c 4
 669 119 850 596 850 649 c 4
 850 696 786 676 786 700 c 4
 786 709 789 710 805 710 c 4
 816 710 829 709 861 709 c 4
 895 709 897 711 941 711 c 4
 951 711 958 709 958 697 c 4
 958 675 925 687 901 625 c 6
 700 117 l 6
 642 -29 648 -30 638 -30 c 4
 633 -30 620 -24 598 39 c 4
 569 118 545 173 505 271 c 4
 377 579 377 611 352 643 c 4
 307 699 268 661 268 696 c 4
EndSplineSet
EndChar
StartChar: uF1D9B
Encoding: 990619 990619 4
Width: 1000
VWidth: 0
Flags: MW
LayerCount: 2
Back
Fore
SplineSet
116 696 m 4
 116 709 133 710 144 710 c 4
 166 710 188 706 254 706 c 4
 272 706 299 708 320 708 c 4
 350 708 352 707 352 697 c 4
 352 682 312 683 312 650 c 4
 312 608 344 557 452 312 c 4
 485 236 539 119 552 119 c 4
 562 119 764 596 764 649 c 4
 764 696 692 676 692 700 c 4
 692 709 694 710 712 710 c 4
 724 710 741 709 776 709 c 4
 814 709 815 711 864 711 c 4
 875 711 884 709 884 697 c 4
 884 675 847 687 820 625 c 6
 596 117 l 6
 532 -29 539 -30 528 -30 c 4
 522 -30 507 -24 482 39 c 4
 450 118 425 173 380 271 c 4
 238 579 238 611 210 643 c 4
 160 699 116 661 116 696 c 4
EndSplineSet
EndChar
StartChar: uF1D9C
Encoding: 990620 990620 5
Width: 1000
VWidth: 0
Flags: MW
LayerCount: 2
Back
Fore
SplineSet
18 696 m 4
 18 709 33 710 43 710 c 4
 63 710 83 706 142 706 c 4
 158 706 182 708 201 708 c 4
 228 708 230 707 230 697 c 4
 230 682 194 683 194 650 c 4
 194 608 223 557 320 312 c 4
 350 236 398 119 410 119 c 4
 419 119 600 596 600 649 c 4
 600 696 536 676 536 700 c 4
 536 709 538 710 554 710 c 4
 565 710 579 709 611 709 c 4
 645 709 647 711 691 711 c 4
 701 711 708 709 708 697 c 4
 708 675 675 687 651 625 c 6
 450 117 l 6
 392 -29 398 -30 388 -30 c 4
 383 -30 369 -24 347 39 c 4
 318 118 295 173 255 271 c 4
 127 579 127 611 102 643 c 4
 57 699 18 661 18 696 c 4
699 695 m 4
 699 702 702 710 724 710 c 4
 749 710 776 706 826 706 c 4
 865 706 848 708 905 708 c 4
 911 708 930 707 930 694 c 4
 930 685 914 679 888 667 c 4
 863 656 860 591 860 552 c 4
 860 317 857 274 857 182 c 4
 857 121 862 89 879 61 c 4
 898 32 913 30 922 30 c 4
 925 30 937 29 940 29 c 4
 949 29 959 23 959 18 c 4
 959 2 952 0 937 0 c 4
 888 0 881 4 851 4 c 4
 804 4 784 -1 752 -1 c 4
 715 -1 712 6 712 14 c 4
 712 41 764 13 778 78 c 4
 780 86 788 277 788 345 c 6
 788 402 l 6
 788 431 789 469 789 510 c 6
 789 556 l 6
 789 582 789 607 786 629 c 4
 782 665 743 679 718 680 c 4
 700 681 699 690 699 695 c 4
EndSplineSet
EndChar
StartChar: uF1D9D
Encoding: 990621 990621 6
Width: 1000
VWidth: 0
Flags: MW
LayerCount: 2
Back
Fore
SplineSet
15 696 m 4
 15 709 28 710 36 710 c 4
 52 710 68 706 117 706 c 4
 130 706 150 708 166 708 c 4
 188 708 190 707 190 697 c 4
 190 682 160 683 160 650 c 4
 160 608 184 557 264 312 c 4
 289 236 328 119 338 119 c 4
 345 119 496 596 496 649 c 4
 496 696 442 676 442 700 c 4
 442 709 445 710 458 710 c 4
 467 710 479 709 505 709 c 4
 533 709 535 711 571 711 c 4
 579 711 585 709 585 697 c 4
 585 675 557 687 537 625 c 6
 372 117 l 6
 324 -29 328 -30 320 -30 c 4
 316 -30 306 -24 287 39 c 4
 263 118 243 173 210 271 c 4
 104 579 105 611 84 643 c 4
 47 699 15 661 15 696 c 4
578 695 m 4
 578 702 580 710 598 710 c 4
 619 710 640 706 682 706 c 4
 714 706 701 708 748 708 c 4
 753 708 768 707 768 694 c 4
 768 685 756 679 734 667 c 4
 713 656 710 591 710 552 c 4
 710 317 708 274 708 182 c 4
 708 121 712 89 726 61 c 4
 742 32 755 30 762 30 c 4
 764 30 775 29 777 29 c 4
 784 29 792 23 792 18 c 4
 792 2 787 0 774 0 c 4
 734 0 728 4 703 4 c 4
 664 4 648 -1 621 -1 c 4
 591 -1 588 6 588 14 c 4
 588 41 632 13 643 78 c 4
 644 86 651 277 651 345 c 6
 651 402 l 6
 651 431 652 469 652 510 c 6
 652 556 l 6
 652 582 651 607 649 629 c 4
 645 665 614 679 593 680 c 4
 578 681 578 690 578 695 c 4
784 695 m 4
 784 702 787 710 805 710 c 4
 826 710 847 706 889 706 c 4
 921 706 907 708 954 708 c 4
 959 708 974 707 974 694 c 4
 974 685 962 679 940 667 c 4
 919 656 917 591 917 552 c 4
 917 317 914 274 914 182 c 4
 914 121 919 89 933 61 c 4
 949 32 962 30 969 30 c 4
 971 30 981 29 983 29 c 4
 990 29 999 23 999 18 c 4
 999 2 993 0 980 0 c 4
 940 0 935 4 910 4 c 4
 871 4 855 -1 828 -1 c 4
 798 -1 795 6 795 14 c 4
 795 41 839 13 850 78 c 4
 851 86 858 277 858 345 c 6
 858 402 l 6
 858 431 859 469 859 510 c 6
 859 556 l 6
 859 582 858 607 856 629 c 4
 852 665 821 679 800 680 c 4
 785 681 784 690 784 695 c 4
EndSplineSet
EndChar
StartChar: uF1D9E
Encoding: 990622 990622 7
Width: 1000
VWidth: 0
Flags: MW
LayerCount: 2
Back
Fore
SplineSet
12 696 m 4
 12 709 22 710 29 710 c 4
 42 710 55 706 95 706 c 4
 106 706 121 708 134 708 c 4
 152 708 154 707 154 697 c 4
 154 682 129 683 129 650 c 4
 129 608 148 557 213 312 c 4
 233 236 265 119 273 119 c 4
 279 119 400 596 400 649 c 4
 400 696 357 676 357 700 c 4
 357 709 359 710 370 710 c 4
 377 710 386 709 407 709 c 4
 430 709 432 711 461 711 c 4
 468 711 472 709 472 697 c 4
 472 675 450 687 434 625 c 6
 300 117 l 6
 262 -29 266 -30 259 -30 c 4
 255 -30 247 -24 232 39 c 4
 213 118 197 173 170 271 c 4
 85 579 85 611 68 643 c 4
 38 699 12 661 12 696 c 4
466 695 m 4
 466 702 469 710 483 710 c 4
 500 710 517 706 551 706 c 4
 577 706 566 708 604 708 c 4
 608 708 620 707 620 694 c 4
 620 685 609 679 592 667 c 4
 575 656 573 591 573 552 c 4
 573 317 571 274 571 182 c 4
 571 121 575 89 586 61 c 4
 599 32 609 30 615 30 c 4
 617 30 625 29 627 29 c 4
 633 29 640 23 640 18 c 4
 640 2 635 0 625 0 c 4
 593 0 588 4 568 4 c 4
 537 4 524 -1 502 -1 c 4
 477 -1 475 6 475 14 c 4
 475 41 510 13 519 78 c 4
 520 86 526 277 526 345 c 6
 526 402 l 6
 526 431 526 469 526 510 c 6
 526 556 l 6
 526 582 526 607 524 629 c 4
 521 665 496 679 479 680 c 4
 467 681 466 690 466 695 c 4
633 695 m 4
 633 702 636 710 650 710 c 4
 667 710 684 706 718 706 c 4
 744 706 732 708 770 708 c 4
 774 708 787 707 787 694 c 4
 787 685 776 679 759 667 c 4
 742 656 740 591 740 552 c 4
 740 317 738 274 738 182 c 4
 738 121 742 89 753 61 c 4
 766 32 776 30 782 30 c 4
 784 30 792 29 794 29 c 4
 800 29 806 23 806 18 c 4
 806 2 801 0 791 0 c 4
 759 0 754 4 734 4 c 4
 703 4 690 -1 668 -1 c 4
 643 -1 641 6 641 14 c 4
 641 41 677 13 686 78 c 4
 687 86 692 277 692 345 c 6
 692 402 l 6
 692 431 693 469 693 510 c 6
 693 556 l 6
 693 582 693 607 691 629 c 4
 688 665 663 679 646 680 c 4
 634 681 633 690 633 695 c 4
800 695 m 4
 800 702 803 710 817 710 c 4
 834 710 850 706 884 706 c 4
 910 706 899 708 937 708 c 4
 941 708 953 707 953 694 c 4
 953 685 943 679 926 667 c 4
 909 656 907 591 907 552 c 4
 907 317 905 274 905 182 c 4
 905 121 909 89 920 61 c 4
 933 32 943 30 949 30 c 4
 951 30 959 29 961 29 c 4
 967 29 973 23 973 18 c 4
 973 2 968 0 958 0 c 4
 926 0 921 4 901 4 c 4
 870 4 857 -1 835 -1 c 4
 810 -1 808 6 808 14 c 4
 808 41 844 13 853 78 c 4
 854 86 859 277 859 345 c 6
 859 402 l 6
 859 431 860 469 860 510 c 6
 860 556 l 6
 860 582 859 607 857 629 c 4
 854 665 829 679 812 680 c 4
 800 681 800 690 800 695 c 4
EndSplineSet
EndChar
StartChar: uF1D9F
Encoding: 990623 990623 8
Width: 1000
VWidth: 0
Flags: MW
LayerCount: 2
Back
Fore
SplineSet
6 695 m 4
 6 702 10 710 34 710 c 4
 62 710 90 706 146 706 c 4
 189 706 171 708 234 708 c 4
 241 708 262 707 262 694 c 4
 262 685 245 679 216 667 c 4
 188 656 184 591 184 552 c 4
 184 317 180 274 180 182 c 4
 180 121 187 89 206 61 c 4
 227 32 244 30 254 30 c 4
 257 30 271 29 274 29 c 4
 284 29 294 23 294 18 c 4
 294 2 287 0 270 0 c 4
 216 0 207 4 174 4 c 4
 122 4 100 -1 64 -1 c 4
 23 -1 20 6 20 14 c 4
 20 41 79 13 94 78 c 4
 96 86 104 277 104 345 c 6
 104 402 l 6
 104 431 106 469 106 510 c 6
 106 556 l 6
 106 582 105 607 102 629 c 4
 97 665 54 679 26 680 c 4
 6 681 6 690 6 695 c 4
284 701 m 4
 284 712 288 714 326 714 c 4
 368 714 355 710 414 710 c 4
 425 710 512 712 520 712 c 4
 534 712 542 712 542 703 c 4
 542 675 496 697 496 664 c 4
 496 643 532 593 550 567 c 4
 612 473 639 428 650 428 c 4
 657 428 663 434 674 450 c 4
 715 510 806 632 806 655 c 4
 806 702 752 677 752 704 c 4
 752 712 758 714 768 714 c 4
 811 714 813 710 848 710 c 4
 942 710 919 714 942 714 c 4
 950 714 958 712 958 704 c 4
 958 682 927 691 884 661 c 4
 867 649 851 630 830 602 c 4
 768 519 676 396 676 392 c 4
 676 380 689 369 802 205 c 4
 835 157 904 63 932 40 c 4
 941 32 994 32 994 13 c 4
 994 5 992 -1 962 -1 c 4
 930 -1 867 6 856 6 c 4
 791 6 766 0 754 0 c 4
 746 0 740 2 740 13 c 4
 740 39 792 21 792 56 c 4
 792 80 732 159 636 303 c 4
 630 313 621 320 618 320 c 4
 614 320 609 307 598 289 c 4
 534 189 450 100 450 55 c 4
 450 46 453 28 504 28 c 4
 511 28 516 24 516 11 c 4
 516 1 507 0 486 0 c 4
 468 0 407 3 398 3 c 4
 380 3 339 -1 318 -1 c 4
 300 -1 288 0 288 18 c 4
 288 39 321 20 360 51 c 4
 410 91 470 180 522 253 c 4
 563 310 596 349 596 356 c 4
 596 365 562 405 460 551 c 4
 428 598 370 671 324 681 c 4
 311 684 284 684 284 701 c 4
EndSplineSet
EndChar
StartChar: uF1DA0
Encoding: 990624 990624 9
Width: 1000
VWidth: 0
Flags: MW
LayerCount: 2
Back
Fore
SplineSet
144 701 m 4
 144 712 148 714 186 714 c 4
 228 714 217 710 276 710 c 4
 287 710 372 712 380 712 c 4
 394 712 402 712 402 703 c 4
 402 675 358 697 358 664 c 4
 358 643 394 593 412 567 c 4
 474 473 501 428 512 428 c 4
 519 428 523 434 534 450 c 4
 575 510 666 632 666 655 c 4
 666 702 614 677 614 704 c 4
 614 712 618 714 628 714 c 4
 671 714 675 710 710 710 c 4
 804 710 781 714 804 714 c 4
 812 714 820 712 820 704 c 4
 820 682 787 691 744 661 c 4
 727 649 713 630 692 602 c 4
 630 519 536 396 536 392 c 4
 536 380 549 369 662 205 c 4
 695 157 764 63 792 40 c 4
 801 32 856 32 856 13 c 4
 856 5 854 -1 824 -1 c 4
 792 -1 727 6 716 6 c 4
 651 6 626 0 614 0 c 4
 606 0 602 2 602 13 c 4
 602 39 652 21 652 56 c 4
 652 80 592 159 496 303 c 4
 490 313 483 320 480 320 c 4
 476 320 469 307 458 289 c 4
 394 189 312 100 312 55 c 4
 312 46 315 28 366 28 c 4
 373 28 378 24 378 11 c 4
 378 1 367 0 346 0 c 4
 328 0 267 3 258 3 c 4
 240 3 199 -1 178 -1 c 4
 160 -1 150 0 150 18 c 4
 150 39 181 20 220 51 c 4
 270 91 330 180 382 253 c 4
 423 310 456 349 456 356 c 4
 456 365 422 405 320 551 c 4
 288 598 230 671 184 681 c 4
 171 684 144 684 144 701 c 4
EndSplineSet
EndChar
StartChar: uF1DB1
Encoding: 990641 990641 30
Width: 1000
VWidth: 0
Flags: MW
LayerCount: 2
Back
Fore
SplineSet
34 388 m 4
 34 409 61 404 87 423 c 4
 100 432 103 438 113 438 c 4
 118 438 120 425 120 409 c 4
 120 397 118 375 118 367 c 4
 118 361 117 355 121 355 c 4
 125 355 141 427 202 427 c 4
 267 427 273 348 279 348 c 4
 283 348 312 430 361 430 c 4
 423 430 451 357 456 280 c 4
 459 231 460 188 460 153 c 6
 460 121 l 6
 460 68 461 38 477 30 c 4
 482 28 500 28 500 11 c 4
 500 -4 487 -4 480 -4 c 4
 472 -4 452 0 440 0 c 4
 423 0 410 -4 397 -4 c 4
 390 -4 383 -2 383 6 c 4
 383 26 405 23 410 42 c 4
 412 50 413 68 413 88 c 6
 413 104 l 6
 413 325 409 313 390 352 c 4
 380 372 363 383 345 383 c 4
 315 383 283 338 283 329 c 4
 283 316 287 304 287 202 c 6
 287 117 l 6
 287 62 291 31 328 22 c 4
 337 20 339 9 339 6 c 4
 339 -5 332 -5 328 -5 c 4
 318 -5 301 0 284 0 c 4
 273 0 234 -5 229 -5 c 4
 225 -5 216 -2 216 8 c 4
 216 17 218 20 230 28 c 4
 234 30 244 32 244 90 c 4
 244 104 244 91 244 199 c 4
 244 262 243 256 243 262 c 4
 243 331 221 379 182 379 c 4
 148 379 117 345 117 306 c 6
 117 292 l 5
 117 104 l 6
 117 0 167 35 167 12 c 4
 167 1 168 -3 155 -3 c 4
 146 -3 130 0 104 0 c 4
 80 0 66 -3 57 -3 c 4
 43 -3 42 5 42 12 c 4
 42 33 62 13 70 56 c 4
 74 77 75 137 75 208 c 4
 75 247 74 289 74 330 c 4
 74 400 34 356 34 388 c 4
500 388 m 4
 500 409 527 404 553 423 c 4
 566 432 570 438 580 438 c 4
 585 438 587 425 587 409 c 4
 587 397 584 375 584 367 c 4
 584 361 583 355 587 355 c 4
 591 355 607 427 668 427 c 4
 733 427 739 348 745 348 c 4
 749 348 778 430 827 430 c 4
 889 430 918 357 923 280 c 4
 926 231 926 188 926 153 c 6
 926 121 l 6
 926 68 927 38 943 30 c 4
 948 28 966 28 966 11 c 4
 966 -4 953 -4 946 -4 c 4
 938 -4 918 0 906 0 c 4
 889 0 876 -4 863 -4 c 4
 856 -4 849 -2 849 6 c 4
 849 26 871 23 876 42 c 4
 878 50 879 68 879 88 c 6
 879 104 l 6
 879 325 875 313 856 352 c 4
 846 372 829 383 811 383 c 4
 781 383 749 338 749 329 c 4
 749 316 753 304 753 202 c 6
 753 117 l 6
 753 62 757 31 794 22 c 4
 803 20 805 9 805 6 c 4
 805 -5 798 -5 794 -5 c 4
 784 -5 767 0 750 0 c 4
 739 0 700 -5 695 -5 c 4
 691 -5 682 -2 682 8 c 4
 682 17 684 20 696 28 c 4
 700 30 710 32 710 90 c 4
 710 104 710 91 710 199 c 4
 710 262 709 256 709 262 c 4
 709 331 687 379 648 379 c 4
 614 379 583 345 583 306 c 6
 583 292 l 5
 583 104 l 6
 583 0 634 35 634 12 c 4
 634 1 634 -3 621 -3 c 4
 612 -3 596 0 570 0 c 4
 546 0 532 -3 523 -3 c 4
 509 -3 509 5 509 12 c 4
 509 33 528 13 536 56 c 4
 540 77 541 137 541 208 c 4
 541 247 540 289 540 330 c 4
 540 400 500 356 500 388 c 4
EndSplineSet
EndChar
StartChar: uF1DB2
Encoding: 990642 990642 31
Width: 1000
VWidth: 0
Flags: MW
LayerCount: 2
Back
Fore
SplineSet
32 192 m 4
 32 314 104 429 218 429 c 4
 251 429 309 415 311 396 c 4
 312 384 313 366 313 349 c 4
 313 326 310 305 304 305 c 4
 293 305 292 323 278 337 c 4
 260 357 213 390 171 390 c 4
 155 390 92 363 92 224 c 4
 92 122 151 31 229 31 c 4
 293 31 324 83 334 83 c 4
 339 83 343 78 343 73 c 4
 343 64 301 -21 198 -21 c 4
 99 -21 32 58 32 192 c 4
347 388 m 4
 347 409 384 404 418 423 c 4
 435 432 439 438 453 438 c 4
 460 438 462 425 462 409 c 4
 462 397 458 375 458 367 c 4
 458 361 458 355 463 355 c 4
 469 355 489 427 571 427 c 4
 657 427 666 348 674 348 c 4
 680 348 717 430 783 430 c 4
 866 430 904 357 910 280 c 4
 914 231 915 188 915 153 c 6
 915 121 l 6
 915 68 917 38 938 30 c 4
 944 28 968 28 968 11 c 4
 968 -4 951 -4 942 -4 c 4
 932 -4 905 0 889 0 c 4
 867 0 848 -4 831 -4 c 4
 822 -4 812 -2 812 6 c 4
 812 26 843 23 849 42 c 4
 851 50 852 68 852 88 c 6
 852 104 l 6
 852 325 848 313 822 352 c 4
 808 372 786 383 762 383 c 4
 722 383 679 338 679 329 c 4
 679 316 684 304 684 202 c 6
 684 117 l 6
 684 62 690 31 739 22 c 4
 751 20 754 9 754 6 c 4
 754 -5 743 -5 738 -5 c 4
 724 -5 703 0 680 0 c 4
 666 0 614 -5 607 -5 c 4
 601 -5 590 -2 590 8 c 4
 590 17 592 20 608 28 c 4
 614 30 626 32 626 90 c 4
 626 104 627 91 627 199 c 4
 627 262 626 256 626 262 c 4
 626 331 596 379 544 379 c 4
 499 379 458 345 458 306 c 6
 458 292 l 5
 458 104 l 6
 458 0 525 35 525 12 c 4
 525 1 525 -3 508 -3 c 4
 496 -3 475 0 441 0 c 4
 409 0 390 -3 378 -3 c 4
 360 -3 358 5 358 12 c 4
 358 33 384 13 395 56 c 4
 400 77 402 137 402 208 c 4
 402 247 401 289 401 330 c 4
 401 400 347 356 347 388 c 4
EndSplineSet
EndChar
StartChar: uF1DB3
Encoding: 990643 990643 32
Width: 1000
VWidth: 0
Flags: MW
LayerCount: 2
Back
Fore
SplineSet
12 689 m 4
 12 697 20 703 48 715 c 4
 87 731 75 724 103 747 c 4
 109 752 120 760 128 760 c 4
 136 760 138 750 138 741 c 4
 138 731 132 677 132 488 c 4
 132 420 130 351 130 283 c 6
 130 262 l 6
 130 241 130 220 132 220 c 4
 142 220 146 232 156 243 c 4
 256 349 262 364 262 370 c 4
 262 394 228 391 228 409 c 4
 228 415 230 419 237 419 c 4
 241 419 244 418 250 418 c 4
 311 420 343 423 360 423 c 4
 376 423 380 420 380 414 c 4
 380 394 357 409 312 371 c 4
 304 365 305 364 277 336 c 4
 202 260 202 262 202 250 c 4
 202 243 206 235 210 227 c 4
 264 139 304 87 328 59 c 4
 376 3 407 36 407 12 c 4
 407 -5 397 -5 376 -5 c 4
 366 -5 306 -4 298 -4 c 4
 276 -4 184 154 160 193 c 4
 158 197 155 199 152 199 c 4
 143 199 129 179 129 153 c 4
 129 148 130 143 130 136 c 4
 133 42 130 65 143 41 c 4
 154 19 199 28 199 9 c 4
 199 -5 179 -7 176 -7 c 4
 168 -7 127 -1 103 -1 c 4
 81 -1 80 -5 48 -5 c 4
 38 -5 30 -4 30 7 c 4
 30 20 44 22 49 24 c 4
 73 36 76 54 76 116 c 4
 76 135 76 152 76 160 c 6
 77 604 l 6
 77 671 56 679 42 679 c 4
 37 679 33 678 27 678 c 4
 19 678 12 680 12 689 c 4
406 388 m 4
 406 409 440 404 472 423 c 4
 488 432 492 438 505 438 c 4
 512 438 514 425 514 409 c 4
 514 397 510 375 510 367 c 4
 510 361 511 355 515 355 c 4
 520 355 540 427 616 427 c 4
 697 427 704 348 712 348 c 4
 717 348 753 430 815 430 c 4
 893 430 928 357 934 280 c 4
 938 231 939 188 939 153 c 6
 939 121 l 6
 939 68 940 38 960 30 c 4
 966 28 988 28 988 11 c 4
 988 -4 972 -4 964 -4 c 4
 954 -4 929 0 914 0 c 4
 893 0 876 -4 860 -4 c 4
 852 -4 842 -2 842 6 c 4
 842 26 870 23 876 42 c 4
 878 50 880 68 880 88 c 6
 880 104 l 6
 880 325 875 313 851 352 c 4
 838 372 817 383 795 383 c 4
 757 383 718 338 718 329 c 4
 718 316 722 304 722 202 c 6
 722 117 l 6
 722 62 728 31 774 22 c 4
 785 20 787 9 787 6 c 4
 787 -5 777 -5 773 -5 c 4
 760 -5 740 0 718 0 c 4
 704 0 657 -5 650 -5 c 4
 645 -5 634 -2 634 8 c 4
 634 17 636 20 651 28 c 4
 656 30 668 32 668 90 c 4
 668 104 669 91 669 199 c 4
 669 262 667 256 667 262 c 4
 667 331 640 379 591 379 c 4
 549 379 510 345 510 306 c 6
 510 292 l 5
 510 104 l 6
 510 0 573 35 573 12 c 4
 573 1 573 -3 557 -3 c 4
 546 -3 526 0 494 0 c 4
 464 0 446 -3 435 -3 c 4
 418 -3 417 5 417 12 c 4
 417 33 441 13 451 56 c 4
 455 77 457 137 457 208 c 4
 457 247 456 289 456 330 c 4
 456 400 406 356 406 388 c 4
EndSplineSet
EndChar
StartChar: uF1DB4
Encoding: 990644 990644 33
Width: 1000
VWidth: 0
Flags: MW
LayerCount: 2
Back
Fore
SplineSet
17 388 m 4
 17 409 54 404 88 423 c 4
 105 432 109 438 123 438 c 4
 130 438 132 425 132 409 c 4
 132 397 128 375 128 367 c 4
 128 361 128 355 133 355 c 4
 139 355 159 427 241 427 c 4
 327 427 336 348 344 348 c 4
 350 348 387 430 453 430 c 4
 536 430 574 357 580 280 c 4
 584 231 585 188 585 153 c 6
 585 121 l 6
 585 68 587 38 608 30 c 4
 614 28 638 28 638 11 c 4
 638 -4 621 -4 612 -4 c 4
 602 -4 575 0 559 0 c 4
 537 0 518 -4 501 -4 c 4
 492 -4 482 -2 482 6 c 4
 482 26 513 23 519 42 c 4
 521 50 522 68 522 88 c 6
 522 104 l 6
 522 325 518 313 492 352 c 4
 478 372 456 383 432 383 c 4
 392 383 349 338 349 329 c 4
 349 316 354 304 354 202 c 6
 354 117 l 6
 354 62 360 31 409 22 c 4
 421 20 424 9 424 6 c 4
 424 -5 413 -5 408 -5 c 4
 394 -5 373 0 350 0 c 4
 336 0 284 -5 277 -5 c 4
 271 -5 260 -2 260 8 c 4
 260 17 262 20 278 28 c 4
 284 30 296 32 296 90 c 4
 296 104 297 91 297 199 c 4
 297 262 296 256 296 262 c 4
 296 331 266 379 214 379 c 4
 169 379 128 345 128 306 c 6
 128 292 l 5
 128 104 l 6
 128 0 195 35 195 12 c 4
 195 1 195 -3 178 -3 c 4
 166 -3 145 0 111 0 c 4
 79 0 60 -3 48 -3 c 4
 30 -3 28 5 28 12 c 4
 28 33 54 13 65 56 c 4
 70 77 72 137 72 208 c 4
 72 247 71 289 71 330 c 4
 71 400 17 356 17 388 c 4
645 -97 m 4
 645 -36 703 -22 703 -12 c 4
 703 -6 676 3 676 47 c 4
 676 115 718 136 718 146 c 4
 718 162 664 175 664 280 c 4
 664 332 688 433 802 433 c 4
 872 433 892 393 903 393 c 4
 915 393 929 403 944 411 c 4
 965 422 958 459 972 459 c 4
 974 459 983 459 983 451 c 4
 983 416 972 374 965 360 c 4
 956 343 943 335 932 329 c 5
 932 329 941 299 941 279 c 4
 941 194 883 127 809 127 c 4
 773 127 760 136 748 136 c 4
 746 136 712 134 712 87 c 4
 712 38 753 35 819 35 c 6
 856 35 l 6
 894 35 972 32 972 -53 c 4
 972 -70 971 -86 966 -100 c 4
 945 -165 876 -207 794 -207 c 4
 732 -207 645 -184 645 -97 c 4
692 -91 m 4
 692 -154 741 -180 794 -180 c 4
 856 -180 923 -145 923 -89 c 4
 923 -38 880 -38 834 -38 c 6
 827 -38 l 6
 785 -38 737 -24 728 -24 c 4
 721 -24 692 -49 692 -91 c 4
724 290 m 4
 724 210 758 150 804 150 c 4
 854 150 879 207 879 269 c 4
 879 338 850 411 796 411 c 4
 759 411 724 371 724 290 c 4
EndSplineSet
EndChar
StartChar: uF1DB5
Encoding: 990645 990645 34
Width: 1000
VWidth: 0
Flags: MW
LayerCount: 2
Back
Fore
SplineSet
22 689 m 4
 22 697 33 703 71 715 c 4
 123 731 106 724 144 747 c 4
 152 752 166 760 177 760 c 4
 188 760 191 750 191 741 c 4
 191 731 182 677 182 488 c 4
 182 420 179 351 179 283 c 6
 179 262 l 6
 179 241 180 220 183 220 c 4
 197 220 202 232 215 243 c 4
 348 349 355 364 355 370 c 4
 355 394 310 391 310 409 c 4
 310 415 313 419 322 419 c 4
 327 419 332 418 340 418 c 4
 421 420 464 423 487 423 c 4
 509 423 513 420 513 414 c 4
 513 394 483 409 423 371 c 4
 413 365 414 364 376 336 c 4
 276 260 276 262 276 250 c 4
 276 243 281 235 287 227 c 4
 359 139 411 87 443 59 c 4
 507 3 549 36 549 12 c 4
 549 -5 536 -5 508 -5 c 4
 495 -5 414 -4 404 -4 c 4
 374 -4 252 154 220 193 c 4
 217 197 213 199 209 199 c 4
 197 199 178 179 178 153 c 4
 178 148 179 143 179 136 c 4
 183 42 180 65 197 41 c 4
 212 19 272 28 272 9 c 4
 272 -5 245 -7 241 -7 c 4
 231 -7 176 -1 144 -1 c 4
 115 -1 114 -5 71 -5 c 4
 58 -5 47 -4 47 7 c 4
 47 20 65 22 72 24 c 4
 104 36 107 54 107 116 c 4
 107 135 108 152 108 160 c 6
 109 604 l 6
 109 671 81 679 62 679 c 4
 55 679 50 678 42 678 c 4
 31 678 22 680 22 689 c 4
556 -97 m 4
 556 -36 628 -22 628 -12 c 4
 628 -6 595 3 595 47 c 4
 595 115 647 136 647 146 c 4
 647 162 579 175 579 280 c 4
 579 332 609 433 752 433 c 4
 840 433 864 393 878 393 c 4
 893 393 910 403 929 411 c 4
 955 422 948 459 965 459 c 4
 968 459 978 459 978 451 c 4
 978 416 965 374 956 360 c 4
 945 343 929 335 915 329 c 5
 915 329 926 299 926 279 c 4
 926 194 853 127 761 127 c 4
 716 127 699 136 684 136 c 4
 682 136 639 134 639 87 c 4
 639 38 690 35 773 35 c 6
 819 35 l 6
 866 35 964 32 964 -53 c 4
 964 -70 963 -86 957 -100 c 4
 931 -165 845 -207 742 -207 c 4
 664 -207 556 -184 556 -97 c 4
614 -91 m 4
 614 -154 676 -180 742 -180 c 4
 819 -180 903 -145 903 -89 c 4
 903 -38 849 -38 792 -38 c 6
 783 -38 l 6
 730 -38 671 -24 660 -24 c 4
 651 -24 614 -49 614 -91 c 4
655 290 m 4
 655 210 697 150 755 150 c 4
 818 150 848 207 848 269 c 4
 848 338 812 411 744 411 c 4
 698 411 655 371 655 290 c 4
EndSplineSet
EndChar
StartChar: uF1DB6
Encoding: 990646 990646 35
Width: 1000
VWidth: 0
Flags: MW
LayerCount: 2
Back
Fore
SplineSet
104 192 m 4
 104 314 194 429 336 429 c 4
 377 429 452 415 454 396 c 4
 455 384 456 366 456 349 c 4
 456 326 452 305 444 305 c 4
 430 305 429 323 412 337 c 4
 389 357 331 390 278 390 c 4
 258 390 180 363 180 224 c 4
 180 122 253 31 350 31 c 4
 430 31 469 83 482 83 c 4
 488 83 494 78 494 73 c 4
 494 64 441 -21 312 -21 c 4
 188 -21 104 58 104 192 c 4
506 192 m 4
 506 314 596 429 738 429 c 4
 779 429 854 415 856 396 c 4
 857 384 858 366 858 349 c 4
 858 326 854 305 846 305 c 4
 832 305 831 323 814 337 c 4
 791 357 733 390 680 390 c 4
 660 390 582 363 582 224 c 4
 582 122 655 31 752 31 c 4
 832 31 871 83 884 83 c 4
 890 83 896 78 896 73 c 4
 896 64 843 -21 714 -21 c 4
 590 -21 506 58 506 192 c 4
EndSplineSet
EndChar
StartChar: uF1DB7
Encoding: 990647 990647 36
Width: 1000
VWidth: 0
Flags: MW
LayerCount: 2
Back
Fore
SplineSet
25 388 m 4
 25 409 68 404 109 423 c 4
 129 432 135 438 151 438 c 4
 160 438 162 425 162 409 c 4
 162 397 158 375 158 367 c 4
 158 361 157 355 163 355 c 4
 170 355 194 427 291 427 c 4
 394 427 403 348 413 348 c 4
 420 348 465 430 543 430 c 4
 642 430 686 357 694 280 c 4
 699 231 700 188 700 153 c 6
 700 121 l 6
 700 68 702 38 727 30 c 4
 735 28 763 28 763 11 c 4
 763 -4 741 -4 731 -4 c 4
 719 -4 688 0 669 0 c 4
 642 0 620 -4 600 -4 c 4
 590 -4 577 -2 577 6 c 4
 577 26 613 23 621 42 c 4
 624 50 625 68 625 88 c 6
 625 104 l 6
 625 325 619 313 589 352 c 4
 573 372 546 383 518 383 c 4
 470 383 420 338 420 329 c 4
 420 316 425 304 425 202 c 6
 425 117 l 6
 425 62 433 31 491 22 c 4
 505 20 508 9 508 6 c 4
 508 -5 496 -5 490 -5 c 4
 474 -5 449 0 421 0 c 4
 404 0 343 -5 334 -5 c 4
 327 -5 313 -2 313 8 c 4
 313 17 316 20 335 28 c 4
 342 30 357 32 357 90 c 4
 357 104 358 91 358 199 c 4
 358 262 356 256 356 262 c 4
 356 331 321 379 259 379 c 4
 206 379 157 345 157 306 c 6
 157 292 l 5
 157 104 l 6
 157 0 236 35 236 12 c 4
 236 1 236 -3 216 -3 c 4
 202 -3 178 0 137 0 c 4
 99 0 76 -3 62 -3 c 4
 40 -3 39 5 39 12 c 4
 39 33 69 13 82 56 c 4
 88 77 90 137 90 208 c 4
 90 247 89 289 89 330 c 4
 89 400 25 356 25 388 c 4
727 404 m 6
 727 406 l 6
 727 424 786 463 853 613 c 4
 868 647 879 688 879 723 c 4
 879 755 857 779 820 779 c 4
 764 779 747 743 736 743 c 4
 733 743 731 747 731 752 c 4
 731 759 765 830 844 830 c 4
 889 830 938 804 938 748 c 4
 938 643 794 471 794 460 c 4
 794 456 806 455 819 455 c 6
 832 455 l 6
 928 455 913 456 928 463 c 4
 946 471 959 494 968 494 c 4
 973 494 975 491 975 488 c 4
 975 483 934 409 934 409 c 6
 926 398 920 396 914 396 c 4
 844 396 840 398 812 398 c 4
 798 398 762 397 746 397 c 4
 728 397 727 400 727 404 c 6
EndSplineSet
EndChar
StartChar: uF1DBA
Encoding: 990650 990650 37
Width: 1000
VWidth: 0
Flags: MW
LayerCount: 2
Back
Fore
SplineSet
13 691 m 4
 13 698 20 708 30 708 c 4
 37 708 49 707 55 707 c 4
 73 707 75 709 88 709 c 4
 96 709 110 700 112 692 c 4
 115 684 134 655 153 618 c 4
 222 484 355 259 396 191 c 4
 415 160 421 146 426 146 c 4
 432 146 433 176 433 208 c 6
 433 325 l 6
 433 478 432 509 432 530 c 6
 432 537 l 6
 432 677 395 663 367 676 c 4
 358 680 354 687 354 693 c 4
 354 701 356 708 367 708 c 4
 375 708 423 707 430 707 c 4
 458 707 477 709 490 709 c 4
 505 709 510 706 510 692 c 4
 510 681 488 673 487 672 c 4
 481 667 465 643 465 559 c 6
 465 521 l 6
 465 380 458 125 458 26 c 6
 458 6 l 6
 458 -7 456 -17 448 -17 c 4
 444 -17 440 -13 438 -10 c 4
 142 503 132 520 125 520 c 4
 120 520 118 493 118 452 c 4
 118 290 113 176 113 128 c 4
 113 -4 178 46 178 13 c 4
 178 -3 175 -4 168 -4 c 4
 149 -4 155 -2 96 -2 c 4
 82 -2 63 -4 39 -4 c 4
 30 -4 25 -3 25 12 c 4
 25 38 58 6 74 88 c 4
 80 121 90 426 90 499 c 4
 90 613 70 668 22 676 c 4
 13 677 13 686 13 691 c 4
526 203 m 4
 526 316 578 431 683 431 c 4
 761 431 839 355 839 209 c 4
 839 59 759 -18 679 -18 c 4
 577 -18 526 92 526 203 c 4
578 237 m 4
 578 91 642 12 699 12 c 4
 746 12 789 66 789 179 c 4
 789 285 749 404 667 404 c 4
 628 404 578 361 578 237 c 4
868 55 m 4
 868 64 877 80 888 94 c 4
 897 106 903 129 916 129 c 4
 921 129 933 109 944 90 c 4
 950 80 964 65 964 55 c 4
 964 43 951 33 941 19 c 4
 933 7 924 -16 915 -16 c 4
 904 -16 897 11 888 21 c 4
 877 33 868 45 868 55 c 4
EndSplineSet
EndChar
StartChar: uF1DBB
Encoding: 990651 990651 38
Width: 1000
VWidth: 0
Flags: MW
LayerCount: 2
Back
Fore
SplineSet
20 695 m 4
 20 702 22 708 35 708 c 4
 50 708 65 706 95 706 c 4
 118 706 104 708 141 708 c 4
 145 708 150 707 150 695 c 4
 150 685 141 683 132 674 c 4
 118 659 115 591 115 552 c 4
 115 462 113 417 113 396 c 4
 113 378 114 375 118 375 c 4
 124 375 277 607 277 655 c 4
 277 677 259 679 250 683 c 4
 245 685 245 694 245 697 c 4
 245 708 249 708 253 708 c 4
 256 708 260 707 266 707 c 4
 271 707 285 705 299 705 c 4
 301 705 365 708 365 708 c 6
 372 708 376 705 376 695 c 4
 376 679 364 681 345 666 c 4
 337 660 330 650 318 636 c 4
 308 625 322 642 165 396 c 4
 161 390 159 382 159 382 c 6
 159 376 162 371 165 366 c 4
 318 84 335 42 368 32 c 4
 379 29 386 28 386 14 c 4
 386 2 385 1 355 1 c 6
 303 1 l 6
 289 1 297 4 252 91 c 4
 129 323 131 324 122 324 c 4
 116 324 115 309 115 297 c 4
 115 295 115 276 115 220 c 4
 115 159 115 89 123 62 c 4
 133 31 154 30 159 30 c 4
 161 30 161 29 163 29 c 4
 168 29 174 23 174 18 c 4
 174 2 170 0 161 0 c 4
 132 0 128 4 110 4 c 4
 82 4 70 -1 51 -1 c 4
 33 -1 32 4 32 10 c 6
 32 14 l 6
 32 30 52 22 62 42 c 4
 73 63 73 148 73 268 c 6
 73 402 l 6
 73 431 72 469 72 510 c 6
 72 556 l 6
 72 582 72 607 70 629 c 4
 68 664 46 679 31 680 c 4
 20 681 20 690 20 695 c 4
399 55 m 4
 399 64 406 80 415 94 c 4
 422 106 428 129 438 129 c 4
 442 129 451 109 460 90 c 4
 465 80 476 65 476 55 c 4
 476 43 465 33 457 19 c 4
 451 7 444 -16 437 -16 c 4
 428 -16 422 11 415 21 c 4
 406 33 399 45 399 55 c 4
515 695 m 4
 515 702 517 708 530 708 c 4
 545 708 561 706 591 706 c 4
 614 706 600 708 637 708 c 4
 641 708 646 707 646 695 c 4
 646 685 636 683 627 674 c 4
 613 659 611 591 611 552 c 4
 611 462 609 417 609 396 c 4
 609 378 610 375 614 375 c 4
 620 375 773 607 773 655 c 4
 773 677 755 679 746 683 c 4
 741 685 740 694 740 697 c 4
 740 708 745 708 749 708 c 4
 752 708 756 707 762 707 c 4
 767 707 780 705 794 705 c 4
 796 705 861 708 861 708 c 6
 868 708 871 705 871 695 c 4
 871 679 859 681 840 666 c 4
 832 660 826 650 814 636 c 4
 804 625 817 642 660 396 c 4
 656 390 654 382 654 382 c 6
 654 376 657 371 660 366 c 4
 813 84 831 42 864 32 c 4
 875 29 882 28 882 14 c 4
 882 2 881 1 851 1 c 6
 799 1 l 6
 785 1 792 4 747 91 c 4
 624 323 627 324 618 324 c 4
 612 324 610 309 610 297 c 4
 610 295 611 276 611 220 c 4
 611 159 611 89 619 62 c 4
 629 31 649 30 654 30 c 4
 656 30 657 29 659 29 c 4
 664 29 670 23 670 18 c 4
 670 2 666 0 657 0 c 4
 628 0 624 4 606 4 c 4
 578 4 566 -1 547 -1 c 4
 529 -1 528 4 528 10 c 6
 528 14 l 6
 528 30 547 22 557 42 c 4
 568 63 568 148 568 268 c 6
 568 402 l 6
 568 431 567 469 567 510 c 6
 567 556 l 6
 567 582 568 607 566 629 c 4
 564 664 542 679 527 680 c 4
 516 681 515 690 515 695 c 4
894 55 m 4
 894 64 902 80 911 94 c 4
 918 106 923 129 933 129 c 4
 937 129 946 109 955 90 c 4
 960 80 971 65 971 55 c 4
 971 43 961 33 953 19 c 4
 947 7 939 -16 932 -16 c 4
 923 -16 918 11 911 21 c 4
 902 33 894 45 894 55 c 4
EndSplineSet
EndChar
StartChar: uF1DBC
Encoding: 990652 990652 39
Width: 1000
VWidth: 0
Flags: MW
LayerCount: 2
Back
Fore
SplineSet
11 580 m 4
 11 609 15 658 17 683 c 4
 19 705 17 718 34 718 c 4
 73 718 68 710 191 710 c 4
 273 710 333 712 363 715 c 4
 364 715 366 716 367 716 c 4
 376 716 377 702 377 699 c 4
 377 687 380 626 380 618 c 4
 380 583 379 580 372 580 c 4
 371 580 367 581 365 592 c 4
 358 639 356 658 309 658 c 6
 237 658 l 6
 219 658 217 654 217 594 c 6
 217 545 l 6
 217 312 216 270 216 179 c 4
 216 153 215 132 215 114 c 4
 215 87 216 69 223 57 c 4
 244 20 270 39 270 13 c 4
 270 -3 265 -4 256 -4 c 4
 242 -4 212 4 194 4 c 4
 180 4 156 -3 138 -3 c 4
 126 -3 117 1 117 13 c 4
 117 34 132 30 146 36 c 4
 156 40 165 49 167 76 c 4
 171 146 173 412 173 454 c 4
 173 560 172 633 172 633 c 6
 172 658 171 661 130 661 c 4
 48 661 46 650 40 636 c 4
 25 600 31 563 17 563 c 4
 14 563 11 566 11 580 c 4
375 699 m 4
 375 711 386 713 390 713 c 4
 394 713 400 711 406 711 c 4
 419 711 486 706 541 706 c 4
 563 706 636 710 653 710 c 4
 657 710 663 708 663 687 c 4
 663 667 657 635 657 585 c 4
 657 573 652 563 648 563 c 4
 644 563 639 570 639 584 c 4
 639 619 626 654 607 656 c 4
 571 661 561 663 530 663 c 6
 515 663 l 6
 476 663 478 662 476 602 c 4
 475 566 473 481 473 435 c 4
 473 417 474 385 484 384 c 6
 498 384 l 5
 521 384 l 5
 539 384 l 6
 587 384 592 390 603 403 c 4
 612 415 615 429 616 440 c 4
 617 450 618 457 624 457 c 4
 631 457 631 453 631 441 c 4
 631 423 627 371 627 336 c 4
 627 302 628 294 628 275 c 4
 628 251 626 250 624 250 c 4
 617 250 614 260 612 274 c 4
 609 292 606 313 598 323 c 4
 586 337 547 337 545 337 c 4
 497 337 502 338 496 338 c 4
 484 338 473 335 473 319 c 4
 473 262 472 231 472 175 c 6
 472 135 l 6
 472 102 476 61 485 56 c 4
 497 49 501 48 509 48 c 4
 687 48 666 143 682 143 c 4
 685 143 689 138 689 126 c 4
 689 66 645 -5 623 -5 c 4
 552 -5 504 5 470 5 c 4
 439 5 421 -4 394 -4 c 4
 388 -4 383 -5 383 6 c 4
 383 33 384 17 407 37 c 4
 424 52 428 78 428 231 c 6
 428 355 l 6
 428 410 430 466 430 528 c 4
 430 557 430 587 429 619 c 4
 428 661 406 680 384 681 c 4
 375 681 375 690 375 699 c 4
683 695 m 4
 683 710 695 713 699 713 c 4
 703 713 708 711 714 711 c 4
 727 711 740 707 762 707 c 4
 792 707 811 711 821 711 c 4
 828 711 830 709 830 701 c 4
 830 658 788 714 784 593 c 4
 782 531 780 186 780 175 c 6
 780 135 l 6
 780 102 784 61 793 56 c 4
 805 49 809 48 817 48 c 4
 995 48 974 143 990 143 c 4
 993 143 997 138 997 126 c 4
 997 66 953 -5 931 -5 c 4
 860 -5 812 5 778 5 c 4
 747 5 736 -3 709 -3 c 4
 698 -3 692 2 692 9 c 4
 692 20 698 25 701 25 c 4
 703 25 709 25 717 35 c 4
 729 52 736 78 736 231 c 6
 736 355 l 6
 736 410 738 466 738 528 c 4
 738 557 738 587 737 619 c 4
 736 661 714 680 692 681 c 4
 684 681 683 687 683 695 c 4
EndSplineSet
EndChar
StartChar: uF1F54
Encoding: 991060 991060 40
Width: 1000
VWidth: 0
Flags: MW
LayerCount: 2
Back
Fore
SplineSet
12 192 m 4
 12 314 76 429 175 429 c 4
 204 429 256 415 257 396 c 4
 258 384 258 366 258 349 c 4
 258 326 256 305 250 305 c 4
 240 305 239 323 227 337 c 4
 211 357 171 390 134 390 c 4
 120 390 65 363 65 224 c 4
 65 122 117 31 185 31 c 4
 241 31 268 83 277 83 c 4
 281 83 285 78 285 73 c 4
 285 64 247 -21 157 -21 c 4
 70 -21 12 58 12 192 c 4
288 388 m 4
 288 409 320 404 350 423 c 4
 365 432 369 438 381 438 c 4
 387 438 389 425 389 409 c 4
 389 397 386 375 386 367 c 4
 386 361 386 355 390 355 c 4
 395 355 413 427 484 427 c 4
 560 427 567 348 574 348 c 4
 579 348 613 430 670 430 c 4
 743 430 775 357 781 280 c 4
 785 231 785 188 785 153 c 6
 785 121 l 6
 785 68 787 38 805 30 c 4
 811 28 831 28 831 11 c 4
 831 -4 816 -4 808 -4 c 4
 799 -4 776 0 762 0 c 4
 742 0 727 -4 712 -4 c 4
 704 -4 695 -2 695 6 c 4
 695 26 721 23 727 42 c 4
 729 50 730 68 730 88 c 6
 730 104 l 6
 730 325 725 313 703 352 c 4
 691 372 672 383 651 383 c 4
 616 383 579 338 579 329 c 4
 579 316 583 304 583 202 c 6
 583 117 l 6
 583 62 588 31 631 22 c 4
 641 20 644 9 644 6 c 4
 644 -5 635 -5 631 -5 c 4
 619 -5 599 0 579 0 c 4
 566 0 522 -5 516 -5 c 4
 511 -5 500 -2 500 8 c 4
 500 17 502 20 516 28 c 4
 521 30 533 32 533 90 c 4
 533 104 533 91 533 199 c 4
 533 262 532 256 532 262 c 4
 532 331 506 379 460 379 c 4
 421 379 385 345 385 306 c 6
 385 292 l 5
 385 104 l 6
 385 0 444 35 444 12 c 4
 444 1 444 -3 429 -3 c 4
 419 -3 400 0 370 0 c 4
 342 0 325 -3 315 -3 c 4
 299 -3 298 5 298 12 c 4
 298 33 320 13 330 56 c 4
 334 77 336 137 336 208 c 4
 336 247 335 289 335 330 c 4
 335 400 288 356 288 388 c 4
805 404 m 6
 805 406 l 6
 805 424 848 463 898 613 c 4
 909 647 917 688 917 723 c 4
 917 755 900 779 873 779 c 4
 832 779 820 743 812 743 c 4
 810 743 808 747 808 752 c 4
 808 759 834 830 892 830 c 4
 925 830 961 804 961 748 c 4
 961 643 855 471 855 460 c 4
 855 456 863 455 873 455 c 6
 883 455 l 6
 954 455 942 456 953 463 c 4
 966 471 977 494 983 494 c 4
 987 494 988 491 988 488 c 4
 988 483 957 409 957 409 c 6
 951 398 947 396 943 396 c 4
 891 396 889 398 868 398 c 4
 858 398 831 397 819 397 c 4
 806 397 805 400 805 404 c 6
EndSplineSet
EndChar
StartChar: uF1F55
Encoding: 991061 991061 41
Width: 1000
VWidth: 0
Flags: MW
LayerCount: 2
Back
Fore
SplineSet
4 689 m 4
 4 697 11 703 36 715 c 4
 70 731 59 724 84 747 c 4
 89 752 98 760 105 760 c 4
 112 760 114 750 114 741 c 4
 114 731 108 677 108 488 c 4
 108 420 106 351 106 283 c 6
 106 262 l 6
 106 241 107 220 109 220 c 4
 118 220 122 232 130 243 c 4
 216 349 221 364 221 370 c 4
 221 394 192 391 192 409 c 4
 192 415 193 419 199 419 c 4
 202 419 206 418 211 418 c 4
 264 420 292 423 307 423 c 4
 321 423 324 420 324 414 c 4
 324 394 304 409 265 371 c 4
 259 365 259 364 234 336 c 4
 169 260 169 262 169 250 c 4
 169 243 173 235 177 227 c 4
 224 139 257 87 278 59 c 4
 320 3 347 36 347 12 c 4
 347 -5 338 -5 320 -5 c 4
 312 -5 259 -4 253 -4 c 4
 233 -4 154 154 133 193 c 4
 131 197 129 199 126 199 c 4
 118 199 106 179 106 153 c 4
 106 148 106 143 106 136 c 4
 109 42 107 65 118 41 c 4
 128 19 167 28 167 9 c 4
 167 -5 150 -7 147 -7 c 4
 141 -7 105 -1 84 -1 c 4
 65 -1 64 -5 36 -5 c 4
 28 -5 21 -4 21 7 c 4
 21 20 32 22 37 24 c 4
 58 36 60 54 60 116 c 4
 60 135 60 152 60 160 c 6
 61 604 l 6
 61 671 42 679 30 679 c 4
 25 679 22 678 17 678 c 4
 10 678 4 680 4 689 c 4
346 388 m 4
 346 409 375 404 403 423 c 4
 417 432 421 438 432 438 c 4
 438 438 440 425 440 409 c 4
 440 397 437 375 437 367 c 4
 437 361 437 355 441 355 c 4
 446 355 462 427 528 427 c 4
 598 427 605 348 611 348 c 4
 616 348 648 430 701 430 c 4
 769 430 799 357 804 280 c 4
 807 231 808 188 808 153 c 6
 808 121 l 6
 808 68 809 38 826 30 c 4
 831 28 851 28 851 11 c 4
 851 -4 836 -4 829 -4 c 4
 821 -4 799 0 786 0 c 4
 768 0 754 -4 740 -4 c 4
 733 -4 724 -2 724 6 c 4
 724 26 749 23 754 42 c 4
 756 50 756 68 756 88 c 6
 756 104 l 6
 756 325 753 313 732 352 c 4
 721 372 703 383 683 383 c 4
 651 383 616 338 616 329 c 4
 616 316 620 304 620 202 c 6
 620 117 l 6
 620 62 625 31 665 22 c 4
 675 20 676 9 676 6 c 4
 676 -5 668 -5 664 -5 c 4
 653 -5 636 0 617 0 c 4
 605 0 564 -5 558 -5 c 4
 553 -5 543 -2 543 8 c 4
 543 17 545 20 558 28 c 4
 563 30 573 32 573 90 c 4
 573 104 574 91 574 199 c 4
 574 262 572 256 572 262 c 4
 572 331 548 379 506 379 c 4
 470 379 436 345 436 306 c 6
 436 292 l 5
 436 104 l 6
 436 0 491 35 491 12 c 4
 491 1 491 -3 477 -3 c 4
 467 -3 450 0 422 0 c 4
 396 0 381 -3 371 -3 c 4
 356 -3 355 5 355 12 c 4
 355 33 376 13 385 56 c 4
 389 77 390 137 390 208 c 4
 390 247 390 289 390 330 c 4
 390 400 346 356 346 388 c 4
826 404 m 6
 826 406 l 6
 826 424 866 463 912 613 c 4
 922 647 930 688 930 723 c 4
 930 755 915 779 890 779 c 4
 852 779 840 743 832 743 c 4
 830 743 829 747 829 752 c 4
 829 759 853 830 907 830 c 4
 938 830 971 804 971 748 c 4
 971 643 872 471 872 460 c 4
 872 456 880 455 889 455 c 6
 898 455 l 6
 964 455 954 456 964 463 c 4
 976 471 985 494 991 494 c 4
 994 494 996 491 996 488 c 4
 996 483 968 409 968 409 c 6
 963 398 958 396 954 396 c 4
 906 396 904 398 884 398 c 4
 874 398 850 397 839 397 c 4
 827 397 826 400 826 404 c 6
EndSplineSet
EndChar
StartChar: uF1F56
Encoding: 991062 991062 42
Width: 1000
VWidth: 0
Flags: MW
LayerCount: 2
Back
Fore
SplineSet
15 192 m 4
 15 314 78 429 177 429 c 4
 206 429 258 415 259 396 c 4
 260 384 260 366 260 349 c 4
 260 326 259 305 253 305 c 4
 243 305 241 323 229 337 c 4
 213 357 173 390 136 390 c 4
 122 390 67 363 67 224 c 4
 67 122 119 31 187 31 c 4
 243 31 270 83 279 83 c 4
 283 83 287 78 287 73 c 4
 287 64 249 -21 159 -21 c 4
 72 -21 15 58 15 192 c 4
290 388 m 4
 290 409 322 404 352 423 c 4
 367 432 371 438 383 438 c 4
 389 438 391 425 391 409 c 4
 391 397 388 375 388 367 c 4
 388 361 388 355 392 355 c 4
 397 355 415 427 486 427 c 4
 562 427 569 348 576 348 c 4
 581 348 615 430 672 430 c 4
 745 430 777 357 783 280 c 4
 787 231 787 188 787 153 c 6
 787 121 l 6
 787 68 789 38 807 30 c 4
 813 28 834 28 834 11 c 4
 834 -4 818 -4 810 -4 c 4
 801 -4 778 0 764 0 c 4
 744 0 729 -4 714 -4 c 4
 706 -4 697 -2 697 6 c 4
 697 26 723 23 729 42 c 4
 731 50 732 68 732 88 c 6
 732 104 l 6
 732 325 727 313 705 352 c 4
 693 372 674 383 653 383 c 4
 618 383 581 338 581 329 c 4
 581 316 585 304 585 202 c 6
 585 117 l 6
 585 62 590 31 633 22 c 4
 643 20 646 9 646 6 c 4
 646 -5 637 -5 633 -5 c 4
 621 -5 602 0 582 0 c 4
 569 0 524 -5 518 -5 c 4
 513 -5 502 -2 502 8 c 4
 502 17 505 20 519 28 c 4
 524 30 535 32 535 90 c 4
 535 104 535 91 535 199 c 4
 535 262 534 256 534 262 c 4
 534 331 509 379 463 379 c 4
 424 379 387 345 387 306 c 6
 387 292 l 5
 387 104 l 6
 387 0 446 35 446 12 c 4
 446 1 446 -3 431 -3 c 4
 421 -3 402 0 372 0 c 4
 344 0 327 -3 317 -3 c 4
 301 -3 300 5 300 12 c 4
 300 33 322 13 332 56 c 4
 336 77 338 137 338 208 c 4
 338 247 337 289 337 330 c 4
 337 400 290 356 290 388 c 4
806 429 m 4
 806 431 807 439 815 439 c 4
 821 439 829 412 866 412 c 4
 921 412 941 489 941 529 c 4
 941 571 928 614 880 614 c 4
 872 614 868 612 867 612 c 4
 862 612 862 618 862 621 c 4
 862 628 866 625 894 656 c 4
 910 674 920 701 920 724 c 4
 920 754 905 779 883 779 c 4
 856 779 837 745 829 745 c 4
 826 745 826 747 826 750 c 4
 826 773 869 824 898 824 c 4
 930 824 961 802 961 753 c 4
 961 710 942 689 920 664 c 4
 915 659 913 656 913 653 c 4
 913 649 933 651 953 632 c 4
 973 614 985 590 985 552 c 4
 985 454 933 383 874 383 c 4
 841 383 806 408 806 429 c 4
EndSplineSet
EndChar
StartChar: uF1F57
Encoding: 991063 991063 43
Width: 1000
VWidth: 0
Flags: MW
LayerCount: 2
Back
Fore
SplineSet
28 388 m 4
 28 409 71 404 112 423 c 4
 132 432 138 438 154 438 c 4
 163 438 165 425 165 409 c 4
 165 397 160 375 160 367 c 4
 160 361 160 355 166 355 c 4
 173 355 197 427 294 427 c 4
 397 427 406 348 416 348 c 4
 423 348 468 430 546 430 c 4
 645 430 689 357 697 280 c 4
 702 231 703 188 703 153 c 6
 703 121 l 6
 703 68 704 38 729 30 c 4
 737 28 766 28 766 11 c 4
 766 -4 744 -4 734 -4 c 4
 722 -4 690 0 671 0 c 4
 644 0 623 -4 603 -4 c 4
 593 -4 580 -2 580 6 c 4
 580 26 616 23 624 42 c 4
 627 50 628 68 628 88 c 6
 628 104 l 6
 628 325 622 313 592 352 c 4
 576 372 548 383 520 383 c 4
 472 383 423 338 423 329 c 4
 423 316 428 304 428 202 c 6
 428 117 l 6
 428 62 436 31 494 22 c 4
 508 20 511 9 511 6 c 4
 511 -5 499 -5 493 -5 c 4
 477 -5 452 0 424 0 c 4
 407 0 346 -5 337 -5 c 4
 330 -5 316 -2 316 8 c 4
 316 17 319 20 338 28 c 4
 345 30 360 32 360 90 c 4
 360 104 361 91 361 199 c 4
 361 262 359 256 359 262 c 4
 359 331 324 379 262 379 c 4
 209 379 159 345 159 306 c 6
 159 292 l 5
 159 104 l 6
 159 0 239 35 239 12 c 4
 239 1 239 -3 219 -3 c 4
 205 -3 180 0 139 0 c 4
 101 0 78 -3 64 -3 c 4
 42 -3 42 5 42 12 c 4
 42 33 72 13 85 56 c 4
 91 77 93 137 93 208 c 4
 93 247 92 289 92 330 c 4
 92 400 28 356 28 388 c 4
728 429 m 4
 728 431 730 439 740 439 c 4
 749 439 760 412 810 412 c 4
 884 412 912 489 912 529 c 4
 912 571 894 614 829 614 c 4
 818 614 813 612 811 612 c 4
 804 612 804 618 804 621 c 4
 804 628 810 625 848 656 c 4
 870 674 883 701 883 724 c 4
 883 754 862 779 833 779 c 4
 797 779 770 745 760 745 c 4
 756 745 755 747 755 750 c 4
 755 773 813 824 853 824 c 4
 896 824 938 802 938 753 c 4
 938 710 912 689 883 664 c 4
 876 659 873 656 873 653 c 4
 873 649 899 651 927 632 c 4
 954 614 972 590 972 552 c 4
 972 454 901 383 821 383 c 4
 776 383 728 408 728 429 c 4
EndSplineSet
EndChar
StartChar: uF1F58
Encoding: 991064 991064 44
Width: 1000
VWidth: 0
Flags: MW
LayerCount: 2
Back
Fore
SplineSet
146 195 m 4
 146 314 227 438 389 438 c 4
 434 438 489 409 503 409 c 4
 506 409 508 415 508 445 c 4
 508 574 510 538 510 574 c 4
 510 641 510 686 457 686 c 6
 446 686 l 6
 425 686 425 687 425 694 c 6
 425 695 l 6
 425 710 459 707 538 743 c 4
 550 748 565 758 577 758 c 4
 584 758 589 753 589 738 c 4
 589 717 576 605 576 521 c 4
 576 341 574 228 574 156 c 4
 574 65 580 44 609 35 c 4
 625 30 652 31 652 14 c 4
 652 9 648 2 575 -4 c 4
 546 -6 524 -14 512 -14 c 4
 505 -14 501 -11 501 -3 c 4
 501 6 498 16 498 34 c 4
 498 41 497 51 489 51 c 4
 478 51 438 -14 343 -14 c 4
 212 -14 146 88 146 195 c 4
218 242 m 4
 218 150 280 38 384 38 c 4
 442 38 503 71 503 117 c 4
 504 288 504 271 504 288 c 4
 504 343 490 357 476 365 c 4
 444 384 393 409 357 409 c 4
 268 409 218 335 218 242 c 4
668 86 m 4
 668 143 694 261 696 277 c 4
 705 340 710 411 720 475 c 4
 737 583 752 673 752 685 c 4
 752 697 742 705 727 705 c 4
 712 705 710 704 698 704 c 4
 678 704 669 707 669 718 c 4
 669 723 671 731 684 732 c 4
 757 737 779 747 805 747 c 4
 821 747 826 741 826 731 c 4
 826 717 819 704 816 685 c 4
 779 491 796 528 764 313 c 4
 747 195 735 132 735 98 c 4
 735 64 738 59 751 59 c 4
 806 59 816 130 842 130 c 4
 849 130 854 124 854 114 c 4
 854 104 828 70 804 42 c 4
 778 12 736 -8 717 -8 c 4
 697 -8 668 -8 668 86 c 4
EndSplineSet
EndChar
StartChar: uF1F59
Encoding: 991065 991065 45
Width: 1000
Flags: MW
LayerCount: 2
Back
Fore
SplineSet
407 86 m 0
 407 143 433 261 435 277 c 0
 444 340 449 411 459 475 c 0
 476 583 491 673 491 685 c 0
 491 697 481 705 466 705 c 0
 451 705 449 704 437 704 c 0
 417 704 408 707 408 718 c 0
 408 723 410 731 423 732 c 0
 496 737 518 747 544 747 c 0
 560 747 565 741 565 731 c 0
 565 717 558 704 555 685 c 0
 518 491 535 528 503 313 c 0
 486 195 474 132 474 98 c 0
 474 64 477 59 490 59 c 0
 545 59 555 130 581 130 c 0
 588 130 593 124 593 114 c 0
 593 104 567 70 543 42 c 0
 517 12 475 -8 456 -8 c 0
 436 -8 407 -8 407 86 c 0
EndSplineSet
EndChar
StartChar: uF1F5A
Encoding: 991066 991066 46
Width: 1000
VWidth: 0
Flags: MW
LayerCount: 2
Back
Fore
SplineSet
136 689 m 4
 136 697 148 703 186 715 c 4
 238 731 220 724 258 747 c 4
 266 752 281 760 292 760 c 4
 303 760 306 750 306 741 c 4
 306 731 296 677 296 488 c 4
 296 420 294 351 294 283 c 6
 294 262 l 6
 294 241 295 220 298 220 c 4
 312 220 317 232 330 243 c 4
 463 349 470 364 470 370 c 4
 470 394 424 391 424 409 c 4
 424 415 427 419 436 419 c 4
 441 419 446 418 454 418 c 4
 535 420 579 423 602 423 c 4
 624 423 628 420 628 414 c 4
 628 394 598 409 538 371 c 4
 528 365 528 364 490 336 c 4
 390 260 390 262 390 250 c 4
 390 243 396 235 402 227 c 4
 474 139 526 87 558 59 c 4
 622 3 664 36 664 12 c 4
 664 -5 650 -5 622 -5 c 4
 609 -5 528 -4 518 -4 c 4
 488 -4 366 154 334 193 c 4
 331 197 328 199 324 199 c 4
 312 199 292 179 292 153 c 4
 292 148 294 143 294 136 c 4
 298 42 295 65 312 41 c 4
 327 19 386 28 386 9 c 4
 386 -5 360 -7 356 -7 c 4
 346 -7 290 -1 258 -1 c 4
 229 -1 229 -5 186 -5 c 4
 173 -5 162 -4 162 7 c 4
 162 20 179 22 186 24 c 4
 218 36 222 54 222 116 c 4
 222 135 222 152 222 160 c 6
 224 604 l 6
 224 671 195 679 176 679 c 4
 169 679 164 678 156 678 c 4
 145 678 136 680 136 689 c 4
678 86 m 4
 678 143 704 261 706 277 c 4
 715 340 720 411 730 475 c 4
 747 583 762 673 762 685 c 4
 762 697 751 705 736 705 c 4
 721 705 720 704 708 704 c 4
 688 704 678 707 678 718 c 4
 678 723 681 731 694 732 c 4
 767 737 788 747 814 747 c 4
 830 747 836 741 836 731 c 4
 836 717 829 704 826 685 c 4
 789 491 806 528 774 313 c 4
 757 195 744 132 744 98 c 4
 744 64 747 59 760 59 c 4
 815 59 826 130 852 130 c 4
 859 130 864 124 864 114 c 4
 864 104 838 70 814 42 c 4
 788 12 745 -8 726 -8 c 4
 706 -8 678 -8 678 86 c 4
EndSplineSet
EndChar
StartChar: uF1F5B
Encoding: 991067 991067 47
Width: 1000
VWidth: 0
Flags: MW
LayerCount: 2
Back
Fore
SplineSet
32 388 m 4
 32 409 70 404 107 423 c 4
 125 432 130 438 144 438 c 4
 152 438 154 425 154 409 c 4
 154 397 150 375 150 367 c 4
 150 361 150 355 155 355 c 4
 161 355 183 427 270 427 c 4
 362 427 371 348 379 348 c 4
 385 348 425 430 495 430 c 4
 583 430 623 357 630 280 c 4
 634 231 636 188 636 153 c 6
 636 121 l 6
 636 68 637 38 659 30 c 4
 666 28 692 28 692 11 c 4
 692 -4 673 -4 664 -4 c 4
 653 -4 625 0 608 0 c 4
 584 0 564 -4 546 -4 c 4
 537 -4 526 -2 526 6 c 4
 526 26 558 23 565 42 c 4
 568 50 568 68 568 88 c 6
 568 104 l 6
 568 325 563 313 536 352 c 4
 522 372 498 383 472 383 c 4
 430 383 385 338 385 329 c 4
 385 316 390 304 390 202 c 6
 390 117 l 6
 390 62 397 31 449 22 c 4
 462 20 464 9 464 6 c 4
 464 -5 453 -5 448 -5 c 4
 434 -5 411 0 386 0 c 4
 371 0 316 -5 308 -5 c 4
 302 -5 290 -2 290 8 c 4
 290 17 292 20 309 28 c 4
 315 30 329 32 329 90 c 4
 329 104 330 91 330 199 c 4
 330 262 328 256 328 262 c 4
 328 331 296 379 241 379 c 4
 193 379 149 345 149 306 c 6
 149 292 l 5
 149 104 l 6
 149 0 221 35 221 12 c 4
 221 1 221 -3 203 -3 c 4
 190 -3 169 0 132 0 c 4
 98 0 77 -3 64 -3 c 4
 44 -3 44 5 44 12 c 4
 44 33 71 13 83 56 c 4
 88 77 90 137 90 208 c 4
 90 247 89 289 89 330 c 4
 89 400 32 356 32 388 c 4
713 43 m 6
 713 130 l 6
 713 145 720 156 726 156 c 4
 744 156 740 136 748 113 c 4
 756 88 783 21 836 21 c 4
 862 21 910 35 910 92 c 4
 910 213 720 170 720 314 c 4
 720 391 782 438 848 438 c 4
 936 438 945 408 945 401 c 4
 945 398 948 352 948 341 c 4
 948 319 945 312 933 312 c 4
 919 312 906 404 830 404 c 4
 798 404 773 383 773 353 c 4
 773 294 823 281 864 263 c 4
 945 227 968 197 968 119 c 4
 968 81 948 41 923 15 c 4
 911 3 890 -16 839 -16 c 4
 795 -16 757 6 744 11 c 4
 724 19 713 18 713 43 c 6
EndSplineSet
EndChar
StartChar: uF1F5C
Encoding: 991068 991068 48
Width: 1000
VWidth: 0
Flags: MW
LayerCount: 2
Back
Fore
SplineSet
60 -146 m 4
 60 -46 98 44 126 167 c 4
 178 391 174 421 192 421 c 4
 194 421 238 417 238 396 c 4
 238 372 188 117 188 80 c 4
 188 65 192 44 208 44 c 4
 282 44 388 241 436 354 c 4
 464 421 453 421 470 421 c 4
 486 421 514 411 514 400 c 4
 514 386 452 123 452 75 c 4
 452 59 463 50 476 50 c 4
 515 50 524 122 544 122 c 4
 555 122 556 113 556 105 c 4
 556 64 495 -21 418 -21 c 4
 384 -21 378 13 378 51 c 4
 378 95 398 187 398 198 c 4
 398 202 397 204 396 204 c 4
 387 204 367 143 290 59 c 4
 253 18 203 -18 162 -18 c 4
 128 -18 124 25 120 25 c 4
 116 25 100 -49 100 -85 c 4
 100 -118 126 -157 126 -168 c 4
 126 -173 119 -199 90 -199 c 4
 69 -199 60 -182 60 -146 c 4
640 43 m 6
 640 130 l 6
 640 145 649 156 656 156 c 4
 677 156 673 136 682 113 c 4
 692 88 724 21 786 21 c 4
 817 21 872 35 872 92 c 4
 872 213 648 170 648 314 c 4
 648 391 722 438 800 438 c 4
 904 438 914 408 914 401 c 4
 914 398 918 352 918 341 c 4
 918 319 914 312 900 312 c 4
 883 312 868 404 778 404 c 4
 740 404 712 383 712 353 c 4
 712 294 770 281 818 263 c 4
 913 227 940 197 940 119 c 4
 940 81 917 41 888 15 c 4
 874 3 848 -16 788 -16 c 4
 736 -16 691 6 676 11 c 4
 652 19 640 18 640 43 c 6
EndSplineSet
EndChar
StartChar: uF1F5D
Encoding: 991069 991069 49
Width: 1000
VWidth: 0
Flags: MW
LayerCount: 2
Back
Fore
SplineSet
68 390 m 4
 68 403 94 402 116 408 c 4
 160 420 196 442 206 442 c 6
 208 442 l 6
 215 442 216 437 216 430 c 4
 216 423 214 403 214 387 c 4
 214 369 216 361 220 361 c 4
 227 361 230 380 266 402 c 4
 290 417 322 430 354 430 c 4
 496 430 526 315 526 262 c 4
 526 245 526 262 526 119 c 6
 526 97 l 6
 526 51 531 33 588 24 c 4
 606 21 608 17 608 9 c 4
 608 1 598 -1 588 -1 c 4
 547 -1 528 4 506 4 c 4
 481 4 440 0 428 0 c 4
 415 0 408 5 408 13 c 4
 408 27 432 27 434 28 c 4
 454 34 456 68 456 95 c 6
 456 230 l 6
 456 341 389 386 326 386 c 4
 260 386 218 337 214 325 c 4
 209 311 206 200 206 167 c 6
 206 129 l 6
 206 71 210 32 262 28 c 4
 268 28 304 25 304 13 c 4
 304 2 293 0 284 0 c 4
 247 0 258 4 212 4 c 4
 169 4 109 0 100 0 c 4
 88 0 84 4 84 10 c 4
 84 41 134 -13 138 106 c 4
 140 162 140 152 140 181 c 6
 140 325 l 6
 140 372 119 379 96 379 c 6
 86 379 l 6
 72 379 68 383 68 390 c 4
632 43 m 6
 632 130 l 6
 632 145 641 156 648 156 c 4
 669 156 665 136 674 113 c 4
 684 88 716 21 778 21 c 4
 809 21 864 35 864 92 c 4
 864 213 640 170 640 314 c 4
 640 391 714 438 792 438 c 4
 896 438 906 408 906 401 c 4
 906 398 910 352 910 341 c 4
 910 319 906 312 892 312 c 4
 875 312 860 404 770 404 c 4
 732 404 704 383 704 353 c 4
 704 294 762 281 810 263 c 4
 905 227 932 197 932 119 c 4
 932 81 909 41 880 15 c 4
 866 3 840 -16 780 -16 c 4
 728 -16 683 6 668 11 c 4
 644 19 632 18 632 43 c 6
EndSplineSet
EndChar
StartChar: uF1F5E
Encoding: 991070 991070 50
Width: 1000
VWidth: 0
Flags: MW
LayerCount: 2
Back
Fore
SplineSet
86 385 m 4
 86 397 114 393 184 426 c 4
 217 442 220 445 226 445 c 4
 233 445 238 442 238 432 c 4
 238 396 234 385 234 373 c 4
 234 368 237 365 238 365 c 4
 245 365 290 434 388 434 c 4
 513 434 570 337 570 233 c 4
 570 119 495 -9 356 -9 c 4
 251 -9 241 29 226 29 c 4
 224 29 224 26 224 21 c 6
 224 -89 l 5
 224 -102 l 6
 224 -124 234 -139 240 -149 c 4
 267 -191 328 -156 328 -188 c 4
 328 -191 325 -200 294 -200 c 4
 268 -200 269 -196 190 -196 c 4
 158 -196 139 -199 126 -199 c 4
 95 -199 92 -196 92 -189 c 4
 92 -158 154 -202 154 -82 c 6
 154 -62 l 6
 154 135 158 172 158 214 c 6
 158 236 l 6
 158 336 155 374 110 374 c 4
 85 374 86 378 86 385 c 4
224 192 m 4
 224 172 224 162 224 142 c 4
 224 44 317 21 372 21 c 4
 463 21 506 100 506 185 c 4
 506 282 450 384 348 384 c 4
 307 384 279 369 258 352 c 4
 233 332 224 319 224 192 c 4
614 43 m 6
 614 130 l 6
 614 145 623 156 630 156 c 4
 651 156 647 136 656 113 c 4
 666 88 698 21 760 21 c 4
 791 21 846 35 846 92 c 4
 846 213 622 170 622 314 c 4
 622 391 696 438 774 438 c 4
 878 438 888 408 888 401 c 4
 888 398 892 352 892 341 c 4
 892 319 888 312 874 312 c 4
 857 312 842 404 752 404 c 4
 714 404 686 383 686 353 c 4
 686 294 744 281 792 263 c 4
 887 227 914 197 914 119 c 4
 914 81 891 41 862 15 c 4
 848 3 822 -16 762 -16 c 4
 710 -16 665 6 650 11 c 4
 626 19 614 18 614 43 c 6
EndSplineSet
EndChar
StartChar: uF1F5F
Encoding: 991071 991071 51
Width: 1000
VWidth: 0
Flags: MW
LayerCount: 2
Back
Fore
SplineSet
29 695 m 4
 29 702 32 708 50 708 c 4
 71 708 93 706 135 706 c 4
 167 706 148 708 200 708 c 4
 205 708 212 707 212 695 c 4
 212 685 198 683 186 674 c 4
 166 659 163 591 163 552 c 4
 163 462 161 417 161 396 c 4
 161 378 162 375 167 375 c 4
 175 375 390 607 390 655 c 4
 390 677 366 679 353 683 c 4
 346 685 344 694 344 697 c 4
 344 708 351 708 356 708 c 4
 360 708 367 707 375 707 c 4
 382 707 400 705 420 705 c 4
 423 705 513 708 513 708 c 6
 523 708 528 705 528 695 c 4
 528 679 511 681 485 666 c 4
 474 660 464 650 448 636 c 4
 434 625 453 642 233 396 c 4
 227 390 224 382 224 382 c 6
 224 376 229 371 233 366 c 4
 447 84 472 42 518 32 c 4
 534 29 543 28 543 14 c 4
 543 2 542 1 500 1 c 6
 427 1 l 6
 407 1 418 4 354 91 c 4
 182 323 185 324 173 324 c 4
 164 324 162 309 162 297 c 4
 162 295 163 276 163 220 c 4
 163 159 163 89 174 62 c 4
 188 31 216 30 224 30 c 4
 226 30 228 29 230 29 c 4
 238 29 246 23 246 18 c 4
 246 2 240 0 227 0 c 4
 187 0 181 4 156 4 c 4
 117 4 101 -1 74 -1 c 4
 49 -1 47 4 47 10 c 6
 47 14 l 6
 47 30 74 22 88 42 c 4
 104 63 104 148 104 268 c 6
 104 402 l 6
 104 431 102 469 102 510 c 6
 102 556 l 6
 102 582 102 607 100 629 c 4
 97 664 66 679 45 680 c 4
 30 681 29 690 29 695 c 4
535 694 m 4
 535 700 538 709 542 709 c 4
 550 709 550 708 572 708 c 4
 599 708 667 709 681 709 c 4
 713 709 738 712 764 712 c 4
 850 712 923 656 923 545 c 4
 923 440 848 402 848 396 c 4
 848 384 971 379 971 208 c 4
 971 151 942 75 908 44 c 4
 862 1 828 -8 777 -8 c 4
 725 -8 662 3 643 3 c 4
 625 3 604 -1 578 -1 c 6
 568 -1 l 6
 560 -1 552 1 552 14 c 4
 552 18 552 28 560 28 c 4
 568 28 573 29 578 29 c 4
 588 29 609 46 611 122 c 4
 613 187 614 322 614 434 c 6
 614 604 l 6
 614 613 610 682 548 682 c 4
 544 682 535 682 535 694 c 4
671 92 m 4
 671 35 718 32 744 32 c 6
 761 32 l 6
 783 32 806 33 826 37 c 4
 872 47 907 108 907 184 c 4
 907 356 785 364 760 364 c 4
 690 364 697 366 690 366 c 4
 674 366 671 364 671 204 c 6
 671 196 l 6
 671 113 671 102 671 92 c 4
675 545 m 6
 675 413 677 402 685 401 c 4
 699 399 702 398 723 398 c 6
 771 398 l 6
 838 398 866 452 866 516 c 4
 866 576 822 677 714 677 c 4
 685 677 675 665 675 574 c 6
 675 545 l 6
EndSplineSet
EndChar
StartChar: uF1F60
Encoding: 991072 991072 52
Width: 1000
VWidth: 0
Flags: MW
LayerCount: 2
Back
Fore
SplineSet
29 695 m 4
 29 702 30 710 40 710 c 4
 47 710 69 706 75 706 c 4
 93 706 112 708 124 708 c 4
 132 708 137 702 139 694 c 4
 200 490 304 137 313 137 c 4
 320 137 328 169 335 192 c 6
 419 458 l 6
 488 679 482 671 486 683 c 4
 491 696 487 710 510 710 c 4
 538 710 525 708 566 708 c 4
 571 708 577 708 577 695 c 4
 577 683 574 677 556 673 c 4
 536 669 527 651 527 564 c 4
 527 329 534 274 534 182 c 4
 534 44 546 27 588 27 c 4
 594 27 600 18 600 13 c 4
 600 -3 597 -3 586 -3 c 4
 551 -3 541 1 520 1 c 4
 486 1 475 -4 452 -4 c 4
 442 -4 440 4 440 10 c 4
 440 39 472 7 482 75 c 4
 483 85 485 109 485 139 c 4
 485 252 476 466 476 469 c 4
 476 497 473 512 470 512 c 4
 464 512 457 485 445 449 c 6
 354 168 l 6
 305 13 308 12 300 12 c 4
 287 12 284 47 265 106 c 4
 143 488 144 489 139 489 c 4
 136 489 134 479 134 449 c 4
 133 303 128 261 128 185 c 6
 128 140 l 6
 128 87 129 34 178 26 c 4
 182 26 187 20 187 15 c 4
 187 -1 185 -3 178 -3 c 4
 156 -3 119 1 110 1 c 4
 102 1 86 -2 57 -2 c 4
 49 -2 43 -1 43 14 c 4
 43 41 78 1 92 90 c 4
 97 120 105 397 105 489 c 4
 105 618 95 659 37 680 c 4
 29 683 29 690 29 695 c 4
594 694 m 4
 594 700 595 709 599 709 c 4
 605 709 605 708 625 708 c 4
 648 708 708 709 720 709 c 4
 748 709 769 712 792 712 c 4
 866 712 930 656 930 545 c 4
 930 440 865 402 865 396 c 4
 865 384 971 379 971 208 c 4
 971 151 946 75 917 44 c 4
 877 1 848 -8 804 -8 c 4
 759 -8 703 3 687 3 c 4
 671 3 653 -1 631 -1 c 6
 622 -1 l 6
 616 -1 609 1 609 14 c 4
 609 18 610 28 616 28 c 4
 623 28 626 29 631 29 c 4
 640 29 658 46 660 122 c 4
 662 187 662 322 662 434 c 6
 662 604 l 6
 662 613 659 682 605 682 c 4
 601 682 594 682 594 694 c 4
711 92 m 4
 711 35 752 32 775 32 c 6
 790 32 l 6
 810 32 829 33 846 37 c 4
 886 47 916 108 916 184 c 4
 916 356 810 364 789 364 c 4
 729 364 734 366 728 366 c 4
 714 366 712 364 712 204 c 6
 712 196 l 6
 712 113 711 102 711 92 c 4
715 545 m 6
 715 413 718 402 724 401 c 4
 736 399 739 398 757 398 c 6
 798 398 l 6
 856 398 880 452 880 516 c 4
 880 576 843 677 749 677 c 4
 724 677 715 665 715 574 c 6
 715 545 l 6
EndSplineSet
EndChar
StartChar: uF1F61
Encoding: 991073 991073 53
Width: 1000
VWidth: 0
Flags: MW
LayerCount: 2
Back
Fore
SplineSet
36 329 m 4
 36 542 131 719 310 719 c 4
 429 719 478 648 484 648 c 4
 489 648 498 663 504 663 c 4
 511 663 514 654 514 643 c 4
 515 577 524 516 524 504 c 4
 524 488 519 487 516 487 c 4
 512 487 506 492 504 499 c 4
 472 600 385 680 304 680 c 4
 192 680 102 575 102 384 c 4
 102 203 178 24 310 24 c 4
 383 24 450 79 456 139 c 4
 457 147 458 224 458 265 c 4
 458 294 453 311 446 321 c 4
 438 333 426 335 416 337 c 4
 402 339 390 339 390 359 c 4
 390 365 392 370 402 370 c 4
 420 370 462 365 480 365 c 4
 512 365 545 366 547 366 c 4
 550 366 558 365 558 357 c 4
 558 341 524 341 520 311 c 4
 516 280 515 242 515 199 c 4
 515 110 519 98 519 87 c 4
 519 75 498 79 474 60 c 4
 466 53 394 -17 316 -17 c 4
 105 -17 36 158 36 329 c 4
557 694 m 4
 557 700 559 709 563 709 c 4
 570 709 570 708 591 708 c 4
 616 708 681 709 694 709 c 4
 724 709 747 712 771 712 c 4
 851 712 920 656 920 545 c 4
 920 440 850 402 850 396 c 4
 850 384 964 379 964 208 c 4
 964 151 937 75 905 44 c 4
 862 1 831 -8 783 -8 c 4
 735 -8 676 3 658 3 c 4
 641 3 622 -1 598 -1 c 6
 588 -1 l 6
 581 -1 573 1 573 14 c 4
 573 18 574 28 581 28 c 4
 589 28 592 29 597 29 c 4
 607 29 626 46 628 122 c 4
 630 187 631 322 631 434 c 6
 631 604 l 6
 631 613 627 682 569 682 c 4
 565 682 557 682 557 694 c 4
684 92 m 4
 684 35 728 32 752 32 c 6
 768 32 l 6
 789 32 811 33 829 37 c 4
 872 47 904 108 904 184 c 4
 904 356 790 364 767 364 c 4
 702 364 708 366 702 366 c 4
 687 366 684 364 684 204 c 6
 684 196 l 6
 684 113 684 102 684 92 c 4
688 545 m 6
 688 413 690 402 697 401 c 4
 710 399 713 398 733 398 c 6
 778 398 l 6
 840 398 866 452 866 516 c 4
 866 576 825 677 724 677 c 4
 697 677 688 665 688 574 c 6
 688 545 l 6
EndSplineSet
EndChar
StartChar: uF1F62
Encoding: 991074 991074 54
Width: 1000
Flags: MW
LayerCount: 2
Back
Fore
SplineSet
704 693 m 1024,0,-1
551 315 m 0,1,-1
 551 333 544 342 488 342 c 0,4,-1
 462 342 371 339 365 339 c 0,7,-1
 282 339 295 342 231 342 c 0,10,-1
 213 342 206 340 206 305 c 0,13,-1
 206 257 202 221 202 182 c 2,16,-1
 202 139 l 2,17,-1
 202 88 205 62 249 34 c 0,20,-1
 254 31 271 29 292 29 c 0,23,-1
 302 29 311 23 311 18 c 0,26,-1
 311 2 296 0 279 0 c 0,29,-1
 225 0 229 4 196 4 c 0,32,-1
 144 4 124 -1 88 -1 c 0,35,-1
 47 -1 41 6 41 14 c 0,38,-1
 41 41 100 13 115 78 c 0,41,-1
 118 94 128 227 128 345 c 2,44,-1
 128 402 l 2,45,-1
 128 431 129 469 129 510 c 0,48,-1
 129 551 128 593 123 629 c 0,51,-1
 118 665 77 682 48 682 c 0,54,-1
 32 682 27 696 27 699 c 0,57,-1
 27 710 42 710 55 710 c 0,60,-1
 83 710 112 706 168 706 c 0,63,-1
 211 706 193 708 256 708 c 0,66,-1
 263 708 278 707 278 694 c 0,69,-1
 278 685 275 677 243 677 c 0,72,-1
 212 677 205 591 205 552 c 2,75,-1
 205 515 l 2,76,-1
 205 472 203 443 203 423 c 0,79,-1
 203 389 208 384 237 384 c 0,82,-1
 270 384 204 385 351 385 c 0,85,-1
 373 385 410 384 540 383 c 0,88,-1
 550 383 551 389 551 522 c 2,91,-1
 551 522 551 575 551 601 c 0,94,-1
 551 625 537 681 478 681 c 0,97,-1
 467 681 458 684 458 694 c 0,100,-1
 458 702 465 710 481 710 c 0,103,-1
 491 710 488 711 518 711 c 0,106,-1
 529 711 560 708 578 708 c 0,109,-1
 621 708 708 711 743 711 c 0,112,-1
 857 711 973 653 973 527 c 0,115,-1
 973 354 808 319 755 319 c 0,118,-1
 713 319 657 331 657 342 c 0,121,-1
 657 353 663 357 670 357 c 0,124,-1
 684 357 695 349 721 349 c 0,127,-1
 775 349 888 377 888 489 c 0,130,-1
 888 567 822 671 685 671 c 0,133,-1
 646 671 632 659 632 569 c 0,136,-1
 632 174 630 468 630 156 c 0,139,-1
 630 87 648 56 671 41 c 0,142,-1
 706 19 754 45 754 10 c 0,145,-1
 754 -4 742 -7 731 -7 c 0,148,-1
 691 -7 603 -2 588 -2 c 0,151,-1
 563 -2 539 -6 495 -6 c 0,154,-1
 484 -6 464 -6 464 5 c 0,157,-1
 464 28 479 28 502 34 c 0,160,-1
 516 38 521 31 537 78 c 0,163,-1
 547 107 551 270 551 315 c 0,1,-1
EndSplineSet
EndChar
StartChar: uF1F63
Encoding: 991075 991075 55
Width: 1000
VWidth: 0
Flags: MW
LayerCount: 2
Back
Fore
SplineSet
18 699 m 4
 18 710 32 710 44 710 c 4
 69 710 95 706 145 706 c 4
 184 706 168 708 225 708 c 4
 231 708 244 707 244 694 c 4
 244 685 242 677 213 677 c 4
 185 677 179 591 179 552 c 6
 179 515 l 6
 179 472 177 443 177 423 c 4
 177 389 182 384 208 384 c 4
 238 384 223 385 355 385 c 4
 375 385 408 384 525 383 c 4
 534 383 535 389 535 522 c 6
 535 576 l 6
 535 716 460 657 460 696 c 4
 460 704 473 706 495 706 c 4
 517 706 547 704 582 704 c 4
 604 704 620 706 652 706 c 4
 660 706 673 703 673 693 c 4
 673 680 664 680 660 680 c 4
 625 680 609 653 609 618 c 4
 608 522 606 451 606 375 c 4
 606 327 604 279 604 225 c 6
 604 188 l 6
 604 134 608 124 608 96 c 4
 608 37 660 25 684 22 c 4
 687 22 694 21 694 11 c 4
 694 1 682 0 650 0 c 4
 629 0 607 5 581 5 c 4
 547 5 538 0 496 0 c 4
 473 0 464 0 464 13 c 4
 464 32 520 27 526 65 c 4
 530 91 532 116 532 138 c 4
 532 158 533 176 533 192 c 4
 533 229 535 270 535 315 c 4
 535 333 528 342 478 342 c 4
 455 342 373 339 368 339 c 4
 293 339 260 342 202 342 c 4
 186 342 180 340 180 305 c 4
 180 257 176 221 176 182 c 6
 176 139 l 6
 176 88 178 62 218 34 c 4
 222 31 238 29 257 29 c 4
 266 29 274 23 274 18 c 4
 274 2 260 0 245 0 c 4
 196 0 201 4 171 4 c 4
 124 4 105 -1 73 -1 c 4
 36 -1 31 6 31 14 c 4
 31 41 84 13 98 78 c 4
 101 94 109 227 109 345 c 6
 109 402 l 6
 109 431 110 469 110 510 c 4
 110 551 109 593 105 629 c 4
 101 665 63 682 37 682 c 4
 23 682 18 696 18 699 c 4
703 15 m 4
 703 33 708 35 734 77 c 4
 783 155 899 341 899 356 c 4
 899 358 890 361 878 361 c 4
 859 361 792 355 768 354 c 4
 731 352 725 297 712 297 c 4
 710 297 705 299 705 308 c 4
 705 349 714 388 717 408 c 4
 718 418 726 426 735 426 c 4
 745 426 773 423 831 423 c 4
 884 423 924 426 964 426 c 4
 969 426 974 422 974 416 c 4
 974 400 954 381 948 370 c 4
 853 204 774 101 774 73 c 4
 774 66 796 64 818 64 c 4
 835 64 852 65 862 65 c 4
 945 65 940 100 952 126 c 4
 956 134 959 140 967 140 c 4
 972 140 982 136 982 126 c 4
 982 125 969 88 960 65 c 4
 950 40 949 2 932 2 c 6
 829 2 l 6
 815 2 789 1 764 1 c 6
 748 1 l 6
 722 1 725 0 720 0 c 4
 711 0 703 4 703 15 c 4
EndSplineSet
EndChar
StartChar: uF1F64
Encoding: 991076 991076 56
Width: 1000
VWidth: 0
Flags: MW
LayerCount: 2
Back
Fore
SplineSet
24 388 m 4
 24 409 59 404 92 423 c 4
 108 432 114 438 127 438 c 4
 134 438 136 425 136 409 c 4
 136 397 132 375 132 367 c 4
 132 361 132 355 137 355 c 4
 142 355 163 427 242 427 c 4
 326 427 333 348 341 348 c 4
 346 348 384 430 448 430 c 4
 529 430 565 357 571 280 c 4
 575 231 576 188 576 153 c 6
 576 121 l 6
 576 68 578 38 598 30 c 4
 604 28 627 28 627 11 c 4
 627 -4 611 -4 602 -4 c 4
 592 -4 566 0 550 0 c 4
 528 0 510 -4 494 -4 c 4
 485 -4 476 -2 476 6 c 4
 476 26 505 23 511 42 c 4
 513 50 514 68 514 88 c 6
 514 104 l 6
 514 325 510 313 485 352 c 4
 472 372 450 383 427 383 c 4
 388 383 347 338 347 329 c 4
 347 316 351 304 351 202 c 6
 351 117 l 6
 351 62 358 31 405 22 c 4
 417 20 419 9 419 6 c 4
 419 -5 409 -5 404 -5 c 4
 391 -5 370 0 347 0 c 4
 333 0 284 -5 277 -5 c 4
 272 -5 260 -2 260 8 c 4
 260 17 261 20 277 28 c 4
 282 30 295 32 295 90 c 4
 295 104 296 91 296 199 c 4
 296 262 295 256 295 262 c 4
 295 331 266 379 215 379 c 4
 171 379 131 345 131 306 c 6
 131 292 l 5
 131 104 l 6
 131 0 197 35 197 12 c 4
 197 1 196 -3 180 -3 c 4
 168 -3 148 0 115 0 c 4
 84 0 66 -3 54 -3 c 4
 36 -3 35 5 35 12 c 4
 35 33 60 13 71 56 c 4
 76 77 77 137 77 208 c 4
 77 247 76 289 76 330 c 4
 76 400 24 356 24 388 c 4
613 691 m 4
 613 712 649 721 664 729 c 4
 680 738 705 756 713 756 c 4
 718 756 725 749 725 738 c 4
 725 702 724 743 724 411 c 4
 724 385 726 375 730 375 c 4
 742 375 743 442 853 442 c 4
 951 442 999 336 999 235 c 4
 999 182 976 80 928 33 c 4
 899 5 864 -11 820 -11 c 4
 748 -11 711 47 706 47 c 4
 697 47 687 -17 668 -17 c 4
 660 -17 658 -13 658 -4 c 4
 658 20 661 72 661 78 c 4
 661 154 668 229 668 342 c 6
 668 589 l 6
 668 632 662 680 633 680 c 6
 626 680 l 6
 620 680 613 682 613 691 c 4
724 132 m 6
 724 109 759 25 838 25 c 4
 913 25 948 102 948 185 c 4
 948 282 900 388 811 388 c 4
 788 388 765 378 749 360 c 4
 726 336 724 325 724 313 c 6
 724 132 l 6
EndSplineSet
EndChar
StartChar: uF1F65
Encoding: 991077 991077 57
Width: 1000
VWidth: 0
Flags: MW
LayerCount: 2
Back
Fore
SplineSet
30 388 m 4
 30 409 74 404 115 423 c 4
 135 432 141 438 157 438 c 4
 166 438 169 425 169 409 c 4
 169 397 164 375 164 367 c 4
 164 361 164 355 170 355 c 4
 177 355 202 427 300 427 c 4
 404 427 413 348 423 348 c 4
 430 348 476 430 555 430 c 4
 655 430 700 357 708 280 c 4
 713 231 714 188 714 153 c 6
 714 121 l 6
 714 68 716 38 741 30 c 4
 749 28 777 28 777 11 c 4
 777 -4 757 -4 746 -4 c 4
 733 -4 701 0 682 0 c 4
 655 0 633 -4 613 -4 c 4
 602 -4 590 -2 590 6 c 4
 590 26 626 23 634 42 c 4
 637 50 638 68 638 88 c 6
 638 104 l 6
 638 325 632 313 601 352 c 4
 585 372 558 383 529 383 c 4
 481 383 430 338 430 329 c 4
 430 316 435 304 435 202 c 6
 435 117 l 6
 435 62 443 31 502 22 c 4
 516 20 519 9 519 6 c 4
 519 -5 507 -5 501 -5 c 4
 485 -5 459 0 431 0 c 4
 414 0 352 -5 343 -5 c 4
 336 -5 322 -2 322 8 c 4
 322 17 325 20 344 28 c 4
 351 30 366 32 366 90 c 4
 366 104 367 91 367 199 c 4
 367 262 365 256 365 262 c 4
 365 331 330 379 267 379 c 4
 213 379 163 345 163 306 c 6
 163 292 l 5
 163 104 l 6
 163 0 244 35 244 12 c 4
 244 1 244 -3 224 -3 c 4
 210 -3 184 0 143 0 c 4
 104 0 80 -3 66 -3 c 4
 44 -3 43 5 43 12 c 4
 43 33 75 13 88 56 c 4
 94 77 95 137 95 208 c 4
 95 247 94 289 94 330 c 4
 94 400 30 356 30 388 c 4
793 86 m 4
 793 143 818 261 820 277 c 4
 829 340 833 411 843 475 c 4
 859 583 874 673 874 685 c 4
 874 697 864 705 850 705 c 4
 836 705 834 704 822 704 c 4
 803 704 794 707 794 718 c 4
 794 723 795 731 808 732 c 4
 878 737 900 747 925 747 c 4
 940 747 945 741 945 731 c 4
 945 717 938 704 935 685 c 4
 899 491 916 528 885 313 c 4
 869 195 857 132 857 98 c 4
 857 64 860 59 873 59 c 4
 926 59 936 130 961 130 c 4
 968 130 972 124 972 114 c 4
 972 104 947 70 924 42 c 4
 899 12 858 -8 840 -8 c 4
 821 -8 793 -8 793 86 c 4
EndSplineSet
EndChar
StartChar: uF1F75
Encoding: 991093 991093 58
Width: 1000
VWidth: 0
Flags: MW
LayerCount: 2
Back
Fore
SplineSet
12 695 m 4
 12 702 15 708 30 708 c 4
 48 708 66 706 101 706 c 4
 128 706 111 708 154 708 c 4
 158 708 165 707 165 695 c 4
 165 685 153 683 143 674 c 4
 127 659 124 591 124 552 c 4
 124 462 122 417 122 396 c 4
 122 378 124 375 128 375 c 4
 135 375 313 607 313 655 c 4
 313 677 293 679 282 683 c 4
 276 685 275 694 275 697 c 4
 275 708 281 708 285 708 c 4
 289 708 294 707 301 707 c 4
 307 707 322 705 338 705 c 4
 340 705 416 708 416 708 c 6
 425 708 428 705 428 695 c 4
 428 679 414 681 392 666 c 4
 383 660 375 650 361 636 c 4
 350 625 365 642 182 396 c 4
 177 390 175 382 175 382 c 6
 175 376 179 371 182 366 c 4
 361 84 380 42 419 32 c 4
 432 29 441 28 441 14 c 4
 441 2 439 1 404 1 c 6
 344 1 l 6
 328 1 336 4 283 91 c 4
 140 323 142 324 132 324 c 4
 124 324 123 309 123 297 c 4
 123 295 124 276 124 220 c 4
 124 159 124 89 133 62 c 4
 144 31 169 30 175 30 c 4
 177 30 178 29 180 29 c 4
 186 29 193 23 193 18 c 4
 193 2 189 0 178 0 c 4
 144 0 139 4 118 4 c 4
 86 4 71 -1 49 -1 c 4
 28 -1 27 4 27 10 c 6
 27 14 l 6
 27 30 49 22 61 42 c 4
 74 63 74 148 74 268 c 6
 74 402 l 6
 74 431 73 469 73 510 c 6
 73 556 l 6
 73 582 73 607 71 629 c 4
 69 664 44 679 26 680 c 4
 14 681 12 690 12 695 c 4
434 695 m 4
 434 702 436 708 451 708 c 4
 469 708 487 706 522 706 c 4
 549 706 533 708 576 708 c 4
 580 708 586 707 586 695 c 4
 586 685 574 683 564 674 c 4
 548 659 545 591 545 552 c 4
 545 462 543 417 543 396 c 4
 543 378 545 375 549 375 c 4
 556 375 734 607 734 655 c 4
 734 677 714 679 703 683 c 4
 697 685 696 694 696 697 c 4
 696 708 702 708 706 708 c 4
 710 708 715 707 722 707 c 4
 728 707 743 705 759 705 c 4
 761 705 837 708 837 708 c 6
 846 708 849 705 849 695 c 4
 849 679 835 681 813 666 c 4
 804 660 796 650 782 636 c 4
 771 625 786 642 603 396 c 4
 598 390 596 382 596 382 c 6
 596 376 600 371 603 366 c 4
 782 84 802 42 841 32 c 4
 854 29 862 28 862 14 c 4
 862 2 861 1 826 1 c 6
 765 1 l 6
 749 1 757 4 704 91 c 4
 561 323 563 324 553 324 c 4
 545 324 544 309 544 297 c 4
 544 295 545 276 545 220 c 4
 545 159 545 89 554 62 c 4
 565 31 590 30 596 30 c 4
 598 30 599 29 601 29 c 4
 607 29 614 23 614 18 c 4
 614 2 610 0 599 0 c 4
 565 0 560 4 539 4 c 4
 507 4 493 -1 471 -1 c 4
 450 -1 448 4 448 10 c 6
 448 14 l 6
 448 30 470 22 482 42 c 4
 495 63 496 148 496 268 c 6
 496 402 l 6
 496 431 494 469 494 510 c 6
 494 556 l 6
 494 582 494 607 492 629 c 4
 490 664 465 679 447 680 c 4
 435 681 434 690 434 695 c 4
876 55 m 4
 876 64 886 80 896 94 c 4
 904 106 910 129 922 129 c 4
 927 129 938 109 948 90 c 4
 954 80 966 65 966 55 c 4
 966 43 953 33 944 19 c 4
 936 7 930 -16 921 -16 c 4
 911 -16 904 11 896 21 c 4
 885 33 876 45 876 55 c 4
EndSplineSet
EndChar
StartChar: uF1F77
Encoding: 991095 991095 59
Width: 1000
VWidth: 0
Flags: MW
LayerCount: 2
Back
Fore
SplineSet
14 580 m 0
 14 609 19 658 22 683 c 0
 24 705 22 718 44 718 c 0
 95 718 88 710 248 710 c 0
 355 710 433 712 471 715 c 0
 472 715 475 716 476 716 c 0
 488 716 490 702 490 699 c 0
 490 687 494 626 494 618 c 0
 494 583 492 580 483 580 c 0
 482 580 477 581 475 592 c 0
 466 639 463 658 402 658 c 2
 308 658 l 2
 285 658 282 654 282 594 c 2
 282 545 l 2
 282 312 280 270 280 179 c 0
 280 153 279 132 279 114 c 0
 279 87 280 69 289 57 c 0
 316 20 350 39 350 13 c 0
 350 -3 345 -4 333 -4 c 0
 314 -4 277 4 253 4 c 0
 234 4 202 -3 179 -3 c 0
 164 -3 152 1 152 13 c 0
 152 34 172 30 190 36 c 0
 203 40 215 49 217 76 c 0
 223 146 224 412 224 454 c 0
 224 560 224 633 224 633 c 2
 224 658 222 661 169 661 c 0
 62 661 60 650 52 636 c 0
 32 600 40 563 22 563 c 0
 18 563 14 566 14 580 c 0
378 449 m 0
 378 461 389 462 393 462 c 0
 397 462 402 461 407 461 c 0
 419 461 488 459 539 459 c 0
 559 459 614 463 629 463 c 0
 636 463 648 463 648 447 c 2
 648 421 l 2
 648 415 649 386 649 363 c 0
 649 354 642 349 637 349 c 0
 623 349 630 371 624 387 c 0
 613 417 567 418 535 418 c 0
 490 418 490 418 490 363 c 0
 490 309 489 299 489 298 c 0
 489 264 498 263 514 263 c 0
 575 263 583 270 596 308 c 0
 596 309 598 325 607 325 c 0
 613 325 614 321 614 313 c 0
 614 301 613 265 613 241 c 0
 613 218 616 189 616 176 c 0
 616 164 611 158 607 158 c 0
 595 158 597 201 575 219 c 0
 566 226 555 227 539 227 c 2
 517 227 l 2
 498 227 492 220 492 209 c 0
 492 165 491 165 491 100 c 0
 491 67 493 38 531 38 c 0
 646 38 657 99 669 99 c 0
 672 99 676 97 676 91 c 0
 676 61 649 -9 608 -9 c 0
 576 -9 544 3 480 3 c 0
 445 3 423 -3 409 -3 c 0
 404 -3 396 1 396 12 c 0
 396 42 438 12 438 84 c 0
 438 362 440 280 440 363 c 0
 440 405 431 428 386 430 c 0
 378 430 378 440 378 449 c 0
675 446 m 0
 675 457 683 458 695 458 c 0
 711 458 735 455 755 455 c 0
 792 455 792 458 810 458 c 0
 819 458 834 457 834 443 c 0
 834 427 810 428 803 417 c 0
 797 407 793 390 793 360 c 0
 793 156 794 355 794 98 c 2
 794 79 l 2
 794 50 797 36 827 36 c 0
 943 36 949 103 963 103 c 0
 966 103 971 99 971 84 c 0
 971 54 952 -7 893 -7 c 0
 861 -7 823 3 772 3 c 0
 737 3 723 -2 709 -2 c 0
 704 -2 694 1 694 12 c 0
 694 42 740 6 740 82 c 0
 740 98 740 119 740 153 c 0
 740 233 741 318 741 360 c 0
 741 456 675 404 675 446 c 0
EndSplineSet
EndChar
StartChar: uF1F7D
Encoding: 991101 991101 69
Width: 1000
Flags: MW
LayerCount: 2
Back
Fore
SplineSet
96 323 m 0
 96 566 248 712 422 712 c 0
 611 712 704 554 704 362 c 0
 704 161 601 -14 394 -14 c 0
 162 -14 96 151 96 323 c 0
156 390 m 0
 156 219 261 27 432 27 c 0
 578 27 648 165 648 311 c 0
 648 476 556 652 378 652 c 0
 222 652 156 528 156 390 c 0
742 55 m 0
 742 64 757 80 773 94 c 0
 786 106 796 129 815 129 c 0
 823 129 840 109 856 90 c 0
 865 80 886 65 886 55 c 0
 886 43 866 33 851 19 c 0
 839 7 827 -16 813 -16 c 0
 797 -16 786 11 773 21 c 0
 756 33 742 45 742 55 c 0
EndSplineSet
EndChar
StartChar: uF1F7E
Encoding: 991102 991102 70
Width: 1000
Flags: MW
LayerCount: 2
Back
Fore
SplineSet
194 611 m 0
 194 622 210 631 232 638 c 0
 270 650 281 644 350 672 c 0
 395 691 417 720 436 720 c 0
 455 720 456 705 456 697 c 0
 456 689 442 657 442 646 c 0
 440 604 436 517 436 314 c 0
 436 213 434 154 434 118 c 0
 434 -16 606 59 606 15 c 0
 606 2 585 1 562 1 c 2
 400 1 l 2
 343 1 279 -2 242 -2 c 0
 217 -2 204 2 204 14 c 0
 204 29 228 33 252 33 c 2
 268 33 l 2
 344 33 346 68 346 73 c 0
 358 135 362 245 362 346 c 2
 362 549 l 2
 362 586 355 611 310 611 c 0
 270 611 228 596 210 596 c 0
 207 596 194 600 194 611 c 0
742 55 m 4
 742 64 757 80 773 94 c 4
 786 106 796 129 815 129 c 4
 823 129 840 109 856 90 c 4
 865 80 886 65 886 55 c 4
 886 43 866 33 851 19 c 4
 839 7 827 -16 813 -16 c 4
 797 -16 786 11 773 21 c 4
 756 33 742 45 742 55 c 4
EndSplineSet
EndChar
StartChar: uF1F7F
Encoding: 991103 991103 71
Width: 1000
Flags: MW
LayerCount: 2
Back
Fore
SplineSet
110 12 m 2
 110 15 l 2
 110 46 267 112 444 368 c 0
 483 426 510 495 510 554 c 0
 510 609 450 650 354 650 c 0
 207 650 166 586 136 586 c 0
 128 586 124 593 124 600 c 0
 124 610 201 719 380 719 c 0
 482 719 594 674 594 578 c 0
 594 398 270 110 270 90 c 0
 270 80 332 78 372 78 c 0
 588 78 552 80 586 92 c 0
 626 106 657 147 676 147 c 0
 686 147 690 142 690 137 c 0
 690 129 606 16 606 16 c 2
 594 2 581 -1 570 -1 c 0
 408 -1 401 1 334 1 c 0
 298 1 201 -1 160 -1 c 0
 112 -1 110 4 110 12 c 2
742 55 m 4
 742 64 757 80 773 94 c 4
 786 106 796 129 815 129 c 4
 823 129 840 109 856 90 c 4
 865 80 886 65 886 55 c 4
 886 43 866 33 851 19 c 4
 839 7 827 -16 813 -16 c 4
 797 -16 786 11 773 21 c 4
 756 33 742 45 742 55 c 4
EndSplineSet
EndChar
StartChar: uF1F80
Encoding: 991104 991104 72
Width: 1000
Flags: MW
LayerCount: 2
Back
Fore
SplineSet
115 47 m 0
 115 51 119 63 147 63 c 0
 169 63 201 16 333 16 c 0
 528 16 601 150 601 218 c 0
 601 291 556 364 397 364 c 0
 368 364 356 360 352 360 c 0
 336 360 332 369 332 375 c 0
 332 388 354 384 462 437 c 0
 525 468 561 514 561 555 c 0
 561 606 500 650 417 650 c 0
 313 650 236 590 206 590 c 0
 193 590 194 594 194 599 c 0
 194 647 332 710 431 710 c 0
 534 710 638 674 638 593 c 0
 638 521 595 487 548 445 c 0
 538 436 531 431 531 426 c 0
 531 419 573 423 616 391 c 0
 657 361 685 320 685 257 c 0
 685 95 520 -23 333 -23 c 0
 228 -23 115 14 115 47 c 0
742 55 m 4
 742 64 757 80 773 94 c 4
 786 106 796 129 815 129 c 4
 823 129 840 109 856 90 c 4
 865 80 886 65 886 55 c 4
 886 43 866 33 851 19 c 4
 839 7 827 -16 813 -16 c 4
 797 -16 786 11 773 21 c 4
 756 33 742 45 742 55 c 4
EndSplineSet
EndChar
StartChar: uF1F81
Encoding: 991105 991105 73
Width: 1000
Flags: MW
LayerCount: 2
Back
Fore
SplineSet
94 223 m 0
 94 248 108 262 433 617 c 0
 471 659 507 710 534 710 c 0
 545 710 556 704 556 690 c 0
 556 684 538 353 538 305 c 0
 538 284 537 280 557 280 c 0
 661 280 655 312 688 312 c 0
 692 312 706 310 706 298 c 0
 706 285 697 271 690 253 c 0
 687 245 682 207 651 207 c 0
 627 207 584 210 563 210 c 0
 544 210 536 204 536 190 c 0
 536 154 538 120 538 57 c 0
 538 -23 539 -4 539 -31 c 0
 539 -81 538 -73 502 -84 c 0
 488 -88 473 -90 469 -90 c 0
 453 -90 447 -71 447 -63 c 0
 447 -53 464 -21 464 203 c 0
 464 209 457 209 449 209 c 2
 279 209 l 2
 224 209 175 207 133 207 c 0
 106 207 94 208 94 223 c 0
194 286 m 0
 194 278 212 277 236 277 c 2
 422 277 l 2
 464 277 465 281 465 298 c 4
 465 306 469 466 469 529 c 4
 469 548 466 558 462 558 c 0
 452 558 194 310 194 286 c 0
742 55 m 4
 742 64 757 80 773 94 c 4
 786 106 796 129 815 129 c 4
 823 129 840 109 856 90 c 4
 865 80 886 65 886 55 c 4
 886 43 866 33 851 19 c 4
 839 7 827 -16 813 -16 c 4
 797 -16 786 11 773 21 c 4
 756 33 742 45 742 55 c 4
EndSplineSet
EndChar
StartChar: uF1F82
Encoding: 991106 991106 74
Width: 1000
Flags: MW
LayerCount: 2
Back
Fore
SplineSet
134 16 m 0
 134 26 143 31 153 31 c 0
 181 31 201 8 313 8 c 0
 477 8 584 107 584 222 c 0
 584 303 519 374 373 374 c 0
 283 374 271 365 249 365 c 0
 222 365 216 383 216 390 c 0
 216 414 248 521 273 660 c 0
 276 674 286 686 315 686 c 0
 564 688 573 685 599 700 c 0
 621 713 627 726 643 726 c 0
 652 726 658 720 658 715 c 0
 658 711 656 705 653 700 c 0
 598 618 598 611 568 611 c 0
 558 611 514 612 478 612 c 0
 375 612 303 602 299 596 c 0
 287 575 266 480 266 457 c 0
 266 449 272 442 276 442 c 0
 280 442 302 450 392 450 c 0
 476 450 553 425 595 390 c 0
 644 350 666 298 666 260 c 0
 666 64 479 -30 321 -30 c 0
 256 -30 134 -18 134 16 c 0
742 55 m 4
 742 64 757 80 773 94 c 4
 786 106 796 129 815 129 c 4
 823 129 840 109 856 90 c 4
 865 80 886 65 886 55 c 4
 886 43 866 33 851 19 c 4
 839 7 827 -16 813 -16 c 4
 797 -16 786 11 773 21 c 4
 756 33 742 45 742 55 c 4
EndSplineSet
EndChar
StartChar: uF1F83
Encoding: 991107 991107 75
Width: 1000
Flags: MW
LayerCount: 2
Back
Fore
SplineSet
113 248 m 0
 113 592 552 723 642 723 c 0
 659 723 665 713 665 706 c 0
 665 678 578 704 424 612 c 0
 285 529 225 420 225 387 c 0
 225 381 227 377 231 377 c 0
 245 377 290 448 434 448 c 0
 575 448 687 360 687 229 c 0
 687 88 564 -22 409 -22 c 0
 381 -22 315 -19 259 14 c 0
 202 48 113 118 113 248 c 0
197 239 m 0
 197 181 245 20 441 20 c 0
 561 20 617 100 617 186 c 0
 617 290 535 402 385 402 c 0
 322 402 222 363 207 312 c 0
 201 290 197 271 197 239 c 0
742 55 m 4
 742 64 757 80 773 94 c 4
 786 106 796 129 815 129 c 4
 823 129 840 109 856 90 c 4
 865 80 886 65 886 55 c 4
 886 43 866 33 851 19 c 4
 839 7 827 -16 813 -16 c 4
 797 -16 786 11 773 21 c 4
 756 33 742 45 742 55 c 4
EndSplineSet
EndChar
StartChar: uF1F84
Encoding: 991108 991108 76
Width: 1000
Flags: MW
LayerCount: 2
Back
Fore
SplineSet
164 561 m 0
 164 599 185 642 193 679 c 0
 194 688 207 691 213 691 c 0
 253 691 255 687 418 687 c 2
 457 687 l 2
 570 687 580 689 603 689 c 0
 622 689 636 680 636 668 c 0
 636 524 406 231 406 71 c 0
 406 -10 437 -26 437 -43 c 0
 437 -67 378 -74 369 -74 c 0
 339 -74 314 -65 314 14 c 0
 314 169 498 391 553 511 c 0
 572 553 582 586 582 601 c 0
 582 605 573 614 556 614 c 0
 549 614 539 615 530 615 c 0
 514 615 435 613 372 613 c 0
 348 613 350 614 331 614 c 0
 230 614 209 588 196 555 c 0
 192 541 185 521 176 521 c 0
 167 521 164 538 164 561 c 0
742 55 m 4
 742 64 757 80 773 94 c 4
 786 106 796 129 815 129 c 4
 823 129 840 109 856 90 c 4
 865 80 886 65 886 55 c 4
 886 43 866 33 851 19 c 4
 839 7 827 -16 813 -16 c 4
 797 -16 786 11 773 21 c 4
 756 33 742 45 742 55 c 4
EndSplineSet
EndChar
StartChar: uF1F85
Encoding: 991109 991109 77
Width: 1000
Flags: MW
LayerCount: 2
Back
Fore
SplineSet
125 181 m 0
 125 328 269 368 269 374 c 0
 269 384 157 411 157 524 c 0
 157 644 279 710 413 710 c 0
 604 710 651 615 651 549 c 0
 651 410 503 406 503 398 c 0
 503 385 675 347 675 196 c 0
 675 113 618 -21 395 -21 c 0
 248 -21 125 48 125 181 c 0
183 210 m 0
 183 86 307 18 423 18 c 0
 520 18 609 68 609 174 c 0
 609 215 577 254 542 275 c 0
 457 326 355 351 328 351 c 0
 276 351 183 291 183 210 c 0
221 548 m 0
 221 441 424 418 451 418 c 0
 508 418 593 453 593 543 c 0
 593 585 547 671 403 671 c 0
 325 671 221 647 221 548 c 0
742 55 m 4
 742 64 757 80 773 94 c 4
 786 106 796 129 815 129 c 4
 823 129 840 109 856 90 c 4
 865 80 886 65 886 55 c 4
 886 43 866 33 851 19 c 4
 839 7 827 -16 813 -16 c 4
 797 -16 786 11 773 21 c 4
 756 33 742 45 742 55 c 4
EndSplineSet
EndChar
StartChar: uF1F86
Encoding: 991110 991110 78
Width: 1000
Flags: MW
LayerCount: 2
Back
Fore
SplineSet
115 463 m 0
 115 592 223 710 394 710 c 0
 568 710 685 588 685 441 c 0
 685 312 606 156 439 61 c 0
 334 1 215 -29 159 -29 c 0
 139 -29 137 -21 137 -16 c 0
 137 -12 138 -4 159 -1 c 0
 241 11 344 54 433 119 c 0
 504 171 561 273 561 292 c 0
 561 297 558 298 555 298 c 0
 543 298 480 240 383 240 c 0
 204 240 115 350 115 463 c 0
189 514 m 0
 189 410 279 289 408 289 c 0
 548 289 599 366 599 451 c 0
 599 544 517 665 370 665 c 0
 244 665 189 594 189 514 c 0
742 55 m 4
 742 64 757 80 773 94 c 4
 786 106 796 129 815 129 c 4
 823 129 840 109 856 90 c 4
 865 80 886 65 886 55 c 4
 886 43 866 33 851 19 c 4
 839 7 827 -16 813 -16 c 4
 797 -16 786 11 773 21 c 4
 756 33 742 45 742 55 c 4
EndSplineSet
EndChar
StartChar: uF1F9C
Encoding: 991132 991132 15
Width: 1000
Flags: MW
LayerCount: 2
Back
Fore
SplineSet
387 381 m 4
 387 397 412 398 468 421 c 4
 504 436 502 439 518 439 c 4
 524 439 533 434 533 420 c 4
 533 408 527 389 527 372 c 6
 527 98 l 6
 527 33 558 27 583 25 c 4
 600 24 613 24 613 10 c 4
 613 4 612 -7 596 -7 c 4
 592 -7 586 -6 581 -6 c 4
 539 -6 548 -4 510 -4 c 4
 468 -4 456 -6 439 -6 c 4
 414 -6 399 -3 399 7 c 4
 399 14 405 23 414 26 c 4
 453 39 455 33 455 206 c 6
 455 294 l 6
 455 377 419 363 397 371 c 4
 392 373 387 377 387 381 c 4
444 590 m 4
 444 603 472 645 494 645 c 4
 517 645 540 608 540 588 c 4
 540 564 502 533 493 533 c 4
 464 533 444 574 444 590 c 4
EndSplineSet
EndChar
StartChar: uF1F9D
Encoding: 991133 991133 16
Width: 1000
VWidth: 0
Flags: MW
LayerCount: 2
Back
Fore
SplineSet
270 381 m 4
 270 397 295 398 351 421 c 4
 387 436 385 439 401 439 c 4
 407 439 416 434 416 420 c 4
 416 408 410 389 410 372 c 6
 410 98 l 6
 410 33 441 27 466 25 c 4
 483 24 496 24 496 10 c 4
 496 4 495 -7 479 -7 c 4
 475 -7 469 -6 464 -6 c 4
 422 -6 431 -4 393 -4 c 4
 351 -4 339 -6 322 -6 c 4
 297 -6 282 -3 282 7 c 4
 282 14 288 23 297 26 c 4
 336 39 338 33 338 206 c 6
 338 294 l 6
 338 377 302 363 280 371 c 4
 275 373 270 377 270 381 c 4
327 590 m 4
 327 603 355 645 377 645 c 4
 400 645 423 608 423 588 c 4
 423 564 385 533 376 533 c 4
 347 533 327 574 327 590 c 4
504 381 m 4
 504 397 529 398 585 421 c 4
 621 436 619 439 635 439 c 4
 641 439 650 434 650 420 c 4
 650 408 644 389 644 372 c 6
 644 98 l 6
 644 33 675 27 700 25 c 4
 717 24 730 24 730 10 c 4
 730 4 729 -7 713 -7 c 4
 709 -7 703 -6 698 -6 c 4
 656 -6 665 -4 627 -4 c 4
 585 -4 573 -6 556 -6 c 4
 531 -6 516 -3 516 7 c 4
 516 14 522 23 531 26 c 4
 570 39 572 33 572 206 c 6
 572 294 l 6
 572 377 536 363 514 371 c 4
 509 373 504 377 504 381 c 4
561 590 m 4
 561 603 589 645 611 645 c 4
 634 645 657 608 657 588 c 4
 657 564 619 533 610 533 c 4
 581 533 561 574 561 590 c 4
EndSplineSet
EndChar
StartChar: uF1F9E
Encoding: 991134 991134 17
Width: 1000
VWidth: 0
Flags: MW
LayerCount: 2
Back
Fore
SplineSet
153 381 m 4
 153 397 178 398 234 421 c 4
 270 436 268 439 284 439 c 4
 290 439 299 434 299 420 c 4
 299 408 293 389 293 372 c 6
 293 98 l 6
 293 33 324 27 349 25 c 4
 366 24 379 24 379 10 c 4
 379 4 378 -7 362 -7 c 4
 358 -7 352 -6 347 -6 c 4
 305 -6 314 -4 276 -4 c 4
 234 -4 222 -6 205 -6 c 4
 180 -6 165 -3 165 7 c 4
 165 14 171 23 180 26 c 4
 219 39 221 33 221 206 c 6
 221 294 l 6
 221 377 185 363 163 371 c 4
 158 373 153 377 153 381 c 4
210 590 m 4
 210 603 238 645 260 645 c 4
 283 645 306 608 306 588 c 4
 306 564 268 533 259 533 c 4
 230 533 210 574 210 590 c 4
387 381 m 4
 387 397 412 398 468 421 c 4
 504 436 502 439 518 439 c 4
 524 439 533 434 533 420 c 4
 533 408 527 389 527 372 c 6
 527 98 l 6
 527 33 558 27 583 25 c 4
 600 24 613 24 613 10 c 4
 613 4 612 -7 596 -7 c 4
 592 -7 586 -6 581 -6 c 4
 539 -6 548 -4 510 -4 c 4
 468 -4 456 -6 439 -6 c 4
 414 -6 399 -3 399 7 c 4
 399 14 405 23 414 26 c 4
 453 39 455 33 455 206 c 6
 455 294 l 6
 455 377 419 363 397 371 c 4
 392 373 387 377 387 381 c 4
444 590 m 4
 444 603 472 645 494 645 c 4
 517 645 540 608 540 588 c 4
 540 564 502 533 493 533 c 4
 464 533 444 574 444 590 c 4
621 381 m 4
 621 397 646 398 702 421 c 4
 738 436 736 439 752 439 c 4
 758 439 767 434 767 420 c 4
 767 408 761 389 761 372 c 6
 761 98 l 6
 761 33 792 27 817 25 c 4
 834 24 847 24 847 10 c 4
 847 4 846 -7 830 -7 c 4
 826 -7 820 -6 815 -6 c 4
 773 -6 782 -4 744 -4 c 4
 702 -4 690 -6 673 -6 c 4
 648 -6 633 -3 633 7 c 4
 633 14 639 23 648 26 c 4
 687 39 689 33 689 206 c 6
 689 294 l 6
 689 377 653 363 631 371 c 4
 626 373 621 377 621 381 c 4
678 590 m 4
 678 603 706 645 728 645 c 4
 751 645 774 608 774 588 c 4
 774 564 736 533 727 533 c 4
 698 533 678 574 678 590 c 4
EndSplineSet
EndChar
StartChar: uF1F9F
Encoding: 991135 991135 18
Width: 1000
VWidth: 0
Flags: MW
LayerCount: 2
Back
Fore
SplineSet
149 381 m 4
 149 397 174 398 230 421 c 4
 266 436 264 439 280 439 c 4
 286 439 295 434 295 420 c 4
 295 408 289 389 289 372 c 6
 289 98 l 6
 289 33 320 27 345 25 c 4
 362 24 375 24 375 10 c 4
 375 4 374 -7 358 -7 c 4
 354 -7 348 -6 343 -6 c 4
 301 -6 310 -4 272 -4 c 4
 230 -4 218 -6 201 -6 c 4
 176 -6 161 -3 161 7 c 4
 161 14 167 23 176 26 c 4
 215 39 217 33 217 206 c 6
 217 294 l 6
 217 377 181 363 159 371 c 4
 154 373 149 377 149 381 c 4
206 590 m 4
 206 603 234 645 256 645 c 4
 279 645 302 608 302 588 c 4
 302 564 264 533 255 533 c 4
 226 533 206 574 206 590 c 4
367 416 m 4
 367 425 380 427 386 427 c 4
 393 427 417 423 457 423 c 4
 486 423 486 422 515 422 c 4
 528 422 543 425 554 425 c 4
 564 425 572 421 572 414 c 4
 572 398 562 397 548 397 c 4
 530 397 506 396 506 369 c 4
 506 348 531 303 575 204 c 4
 596 159 620 95 629 95 c 4
 642 95 741 329 741 360 c 4
 741 420 679 377 679 412 c 4
 679 423 690 425 710 425 c 4
 727 425 750 424 777 424 c 4
 797 424 812 425 823 425 c 4
 846 425 851 421 851 410 c 4
 851 397 833 403 812 374 c 4
 750 288 635 -14 600 -14 c 4
 580 -14 591 -13 466 264 c 4
 392 428 367 391 367 416 c 4
EndSplineSet
EndChar
StartChar: uF1FA0
Encoding: 991136 991136 19
Width: 1000
Flags: MW
LayerCount: 2
Back
Fore
SplineSet
258 416 m 4
 258 425 271 427 277 427 c 4
 284 427 308 423 348 423 c 4
 377 423 377 422 406 422 c 4
 419 422 434 425 445 425 c 4
 455 425 463 421 463 414 c 4
 463 398 453 397 439 397 c 4
 421 397 397 396 397 369 c 4
 397 348 422 303 466 204 c 4
 487 159 511 95 520 95 c 4
 533 95 632 329 632 360 c 4
 632 420 570 377 570 412 c 4
 570 423 581 425 601 425 c 4
 618 425 641 424 668 424 c 4
 688 424 703 425 714 425 c 4
 737 425 742 421 742 410 c 4
 742 397 724 403 703 374 c 4
 641 288 526 -14 491 -14 c 4
 471 -14 482 -13 357 264 c 4
 283 428 258 391 258 416 c 4
EndSplineSet
EndChar
StartChar: uF1FA1
Encoding: 991137 991137 20
Width: 1000
VWidth: 0
Flags: MW
LayerCount: 2
Back
Fore
SplineSet
142 416 m 4
 142 425 156 427 162 427 c 4
 169 427 192 423 232 423 c 4
 261 423 261 422 290 422 c 4
 303 422 319 425 330 425 c 4
 340 425 348 421 348 414 c 4
 348 398 338 397 324 397 c 4
 306 397 282 396 282 369 c 4
 282 348 306 303 350 204 c 4
 371 159 395 95 404 95 c 4
 417 95 516 329 516 360 c 4
 516 420 454 377 454 412 c 4
 454 423 466 425 486 425 c 4
 503 425 525 424 552 424 c 4
 572 424 587 425 598 425 c 4
 621 425 626 421 626 410 c 4
 626 397 609 403 588 374 c 4
 526 288 411 -14 376 -14 c 4
 356 -14 367 -13 242 264 c 4
 168 428 142 391 142 416 c 4
632 381 m 4
 632 397 656 398 712 421 c 4
 748 436 746 439 762 439 c 4
 768 439 778 434 778 420 c 4
 778 408 772 389 772 372 c 6
 772 98 l 6
 772 33 803 27 828 25 c 4
 845 24 858 24 858 10 c 4
 858 4 856 -7 840 -7 c 4
 836 -7 831 -6 826 -6 c 4
 784 -6 792 -4 754 -4 c 4
 712 -4 701 -6 684 -6 c 4
 659 -6 644 -3 644 7 c 4
 644 14 649 23 658 26 c 4
 697 39 700 33 700 206 c 6
 700 294 l 6
 700 377 664 363 642 371 c 4
 637 373 632 377 632 381 c 4
688 590 m 4
 688 603 716 645 738 645 c 4
 761 645 784 608 784 588 c 4
 784 564 747 533 738 533 c 4
 709 533 688 574 688 590 c 4
EndSplineSet
EndChar
StartChar: uF1FA2
Encoding: 991138 991138 21
Width: 1000
VWidth: 0
Flags: MW
LayerCount: 2
Back
Fore
SplineSet
26 416 m 4
 26 425 38 427 44 427 c 4
 51 427 76 423 116 423 c 4
 145 423 145 422 174 422 c 4
 187 422 201 425 212 425 c 4
 222 425 230 421 230 414 c 4
 230 398 220 397 206 397 c 4
 188 397 164 396 164 369 c 4
 164 348 190 303 234 204 c 4
 255 159 279 95 288 95 c 4
 301 95 400 329 400 360 c 4
 400 420 338 377 338 412 c 4
 338 423 348 425 368 425 c 4
 385 425 409 424 436 424 c 4
 456 424 471 425 482 425 c 4
 505 425 510 421 510 410 c 4
 510 397 491 403 470 374 c 4
 408 288 293 -14 258 -14 c 4
 238 -14 249 -13 124 264 c 4
 50 428 26 391 26 416 c 4
514 381 m 4
 514 397 540 398 596 421 c 4
 632 436 630 439 646 439 c 4
 652 439 660 434 660 420 c 4
 660 408 654 389 654 372 c 6
 654 98 l 6
 654 33 685 27 710 25 c 4
 727 24 740 24 740 10 c 4
 740 4 740 -7 724 -7 c 4
 720 -7 713 -6 708 -6 c 4
 666 -6 676 -4 638 -4 c 4
 596 -4 583 -6 566 -6 c 4
 541 -6 526 -3 526 7 c 4
 526 14 533 23 542 26 c 4
 581 39 582 33 582 206 c 6
 582 294 l 6
 582 377 546 363 524 371 c 4
 519 373 514 377 514 381 c 4
572 590 m 4
 572 603 600 645 622 645 c 4
 645 645 668 608 668 588 c 4
 668 564 629 533 620 533 c 4
 591 533 572 574 572 590 c 4
748 381 m 4
 748 397 774 398 830 421 c 4
 866 436 864 439 880 439 c 4
 886 439 894 434 894 420 c 4
 894 408 888 389 888 372 c 6
 888 98 l 6
 888 33 919 27 944 25 c 4
 961 24 974 24 974 10 c 4
 974 4 974 -7 958 -7 c 4
 954 -7 947 -6 942 -6 c 4
 900 -6 910 -4 872 -4 c 4
 830 -4 817 -6 800 -6 c 4
 775 -6 760 -3 760 7 c 4
 760 14 767 23 776 26 c 4
 815 39 816 33 816 206 c 6
 816 294 l 6
 816 377 780 363 758 371 c 4
 753 373 748 377 748 381 c 4
806 590 m 4
 806 603 834 645 856 645 c 4
 879 645 902 608 902 588 c 4
 902 564 863 533 854 533 c 4
 825 533 806 574 806 590 c 4
EndSplineSet
EndChar
StartChar: uF1FA3
Encoding: 991139 991139 22
Width: 1000
VWidth: 0
Flags: MW
LayerCount: 2
Back
Fore
SplineSet
27 416 m 4
 27 425 37 427 42 427 c 4
 48 427 67 423 99 423 c 4
 122 423 122 422 145 422 c 4
 155 422 167 425 176 425 c 4
 184 425 191 421 191 414 c 4
 191 398 183 397 172 397 c 4
 158 397 138 396 138 369 c 4
 138 348 158 303 193 204 c 4
 210 159 229 95 236 95 c 4
 246 95 326 329 326 360 c 4
 326 420 276 377 276 412 c 4
 276 423 285 425 301 425 c 4
 315 425 333 424 355 424 c 4
 371 424 383 425 392 425 c 4
 410 425 414 421 414 410 c 4
 414 397 400 403 383 374 c 4
 333 288 241 -14 213 -14 c 4
 197 -14 206 -13 106 264 c 4
 47 428 27 391 27 416 c 4
418 381 m 4
 418 397 438 398 483 421 c 4
 512 436 510 439 523 439 c 4
 528 439 535 434 535 420 c 4
 535 408 530 389 530 372 c 6
 530 98 l 6
 530 33 555 27 575 25 c 4
 589 24 599 24 599 10 c 4
 599 4 598 -7 585 -7 c 4
 582 -7 577 -6 573 -6 c 4
 539 -6 546 -4 516 -4 c 4
 482 -4 474 -6 460 -6 c 4
 440 -6 428 -3 428 7 c 4
 428 14 433 23 440 26 c 4
 471 39 472 33 472 206 c 6
 472 294 l 6
 472 377 444 363 426 371 c 4
 422 373 418 377 418 381 c 4
464 590 m 4
 464 603 486 645 504 645 c 4
 522 645 540 608 540 588 c 4
 540 564 510 533 503 533 c 4
 480 533 464 574 464 590 c 4
605 381 m 4
 605 397 625 398 670 421 c 4
 699 436 697 439 710 439 c 4
 715 439 722 434 722 420 c 4
 722 408 717 389 717 372 c 6
 717 98 l 6
 717 33 742 27 762 25 c 4
 776 24 786 24 786 10 c 4
 786 4 785 -7 772 -7 c 4
 769 -7 764 -6 760 -6 c 4
 726 -6 734 -4 704 -4 c 4
 670 -4 661 -6 647 -6 c 4
 627 -6 615 -3 615 7 c 4
 615 14 620 23 627 26 c 4
 658 39 660 33 660 206 c 6
 660 294 l 6
 660 377 631 363 613 371 c 4
 609 373 605 377 605 381 c 4
651 590 m 4
 651 603 673 645 691 645 c 4
 709 645 728 608 728 588 c 4
 728 564 697 533 690 533 c 4
 667 533 651 574 651 590 c 4
792 381 m 4
 792 397 812 398 857 421 c 4
 886 436 884 439 897 439 c 4
 902 439 909 434 909 420 c 4
 909 408 904 389 904 372 c 6
 904 98 l 6
 904 33 929 27 949 25 c 4
 963 24 973 24 973 10 c 4
 973 4 973 -7 960 -7 c 4
 957 -7 952 -6 948 -6 c 4
 914 -6 921 -4 891 -4 c 4
 857 -4 848 -6 834 -6 c 4
 814 -6 802 -3 802 7 c 4
 802 14 807 23 814 26 c 4
 845 39 847 33 847 206 c 6
 847 294 l 6
 847 377 818 363 800 371 c 4
 796 373 792 377 792 381 c 4
838 590 m 4
 838 603 860 645 878 645 c 4
 896 645 915 608 915 588 c 4
 915 564 884 533 877 533 c 4
 854 533 838 574 838 590 c 4
EndSplineSet
EndChar
StartChar: uF1FA4
Encoding: 991140 991140 23
Width: 1000
VWidth: 0
Flags: MW
LayerCount: 2
Back
Fore
SplineSet
142 381 m 4
 142 397 166 398 222 421 c 4
 258 436 256 439 272 439 c 4
 278 439 288 434 288 420 c 4
 288 408 282 389 282 372 c 6
 282 98 l 6
 282 33 313 27 338 25 c 4
 355 24 368 24 368 10 c 4
 368 4 366 -7 350 -7 c 4
 346 -7 341 -6 336 -6 c 4
 294 -6 302 -4 264 -4 c 4
 222 -4 211 -6 194 -6 c 4
 169 -6 154 -3 154 7 c 4
 154 14 159 23 168 26 c 4
 207 39 210 33 210 206 c 6
 210 294 l 6
 210 377 174 363 152 371 c 4
 147 373 142 377 142 381 c 4
198 590 m 4
 198 603 226 645 248 645 c 4
 271 645 294 608 294 588 c 4
 294 564 257 533 248 533 c 4
 219 533 198 574 198 590 c 4
368 14 m 4
 368 26 378 19 414 41 c 4
 475 79 539 155 572 191 c 4
 574 194 576 196 576 202 c 4
 576 212 532 256 490 311 c 4
 456 355 423 382 414 383 c 4
 389 388 370 401 370 413 c 4
 370 421 377 425 384 425 c 4
 425 425 424 420 462 420 c 4
 493 420 515 424 544 424 c 4
 567 424 570 420 570 411 c 4
 570 397 536 402 536 382 c 4
 536 370 554 352 568 332 c 4
 609 274 621 253 628 253 c 4
 630 253 633 255 638 261 c 4
 710 353 714 354 714 373 c 4
 714 401 668 396 668 412 c 4
 668 417 668 424 694 424 c 4
 713 424 733 423 758 423 c 4
 777 423 797 425 826 425 c 4
 835 425 846 419 846 412 c 4
 846 393 818 410 760 352 c 4
 711 303 646 233 646 226 c 4
 646 219 651 221 736 117 c 4
 760 88 797 37 846 23 c 4
 855 21 858 20 858 11 c 4
 858 2 855 -1 824 -1 c 4
 810 -1 792 1 766 1 c 4
 743 1 725 -1 706 -1 c 6
 696 -1 l 6
 673 -1 662 0 662 9 c 4
 662 21 696 17 696 38 c 4
 696 68 641 117 608 166 c 4
 604 172 603 175 600 175 c 4
 597 175 590 167 588 165 c 4
 546 112 512 84 512 54 c 4
 512 9 558 36 558 8 c 4
 558 2 559 -1 518 -1 c 4
 500 -1 488 2 466 2 c 4
 446 2 428 -2 412 -2 c 4
 385 -2 368 1 368 14 c 4
EndSplineSet
EndChar
StartChar: uF1FA5
Encoding: 991141 991141 24
Width: 1000
Flags: MW
LayerCount: 2
Back
Fore
SplineSet
255 14 m 4
 255 26 265 19 301 41 c 4
 362 79 425 155 458 191 c 4
 460 194 462 196 462 202 c 4
 462 212 419 256 377 311 c 4
 343 355 309 382 300 383 c 4
 275 388 257 401 257 413 c 4
 257 421 264 425 271 425 c 4
 312 425 311 420 349 420 c 4
 380 420 401 424 430 424 c 4
 453 424 456 420 456 411 c 4
 456 397 423 402 423 382 c 4
 423 370 440 352 454 332 c 4
 495 274 508 253 515 253 c 4
 517 253 520 255 525 261 c 4
 597 353 601 354 601 373 c 4
 601 401 555 396 555 412 c 4
 555 417 555 424 581 424 c 4
 600 424 619 423 644 423 c 4
 663 423 684 425 713 425 c 4
 722 425 732 419 732 412 c 4
 732 393 705 410 647 352 c 4
 598 303 532 233 532 226 c 4
 532 219 538 221 623 117 c 4
 647 88 684 37 733 23 c 4
 742 21 745 20 745 11 c 4
 745 2 742 -1 711 -1 c 4
 697 -1 678 1 652 1 c 4
 629 1 612 -1 593 -1 c 6
 582 -1 l 6
 559 -1 548 0 548 9 c 4
 548 21 583 17 583 38 c 4
 583 68 528 117 495 166 c 4
 491 172 489 175 486 175 c 4
 483 175 477 167 475 165 c 4
 433 112 398 84 398 54 c 4
 398 9 445 36 445 8 c 4
 445 2 445 -1 404 -1 c 4
 386 -1 374 2 352 2 c 4
 332 2 315 -2 299 -2 c 4
 272 -2 255 1 255 14 c 4
EndSplineSet
EndChar
StartChar: uF1FF6
Encoding: 991222 991222 60
Width: 1000
VWidth: 0
Flags: MW
LayerCount: 2
Back
Fore
SplineSet
144 381 m 4
 144 397 167 398 219 421 c 4
 252 436 250 439 265 439 c 4
 271 439 279 434 279 420 c 4
 279 408 273 389 273 372 c 6
 273 98 l 6
 273 33 302 27 325 25 c 4
 341 24 353 24 353 10 c 4
 353 4 352 -7 337 -7 c 4
 333 -7 328 -6 323 -6 c 4
 284 -6 293 -4 258 -4 c 4
 219 -4 208 -6 192 -6 c 4
 169 -6 155 -3 155 7 c 4
 155 14 161 23 169 26 c 4
 205 39 207 33 207 206 c 6
 207 294 l 6
 207 377 173 363 153 371 c 4
 148 373 144 377 144 381 c 4
196 590 m 4
 196 603 223 645 243 645 c 4
 264 645 285 608 285 588 c 4
 285 564 250 533 242 533 c 4
 215 533 196 574 196 590 c 4
356 390 m 4
 356 403 381 402 401 408 c 4
 442 420 475 442 484 442 c 6
 486 442 l 6
 492 442 494 437 494 430 c 4
 494 423 492 403 492 387 c 4
 492 369 493 361 497 361 c 4
 503 361 507 380 540 402 c 4
 562 417 591 430 621 430 c 4
 753 430 780 315 780 262 c 4
 780 245 781 262 781 119 c 6
 781 97 l 6
 781 51 785 33 838 24 c 4
 855 21 856 17 856 9 c 4
 856 1 847 -1 838 -1 c 4
 800 -1 782 4 762 4 c 4
 739 4 701 0 690 0 c 4
 678 0 672 5 672 13 c 4
 672 27 693 27 695 28 c 4
 714 34 715 68 715 95 c 6
 715 230 l 6
 715 341 654 386 596 386 c 4
 535 386 496 337 492 325 c 4
 487 311 484 200 484 167 c 6
 484 129 l 6
 484 71 489 32 537 28 c 4
 543 28 575 25 575 13 c 4
 575 2 565 0 557 0 c 4
 523 0 532 4 489 4 c 4
 449 4 394 0 386 0 c 4
 375 0 372 4 372 10 c 4
 372 41 417 -13 421 106 c 4
 423 162 423 152 423 181 c 6
 423 325 l 6
 423 372 404 379 383 379 c 6
 373 379 l 6
 360 379 356 383 356 390 c 4
EndSplineSet
EndChar
StartChar: uF1FFB
Encoding: 991227 991227 62
Width: 1000
VWidth: 0
Flags: MW
LayerCount: 2
Back
Fore
SplineSet
16 388 m 4
 16 409 40 404 63 423 c 4
 74 432 77 438 86 438 c 4
 91 438 93 425 93 409 c 4
 93 397 90 375 90 367 c 4
 90 361 90 355 93 355 c 4
 97 355 110 427 164 427 c 4
 221 427 227 348 232 348 c 4
 236 348 262 430 305 430 c 4
 360 430 385 357 389 280 c 4
 392 231 392 188 392 153 c 6
 392 121 l 6
 392 68 393 38 407 30 c 4
 411 28 427 28 427 11 c 4
 427 -4 415 -4 409 -4 c 4
 402 -4 385 0 374 0 c 4
 359 0 347 -4 336 -4 c 4
 330 -4 324 -2 324 6 c 4
 324 26 344 23 348 42 c 4
 350 50 350 68 350 88 c 6
 350 104 l 6
 350 325 347 313 330 352 c 4
 321 372 306 383 290 383 c 4
 264 383 236 338 236 329 c 4
 236 316 239 304 239 202 c 6
 239 117 l 6
 239 62 244 31 276 22 c 4
 284 20 285 9 285 6 c 4
 285 -5 278 -5 275 -5 c 4
 266 -5 251 0 236 0 c 4
 226 0 193 -5 188 -5 c 4
 184 -5 177 -2 177 8 c 4
 177 17 178 20 189 28 c 4
 193 30 201 32 201 90 c 4
 201 104 201 91 201 199 c 4
 201 262 200 256 200 262 c 4
 200 331 180 379 146 379 c 4
 116 379 89 345 89 306 c 6
 89 292 l 5
 89 104 l 6
 89 0 134 35 134 12 c 4
 134 1 134 -3 123 -3 c 4
 115 -3 101 0 78 0 c 4
 57 0 44 -3 36 -3 c 4
 24 -3 24 5 24 12 c 4
 24 33 41 13 48 56 c 4
 51 77 52 137 52 208 c 4
 52 247 52 289 52 330 c 4
 52 400 16 356 16 388 c 4
427 388 m 4
 427 409 451 404 474 423 c 4
 485 432 488 438 497 438 c 4
 502 438 503 425 503 409 c 4
 503 397 501 375 501 367 c 4
 501 361 501 355 504 355 c 4
 508 355 521 427 575 427 c 4
 632 427 638 348 643 348 c 4
 647 348 672 430 715 430 c 4
 770 430 796 357 800 280 c 4
 803 231 803 188 803 153 c 6
 803 121 l 6
 803 68 804 38 818 30 c 4
 822 28 838 28 838 11 c 4
 838 -4 826 -4 820 -4 c 4
 813 -4 796 0 785 0 c 4
 770 0 758 -4 747 -4 c 4
 741 -4 735 -2 735 6 c 4
 735 26 755 23 759 42 c 4
 761 50 761 68 761 88 c 6
 761 104 l 6
 761 325 758 313 741 352 c 4
 732 372 717 383 701 383 c 4
 675 383 647 338 647 329 c 4
 647 316 650 304 650 202 c 6
 650 117 l 6
 650 62 654 31 686 22 c 4
 694 20 696 9 696 6 c 4
 696 -5 689 -5 686 -5 c 4
 677 -5 662 0 647 0 c 4
 637 0 604 -5 599 -5 c 4
 595 -5 588 -2 588 8 c 4
 588 17 589 20 600 28 c 4
 604 30 612 32 612 90 c 4
 612 104 612 91 612 199 c 4
 612 262 611 256 611 262 c 4
 611 331 591 379 557 379 c 4
 527 379 500 345 500 306 c 6
 500 292 l 5
 500 104 l 6
 500 0 545 35 545 12 c 4
 545 1 545 -3 534 -3 c 4
 526 -3 512 0 489 0 c 4
 468 0 455 -3 447 -3 c 4
 435 -3 435 5 435 12 c 4
 435 33 452 13 459 56 c 4
 462 77 463 137 463 208 c 4
 463 247 463 289 463 330 c 4
 463 400 427 356 427 388 c 4
816 429 m 4
 816 431 817 439 823 439 c 4
 828 439 835 412 863 412 c 4
 904 412 919 489 919 529 c 4
 919 571 909 614 873 614 c 4
 867 614 864 612 863 612 c 4
 859 612 859 618 859 621 c 4
 859 628 863 625 884 656 c 4
 896 674 903 701 903 724 c 4
 903 754 891 779 875 779 c 4
 855 779 840 745 834 745 c 4
 832 745 832 747 832 750 c 4
 832 773 864 824 886 824 c 4
 910 824 934 802 934 753 c 4
 934 710 919 689 903 664 c 4
 899 659 897 656 897 653 c 4
 897 649 913 651 928 632 c 4
 943 614 952 590 952 552 c 4
 952 454 912 383 868 383 c 4
 843 383 816 408 816 429 c 4
EndSplineSet
EndChar
StartChar: uF1FFC
Encoding: 991228 991228 63
Width: 1000
VWidth: 0
Flags: MW
LayerCount: 2
Back
Fore
SplineSet
0 689 m 4
 0 697 6 703 30 715 c 4
 62 731 52 724 76 747 c 4
 81 752 89 760 96 760 c 4
 103 760 105 750 105 741 c 4
 105 731 99 677 99 488 c 4
 99 420 98 351 98 283 c 6
 98 262 l 6
 98 241 98 220 100 220 c 4
 109 220 112 232 120 243 c 4
 203 349 207 364 207 370 c 4
 207 394 179 391 179 409 c 4
 179 415 180 419 186 419 c 4
 189 419 193 418 198 418 c 4
 248 420 275 423 289 423 c 4
 303 423 305 420 305 414 c 4
 305 394 286 409 249 371 c 4
 243 365 244 364 220 336 c 4
 158 260 158 262 158 250 c 4
 158 243 161 235 165 227 c 4
 210 139 242 87 262 59 c 4
 302 3 328 36 328 12 c 4
 328 -5 319 -5 302 -5 c 4
 294 -5 243 -4 237 -4 c 4
 218 -4 143 154 123 193 c 4
 121 197 118 199 116 199 c 4
 109 199 97 179 97 153 c 4
 97 148 98 143 98 136 c 4
 100 42 98 65 109 41 c 4
 118 19 155 28 155 9 c 4
 155 -5 138 -7 136 -7 c 4
 130 -7 96 -1 76 -1 c 4
 58 -1 57 -5 30 -5 c 4
 22 -5 16 -4 16 7 c 4
 16 20 27 22 31 24 c 4
 51 36 53 54 53 116 c 4
 53 135 53 152 53 160 c 6
 54 604 l 6
 54 671 37 679 25 679 c 4
 21 679 17 678 12 678 c 4
 5 678 0 680 0 689 c 4
327 388 m 4
 327 409 355 404 382 423 c 4
 395 432 398 438 409 438 c 4
 415 438 416 425 416 409 c 4
 416 397 413 375 413 367 c 4
 413 361 413 355 417 355 c 4
 421 355 438 427 501 427 c 4
 568 427 574 348 580 348 c 4
 584 348 615 430 666 430 c 4
 731 430 759 357 764 280 c 4
 767 231 768 188 768 153 c 6
 768 121 l 6
 768 68 770 38 786 30 c 4
 791 28 809 28 809 11 c 4
 809 -4 796 -4 789 -4 c 4
 781 -4 760 0 748 0 c 4
 731 0 716 -4 703 -4 c 4
 696 -4 688 -2 688 6 c 4
 688 26 712 23 717 42 c 4
 719 50 719 68 719 88 c 6
 719 104 l 6
 719 325 715 313 695 352 c 4
 684 372 668 383 649 383 c 4
 618 383 585 338 585 329 c 4
 585 316 589 304 589 202 c 6
 589 117 l 6
 589 62 593 31 631 22 c 4
 640 20 643 9 643 6 c 4
 643 -5 635 -5 631 -5 c 4
 620 -5 603 0 585 0 c 4
 574 0 535 -5 529 -5 c 4
 525 -5 515 -2 515 8 c 4
 515 17 518 20 530 28 c 4
 534 30 544 32 544 90 c 4
 544 104 544 91 544 199 c 4
 544 262 543 256 543 262 c 4
 543 331 520 379 480 379 c 4
 445 379 413 345 413 306 c 6
 413 292 l 5
 413 104 l 6
 413 0 465 35 465 12 c 4
 465 1 465 -3 452 -3 c 4
 443 -3 427 0 400 0 c 4
 375 0 360 -3 351 -3 c 4
 337 -3 336 5 336 12 c 4
 336 33 355 13 364 56 c 4
 368 77 369 137 369 208 c 4
 369 247 369 289 369 330 c 4
 369 400 327 356 327 388 c 4
784 429 m 4
 784 431 785 439 792 439 c 4
 798 439 805 412 838 412 c 4
 886 412 905 489 905 529 c 4
 905 571 893 614 851 614 c 4
 844 614 840 612 839 612 c 4
 835 612 834 618 834 621 c 4
 834 628 838 625 863 656 c 4
 877 674 886 701 886 724 c 4
 886 754 872 779 853 779 c 4
 829 779 812 745 805 745 c 4
 803 745 802 747 802 750 c 4
 802 773 840 824 866 824 c 4
 894 824 922 802 922 753 c 4
 922 710 905 689 886 664 c 4
 882 659 879 656 879 653 c 4
 879 649 897 651 915 632 c 4
 932 614 944 590 944 552 c 4
 944 454 897 383 845 383 c 4
 816 383 784 408 784 429 c 4
EndSplineSet
EndChar
StartChar: uF1FFD
Encoding: 991229 991229 64
Width: 1000
VWidth: 0
Flags: MW
LayerCount: 2
Back
Fore
SplineSet
46 43 m 6
 46 130 l 6
 46 145 53 156 59 156 c 4
 77 156 73 136 81 113 c 4
 89 88 116 21 168 21 c 4
 194 21 241 35 241 92 c 4
 241 213 53 170 53 314 c 4
 53 391 114 438 179 438 c 4
 266 438 275 408 275 401 c 4
 275 398 278 352 278 341 c 4
 278 319 275 312 263 312 c 4
 249 312 237 404 162 404 c 4
 130 404 106 383 106 353 c 4
 106 294 155 281 195 263 c 4
 275 227 298 197 298 119 c 4
 298 81 277 41 253 15 c 4
 241 3 220 -16 170 -16 c 4
 126 -16 89 6 76 11 c 4
 56 19 46 18 46 43 c 6
320 194 m 4
 320 324 389 432 491 432 c 4
 617 432 645 288 645 273 c 4
 645 259 634 255 611 255 c 6
 420 255 l 5
 395 255 l 6
 386 255 386 254 386 244 c 4
 386 111 458 42 528 42 c 4
 588 42 623 87 637 87 c 4
 641 87 646 82 646 78 c 4
 646 67 595 -19 497 -19 c 4
 407 -19 320 45 320 194 c 4
391 293 m 4
 391 284 393 279 402 279 c 4
 441 279 535 285 549 285 c 4
 565 285 567 288 567 297 c 4
 567 323 542 407 476 407 c 4
 416 407 391 328 391 293 c 4
669 192 m 4
 669 314 745 429 864 429 c 4
 898 429 960 415 962 396 c 4
 963 384 964 366 964 349 c 4
 964 326 961 305 954 305 c 4
 942 305 941 323 927 337 c 4
 908 357 859 390 815 390 c 4
 798 390 732 363 732 224 c 4
 732 122 795 31 876 31 c 4
 943 31 975 83 986 83 c 4
 991 83 996 78 996 73 c 4
 996 64 951 -21 843 -21 c 4
 739 -21 669 58 669 192 c 4
EndSplineSet
EndChar
StartChar: uF1FFE
Encoding: 991230 991230 65
Width: 1000
VWidth: 0
Flags: MW
LayerCount: 2
Back
Fore
SplineSet
20 388 m 4
 20 409 48 404 75 423 c 4
 88 432 92 438 103 438 c 4
 109 438 110 425 110 409 c 4
 110 397 107 375 107 367 c 4
 107 361 107 355 111 355 c 4
 115 355 132 427 196 427 c 4
 264 427 271 348 277 348 c 4
 281 348 311 430 363 430 c 4
 429 430 458 357 463 280 c 4
 466 231 467 188 467 153 c 6
 467 121 l 6
 467 68 468 38 484 30 c 4
 489 28 508 28 508 11 c 4
 508 -4 494 -4 487 -4 c 4
 479 -4 459 0 446 0 c 4
 428 0 414 -4 401 -4 c 4
 394 -4 385 -2 385 6 c 4
 385 26 409 23 414 42 c 4
 416 50 417 68 417 88 c 6
 417 104 l 6
 417 325 413 313 393 352 c 4
 382 372 365 383 346 383 c 4
 315 383 281 338 281 329 c 4
 281 316 285 304 285 202 c 6
 285 117 l 6
 285 62 290 31 328 22 c 4
 337 20 339 9 339 6 c 4
 339 -5 332 -5 328 -5 c 4
 317 -5 300 0 282 0 c 4
 271 0 230 -5 224 -5 c 4
 220 -5 210 -2 210 8 c 4
 210 17 212 20 225 28 c 4
 229 30 239 32 239 90 c 4
 239 104 240 91 240 199 c 4
 240 262 239 256 239 262 c 4
 239 331 215 379 174 379 c 4
 139 379 106 345 106 306 c 6
 106 292 l 5
 106 104 l 6
 106 0 159 35 159 12 c 4
 159 1 159 -3 146 -3 c 4
 137 -3 120 0 93 0 c 4
 68 0 52 -3 43 -3 c 4
 29 -3 28 5 28 12 c 4
 28 33 48 13 57 56 c 4
 61 77 62 137 62 208 c 4
 62 247 62 289 62 330 c 4
 62 400 20 356 20 388 c 4
512 381 m 4
 512 397 528 398 563 421 c 4
 586 436 585 439 595 439 c 4
 599 439 604 434 604 420 c 4
 604 408 600 389 600 372 c 6
 600 98 l 6
 600 33 620 27 636 25 c 4
 647 24 654 24 654 10 c 4
 654 4 654 -7 644 -7 c 4
 641 -7 637 -6 634 -6 c 4
 608 -6 614 -4 590 -4 c 4
 564 -4 556 -6 545 -6 c 4
 529 -6 520 -3 520 7 c 4
 520 14 523 23 529 26 c 4
 554 39 555 33 555 206 c 6
 555 294 l 6
 555 377 532 363 518 371 c 4
 515 373 512 377 512 381 c 4
548 590 m 4
 548 603 565 645 579 645 c 4
 593 645 608 608 608 588 c 4
 608 564 585 533 579 533 c 4
 561 533 548 574 548 590 c 4
656 390 m 4
 656 403 673 402 687 408 c 4
 715 420 737 442 743 442 c 6
 744 442 l 6
 748 442 750 437 750 430 c 4
 750 423 749 403 749 387 c 4
 749 369 749 361 752 361 c 4
 756 361 759 380 782 402 c 4
 797 417 816 430 836 430 c 4
 925 430 945 315 945 262 c 4
 945 245 945 262 945 119 c 6
 945 97 l 6
 945 51 948 33 984 24 c 4
 995 21 996 17 996 9 c 4
 996 1 990 -1 984 -1 c 4
 958 -1 946 4 932 4 c 4
 916 4 892 0 884 0 c 4
 876 0 871 5 871 13 c 4
 871 27 886 27 887 28 c 4
 900 34 901 68 901 95 c 6
 901 230 l 6
 901 341 859 386 819 386 c 4
 777 386 752 337 749 325 c 4
 746 311 743 200 743 167 c 6
 743 129 l 6
 743 71 746 32 779 28 c 4
 783 28 805 25 805 13 c 4
 805 2 799 0 793 0 c 4
 770 0 776 4 747 4 c 4
 720 4 682 0 676 0 c 4
 668 0 667 4 667 10 c 4
 667 41 697 -13 700 106 c 4
 701 162 702 152 702 181 c 6
 702 325 l 6
 702 372 689 379 675 379 c 6
 668 379 l 6
 659 379 656 383 656 390 c 4
EndSplineSet
EndChar
StartChar: uF2000
Encoding: 991232 991232 66
Width: 1000
VWidth: 0
Flags: MW
LayerCount: 2
Back
Fore
SplineSet
30 149 m 4
 30 286 134 436 267 436 c 4
 276 436 361 421 361 364 c 4
 361 344 347 325 330 325 c 4
 290 325 281 397 216 397 c 4
 208 397 180 386 155 362 c 4
 144 351 93 290 93 199 c 4
 93 97 131 46 204 46 c 4
 281 46 312 100 329 100 c 4
 336 100 341 93 341 87 c 4
 341 73 275 -12 171 -12 c 4
 103 -12 30 15 30 149 c 4
374 114 m 4
 374 170 397 227 426 277 c 4
 460 334 502 382 552 407 c 4
 577 420 597 425 621 425 c 4
 650 425 669 414 700 414 c 4
 719 414 730 463 749 463 c 4
 755 463 759 459 759 448 c 4
 759 432 747 408 740 379 c 4
 732 342 726 296 719 251 c 4
 712 207 702 161 702 123 c 4
 702 97 716 64 734 64 c 4
 765 64 784 129 802 129 c 4
 809 129 810 122 810 118 c 4
 810 108 805 93 793 75 c 4
 770 39 728 -7 703 -7 c 4
 643 -7 652 105 645 105 c 4
 640 105 563 -15 474 -15 c 4
 385 -15 374 49 374 114 c 4
439 120 m 4
 439 70 473 40 512 40 c 4
 579 40 624 112 632 130 c 4
 654 178 679 362 679 365 c 4
 679 393 638 400 618 400 c 4
 580 400 530 370 502 319 c 4
 475 271 452 226 444 174 c 4
 441 156 439 138 439 120 c 4
824 86 m 4
 824 143 848 261 850 277 c 4
 858 340 864 411 873 475 c 4
 889 583 903 673 903 685 c 4
 903 697 893 705 879 705 c 4
 865 705 863 704 852 704 c 4
 833 704 825 707 825 718 c 4
 825 723 827 731 839 732 c 4
 907 737 928 747 952 747 c 4
 967 747 972 741 972 731 c 4
 972 717 966 704 963 685 c 4
 928 491 944 528 914 313 c 4
 898 195 887 132 887 98 c 4
 887 64 890 59 902 59 c 4
 953 59 963 130 987 130 c 4
 994 130 998 124 998 114 c 4
 998 104 973 70 951 42 c 4
 927 12 888 -8 870 -8 c 4
 851 -8 824 -8 824 86 c 4
EndSplineSet
EndChar
StartChar: uF2001
Encoding: 991233 991233 67
Width: 1000
VWidth: 0
Flags: MW
LayerCount: 2
Back
Fore
SplineSet
0 689 m 4
 0 697 7 703 31 715 c 4
 64 731 54 724 78 747 c 4
 83 752 92 760 99 760 c 4
 106 760 108 750 108 741 c 4
 108 731 102 677 102 488 c 4
 102 420 100 351 100 283 c 6
 100 262 l 6
 100 241 101 220 103 220 c 4
 112 220 115 232 123 243 c 4
 208 349 213 364 213 370 c 4
 213 394 184 391 184 409 c 4
 184 415 186 419 192 419 c 4
 195 419 198 418 203 418 c 4
 255 420 282 423 297 423 c 4
 311 423 314 420 314 414 c 4
 314 394 294 409 256 371 c 4
 250 365 250 364 226 336 c 4
 162 260 162 262 162 250 c 4
 162 243 165 235 169 227 c 4
 215 139 249 87 269 59 c 4
 310 3 337 36 337 12 c 4
 337 -5 329 -5 311 -5 c 4
 303 -5 250 -4 244 -4 c 4
 225 -4 147 154 127 193 c 4
 125 197 122 199 119 199 c 4
 111 199 100 179 100 153 c 4
 100 148 100 143 100 136 c 4
 103 42 101 65 112 41 c 4
 122 19 160 28 160 9 c 4
 160 -5 143 -7 140 -7 c 4
 134 -7 98 -1 78 -1 c 4
 59 -1 58 -5 31 -5 c 4
 23 -5 16 -4 16 7 c 4
 16 20 28 22 32 24 c 4
 52 36 54 54 54 116 c 4
 54 135 55 152 55 160 c 6
 56 604 l 6
 56 671 38 679 26 679 c 4
 22 679 18 678 13 678 c 4
 6 678 0 680 0 689 c 4
337 149 m 4
 337 286 408 436 499 436 c 4
 505 436 563 421 563 364 c 4
 563 344 554 325 542 325 c 4
 515 325 509 397 464 397 c 4
 458 397 439 386 422 362 c 4
 414 351 380 290 380 199 c 4
 380 97 406 46 456 46 c 4
 508 46 529 100 541 100 c 4
 546 100 550 93 550 87 c 4
 550 73 504 -12 433 -12 c 4
 386 -12 337 15 337 149 c 4
572 114 m 4
 572 170 588 227 608 277 c 4
 631 334 660 382 694 407 c 4
 711 420 724 425 741 425 c 4
 761 425 774 414 795 414 c 4
 808 414 815 463 828 463 c 4
 832 463 835 459 835 448 c 4
 835 432 826 408 822 379 c 4
 816 342 813 296 808 251 c 4
 803 207 796 161 796 123 c 4
 796 97 806 64 818 64 c 4
 839 64 853 129 865 129 c 4
 870 129 870 122 870 118 c 4
 870 108 867 93 859 75 c 4
 843 39 814 -7 797 -7 c 4
 756 -7 761 105 757 105 c 4
 754 105 701 -15 640 -15 c 4
 579 -15 572 49 572 114 c 4
617 120 m 4
 617 70 639 40 666 40 c 4
 712 40 742 112 748 130 c 4
 763 178 781 362 781 365 c 4
 781 393 752 400 739 400 c 4
 713 400 678 370 659 319 c 4
 640 271 626 226 620 174 c 4
 618 156 617 138 617 120 c 4
880 86 m 4
 880 143 897 261 898 277 c 4
 904 340 907 411 913 475 c 4
 924 583 934 673 934 685 c 4
 934 697 928 705 918 705 c 4
 908 705 907 704 899 704 c 4
 886 704 881 707 881 718 c 4
 881 723 882 731 890 732 c 4
 937 737 950 747 967 747 c 4
 977 747 981 741 981 731 c 4
 981 717 976 704 974 685 c 4
 950 491 961 528 941 313 c 4
 930 195 923 132 923 98 c 4
 923 64 925 59 933 59 c 4
 968 59 974 130 991 130 c 4
 995 130 999 124 999 114 c 4
 999 104 982 70 967 42 c 4
 950 12 923 -8 911 -8 c 4
 898 -8 880 -8 880 86 c 4
EndSplineSet
EndChar
StartChar: uF2002
Encoding: 991234 991234 68
Width: 1000
VWidth: 0
Flags: MW
LayerCount: 2
Back
Fore
SplineSet
35 195 m 4
 35 314 107 438 252 438 c 4
 292 438 342 409 354 409 c 4
 357 409 358 415 358 445 c 4
 358 574 360 538 360 574 c 4
 360 641 359 686 312 686 c 6
 303 686 l 6
 284 686 284 687 284 694 c 6
 284 695 l 6
 284 710 314 707 385 743 c 4
 396 748 409 758 420 758 c 4
 426 758 430 753 430 738 c 4
 430 717 419 605 419 521 c 4
 419 341 417 228 417 156 c 4
 417 65 422 44 448 35 c 4
 462 30 487 31 487 14 c 4
 487 9 483 2 418 -4 c 4
 392 -6 373 -14 362 -14 c 4
 356 -14 352 -11 352 -3 c 4
 352 6 349 16 349 34 c 4
 349 41 348 51 341 51 c 4
 331 51 296 -14 211 -14 c 4
 94 -14 35 88 35 195 c 4
99 242 m 4
 99 150 154 38 247 38 c 4
 299 38 354 71 354 117 c 4
 355 288 354 271 354 288 c 4
 354 343 341 357 329 365 c 4
 300 384 255 409 223 409 c 4
 144 409 99 335 99 242 c 4
478 694 m 4
 478 700 481 709 486 709 c 4
 495 709 494 708 521 708 c 4
 553 708 636 709 652 709 c 4
 690 709 719 712 750 712 c 4
 852 712 940 656 940 545 c 4
 940 440 851 402 851 396 c 4
 851 384 996 379 996 208 c 4
 996 151 961 75 921 44 c 4
 866 1 827 -8 766 -8 c 4
 704 -8 628 3 606 3 c 4
 585 3 559 -1 529 -1 c 6
 517 -1 l 6
 508 -1 498 1 498 14 c 4
 498 18 499 28 508 28 c 4
 518 28 522 29 528 29 c 4
 540 29 566 46 569 122 c 4
 572 187 571 322 571 434 c 6
 571 604 l 6
 571 613 567 682 493 682 c 4
 488 682 478 682 478 694 c 4
639 92 m 4
 639 35 696 32 727 32 c 6
 747 32 l 6
 774 32 801 33 824 37 c 4
 879 47 920 108 920 184 c 4
 920 356 774 364 745 364 c 4
 662 364 670 366 662 366 c 4
 643 366 640 364 640 204 c 6
 640 196 l 6
 640 113 639 102 639 92 c 4
645 545 m 6
 645 413 647 402 656 401 c 4
 673 399 677 398 702 398 c 6
 759 398 l 6
 838 398 871 452 871 516 c 4
 871 576 820 677 691 677 c 4
 656 677 645 665 645 574 c 6
 645 545 l 6
EndSplineSet
EndChar
StartChar: uF2021
Encoding: 991265 991265 10
Width: 1000
VWidth: 0
Flags: MW
LayerCount: 2
Back
Fore
SplineSet
5 701 m 4
 5 712 9 714 47 714 c 4
 89 714 77 710 136 710 c 4
 147 710 233 712 241 712 c 4
 255 712 263 712 263 703 c 4
 263 675 218 697 218 664 c 4
 218 643 254 593 272 567 c 4
 334 473 361 428 372 428 c 4
 379 428 384 434 395 450 c 4
 436 510 527 632 527 655 c 4
 527 702 474 677 474 704 c 4
 474 712 479 714 489 714 c 4
 532 714 535 710 570 710 c 4
 664 710 641 714 664 714 c 4
 672 714 680 712 680 704 c 4
 680 682 648 691 605 661 c 4
 588 649 573 630 552 602 c 4
 490 519 397 396 397 392 c 4
 397 380 410 369 523 205 c 4
 556 157 625 63 653 40 c 4
 662 32 716 32 716 13 c 4
 716 5 714 -1 684 -1 c 4
 652 -1 588 6 577 6 c 4
 512 6 487 0 475 0 c 4
 467 0 462 2 462 13 c 4
 462 39 513 21 513 56 c 4
 513 80 453 159 357 303 c 4
 351 313 343 320 340 320 c 4
 336 320 330 307 319 289 c 4
 255 189 172 100 172 55 c 4
 172 46 175 28 226 28 c 4
 233 28 238 24 238 11 c 4
 238 1 228 0 207 0 c 4
 189 0 128 3 119 3 c 4
 101 3 60 -1 39 -1 c 4
 21 -1 10 0 10 18 c 4
 10 39 42 20 81 51 c 4
 131 91 191 180 243 253 c 4
 284 310 317 349 317 356 c 4
 317 365 283 405 181 551 c 4
 149 598 91 671 45 681 c 4
 32 684 5 684 5 701 c 4
706 695 m 4
 706 702 710 710 734 710 c 4
 762 710 791 706 847 706 c 4
 890 706 872 708 935 708 c 4
 942 708 962 707 962 694 c 4
 962 685 945 679 916 667 c 4
 888 656 884 591 884 552 c 4
 884 317 881 274 881 182 c 4
 881 121 887 89 906 61 c 4
 927 32 944 30 954 30 c 4
 957 30 971 29 974 29 c 4
 984 29 995 23 995 18 c 4
 995 2 987 0 970 0 c 4
 916 0 908 4 875 4 c 4
 823 4 801 -1 765 -1 c 4
 724 -1 720 6 720 14 c 4
 720 41 779 13 794 78 c 4
 796 86 805 277 805 345 c 6
 805 402 l 6
 805 431 806 469 806 510 c 6
 806 556 l 6
 806 582 805 607 802 629 c 4
 797 665 755 679 727 680 c 4
 707 681 706 690 706 695 c 4
EndSplineSet
EndChar
StartChar: uF2022
Encoding: 991266 991266 11
Width: 1000
VWidth: 0
Flags: MW
LayerCount: 2
Back
Fore
SplineSet
15 701 m 4
 15 712 18 714 46 714 c 4
 78 714 69 710 113 710 c 4
 121 710 186 712 192 712 c 4
 202 712 208 712 208 703 c 4
 208 675 175 697 175 664 c 4
 175 643 201 593 215 567 c 4
 261 473 282 428 290 428 c 4
 295 428 300 434 308 450 c 4
 339 510 406 632 406 655 c 4
 406 702 367 677 367 704 c 4
 367 712 370 714 378 714 c 4
 410 714 413 710 439 710 c 4
 509 710 492 714 509 714 c 4
 515 714 521 712 521 704 c 4
 521 682 497 691 465 661 c 4
 452 649 441 630 425 602 c 4
 379 519 309 396 309 392 c 4
 309 380 319 369 404 205 c 4
 429 157 480 63 501 40 c 4
 508 32 548 32 548 13 c 4
 548 5 546 -1 524 -1 c 4
 500 -1 452 6 444 6 c 4
 395 6 377 0 368 0 c 4
 362 0 358 2 358 13 c 4
 358 39 396 21 396 56 c 4
 396 80 351 159 279 303 c 4
 275 313 268 320 266 320 c 4
 263 320 258 307 250 289 c 4
 202 189 140 100 140 55 c 4
 140 46 143 28 181 28 c 4
 186 28 190 24 190 11 c 4
 190 1 182 0 166 0 c 4
 152 0 107 3 100 3 c 4
 86 3 56 -1 40 -1 c 4
 26 -1 19 0 19 18 c 4
 19 39 43 20 72 51 c 4
 110 91 155 180 194 253 c 4
 225 310 249 349 249 356 c 4
 249 365 223 405 147 551 c 4
 123 598 79 671 45 681 c 4
 35 684 15 684 15 701 c 4
541 695 m 4
 541 702 544 710 562 710 c 4
 583 710 604 706 646 706 c 4
 678 706 665 708 712 708 c 4
 717 708 733 707 733 694 c 4
 733 685 720 679 698 667 c 4
 677 656 674 591 674 552 c 4
 674 317 672 274 672 182 c 4
 672 121 677 89 691 61 c 4
 707 32 719 30 727 30 c 4
 729 30 740 29 742 29 c 4
 750 29 758 23 758 18 c 4
 758 2 752 0 739 0 c 4
 699 0 693 4 668 4 c 4
 629 4 612 -1 585 -1 c 4
 554 -1 551 6 551 14 c 4
 551 41 596 13 607 78 c 4
 609 86 615 277 615 345 c 6
 615 402 l 6
 615 431 616 469 616 510 c 6
 616 556 l 6
 616 582 615 607 613 629 c 4
 609 665 577 679 556 680 c 4
 541 681 541 690 541 695 c 4
749 695 m 4
 749 702 752 710 770 710 c 4
 791 710 813 706 855 706 c 4
 887 706 874 708 921 708 c 4
 926 708 941 707 941 694 c 4
 941 685 929 679 907 667 c 4
 886 656 883 591 883 552 c 4
 883 317 880 274 880 182 c 4
 880 121 885 89 899 61 c 4
 915 32 927 30 935 30 c 4
 937 30 948 29 950 29 c 4
 958 29 966 23 966 18 c 4
 966 2 960 0 947 0 c 4
 907 0 901 4 876 4 c 4
 837 4 821 -1 794 -1 c 4
 763 -1 760 6 760 14 c 4
 760 41 804 13 815 78 c 4
 817 86 824 277 824 345 c 6
 824 402 l 6
 824 431 824 469 824 510 c 6
 824 556 l 6
 824 582 823 607 821 629 c 4
 817 665 786 679 765 680 c 4
 750 681 749 690 749 695 c 4
EndSplineSet
EndChar
StartChar: uF2067
Encoding: 991335 991335 12
Width: 1000
VWidth: 0
Flags: MW
LayerCount: 2
Back
Fore
SplineSet
12 701 m 4
 12 712 14 714 37 714 c 4
 62 714 56 710 91 710 c 4
 98 710 149 712 154 712 c 4
 162 712 167 712 167 703 c 4
 167 675 140 697 140 664 c 4
 140 643 161 593 172 567 c 4
 209 473 225 428 232 428 c 4
 236 428 239 434 246 450 c 4
 271 510 325 632 325 655 c 4
 325 702 293 677 293 704 c 4
 293 712 296 714 302 714 c 4
 328 714 330 710 351 710 c 4
 407 710 393 714 407 714 c 4
 412 714 417 712 417 704 c 4
 417 682 398 691 372 661 c 4
 362 649 353 630 340 602 c 4
 303 519 247 396 247 392 c 4
 247 380 255 369 323 205 c 4
 343 157 384 63 401 40 c 4
 406 32 439 32 439 13 c 4
 439 5 437 -1 419 -1 c 4
 400 -1 362 6 355 6 c 4
 316 6 301 0 294 0 c 4
 289 0 286 2 286 13 c 4
 286 39 317 21 317 56 c 4
 317 80 281 159 223 303 c 4
 219 313 215 320 213 320 c 4
 211 320 207 307 200 289 c 4
 162 189 112 100 112 55 c 4
 112 46 114 28 145 28 c 4
 149 28 152 24 152 11 c 4
 152 1 146 0 133 0 c 4
 122 0 85 3 80 3 c 4
 69 3 45 -1 32 -1 c 4
 21 -1 15 0 15 18 c 4
 15 39 35 20 58 51 c 4
 88 91 124 180 155 253 c 4
 180 310 199 349 199 356 c 4
 199 365 179 405 118 551 c 4
 99 598 64 671 36 681 c 4
 28 684 12 684 12 701 c 4
433 695 m 4
 433 702 435 710 449 710 c 4
 466 710 483 706 517 706 c 4
 543 706 532 708 570 708 c 4
 574 708 586 707 586 694 c 4
 586 685 576 679 559 667 c 4
 542 656 539 591 539 552 c 4
 539 317 538 274 538 182 c 4
 538 121 542 89 553 61 c 4
 566 32 575 30 581 30 c 4
 583 30 591 29 593 29 c 4
 599 29 606 23 606 18 c 4
 606 2 601 0 591 0 c 4
 559 0 554 4 534 4 c 4
 503 4 490 -1 468 -1 c 4
 443 -1 441 6 441 14 c 4
 441 41 476 13 485 78 c 4
 486 86 492 277 492 345 c 6
 492 402 l 6
 492 431 493 469 493 510 c 6
 493 556 l 6
 493 582 492 607 490 629 c 4
 487 665 462 679 445 680 c 4
 433 681 433 690 433 695 c 4
599 695 m 4
 599 702 602 710 616 710 c 4
 633 710 650 706 684 706 c 4
 710 706 699 708 737 708 c 4
 741 708 753 707 753 694 c 4
 753 685 742 679 725 667 c 4
 708 656 706 591 706 552 c 4
 706 317 704 274 704 182 c 4
 704 121 708 89 719 61 c 4
 732 32 742 30 748 30 c 4
 750 30 758 29 760 29 c 4
 766 29 773 23 773 18 c 4
 773 2 768 0 758 0 c 4
 726 0 721 4 701 4 c 4
 670 4 657 -1 635 -1 c 4
 610 -1 608 6 608 14 c 4
 608 41 643 13 652 78 c 4
 653 86 659 277 659 345 c 6
 659 402 l 6
 659 431 659 469 659 510 c 6
 659 556 l 6
 659 582 659 607 657 629 c 4
 654 665 629 679 612 680 c 4
 600 681 599 690 599 695 c 4
766 695 m 4
 766 702 769 710 783 710 c 4
 800 710 817 706 851 706 c 4
 877 706 866 708 904 708 c 4
 908 708 920 707 920 694 c 4
 920 685 909 679 892 667 c 4
 875 656 873 591 873 552 c 4
 873 317 871 274 871 182 c 4
 871 121 875 89 886 61 c 4
 899 32 909 30 915 30 c 4
 917 30 925 29 927 29 c 4
 933 29 940 23 940 18 c 4
 940 2 935 0 925 0 c 4
 893 0 888 4 868 4 c 4
 837 4 824 -1 802 -1 c 4
 777 -1 775 6 775 14 c 4
 775 41 810 13 819 78 c 4
 820 86 826 277 826 345 c 6
 826 402 l 6
 826 431 826 469 826 510 c 6
 826 556 l 6
 826 582 826 607 824 629 c 4
 821 665 796 679 779 680 c 4
 767 681 766 690 766 695 c 4
EndSplineSet
EndChar
StartChar: uF2068
Encoding: 991336 991336 13
Width: 1000
VWidth: 0
Flags: MW
LayerCount: 2
Back
Fore
SplineSet
11 701 m 4
 11 712 13 714 34 714 c 4
 57 714 51 710 83 710 c 4
 89 710 137 712 141 712 c 4
 149 712 153 712 153 703 c 4
 153 675 128 697 128 664 c 4
 128 643 148 593 158 567 c 4
 192 473 207 428 213 428 c 4
 217 428 220 434 226 450 c 4
 249 510 298 632 298 655 c 4
 298 702 269 677 269 704 c 4
 269 712 271 714 277 714 c 4
 301 714 303 710 322 710 c 4
 374 710 360 714 373 714 c 4
 377 714 382 712 382 704 c 4
 382 682 365 691 341 661 c 4
 332 649 324 630 312 602 c 4
 278 519 227 396 227 392 c 4
 227 380 234 369 296 205 c 4
 314 157 352 63 367 40 c 4
 372 32 402 32 402 13 c 4
 402 5 400 -1 384 -1 c 4
 366 -1 332 6 326 6 c 4
 290 6 277 0 270 0 c 4
 266 0 262 2 262 13 c 4
 262 39 290 21 290 56 c 4
 290 80 258 159 205 303 c 4
 202 313 197 320 195 320 c 4
 193 320 190 307 184 289 c 4
 149 189 103 100 103 55 c 4
 103 46 105 28 133 28 c 4
 137 28 139 24 139 11 c 4
 139 1 134 0 122 0 c 4
 112 0 79 3 74 3 c 4
 64 3 42 -1 30 -1 c 4
 20 -1 14 0 14 18 c 4
 14 39 32 20 53 51 c 4
 81 91 113 180 142 253 c 4
 165 310 183 349 183 356 c 4
 183 365 164 405 108 551 c 4
 90 598 58 671 33 681 c 4
 26 684 11 684 11 701 c 4
397 695 m 4
 397 702 399 710 412 710 c 4
 427 710 443 706 474 706 c 4
 498 706 487 708 522 708 c 4
 526 708 537 707 537 694 c 4
 537 685 528 679 512 667 c 4
 497 656 494 591 494 552 c 4
 494 317 493 274 493 182 c 4
 493 121 497 89 507 61 c 4
 519 32 527 30 533 30 c 4
 535 30 542 29 544 29 c 4
 550 29 556 23 556 18 c 4
 556 2 551 0 542 0 c 4
 512 0 508 4 490 4 c 4
 461 4 449 -1 429 -1 c 4
 406 -1 404 6 404 14 c 4
 404 41 437 13 445 78 c 4
 446 86 451 277 451 345 c 6
 451 402 l 6
 451 431 452 469 452 510 c 6
 452 556 l 6
 452 582 451 607 449 629 c 4
 446 665 423 679 408 680 c 4
 397 681 397 690 397 695 c 4
549 696 m 4
 549 709 559 710 565 710 c 4
 577 710 589 706 625 706 c 4
 635 706 649 708 661 708 c 4
 677 708 679 707 679 697 c 4
 679 682 657 683 657 650 c 4
 657 608 675 557 734 312 c 4
 752 236 782 119 789 119 c 4
 795 119 905 596 905 649 c 4
 905 696 866 676 866 700 c 4
 866 709 867 710 877 710 c 4
 884 710 893 709 912 709 c 4
 933 709 934 711 961 711 c 4
 967 711 971 709 971 697 c 4
 971 675 951 687 936 625 c 6
 813 117 l 6
 778 -29 782 -30 776 -30 c 4
 773 -30 765 -24 751 39 c 4
 733 118 719 173 694 271 c 4
 616 579 616 611 601 643 c 4
 573 699 549 661 549 696 c 4
EndSplineSet
EndChar
StartChar: uF2069
Encoding: 991337 991337 14
Width: 1000
VWidth: 0
Flags: MW
LayerCount: 2
Back
Fore
SplineSet
13 701 m 4
 13 712 15 714 40 714 c 4
 67 714 60 710 98 710 c 4
 105 710 161 712 166 712 c 4
 175 712 181 712 181 703 c 4
 181 675 151 697 151 664 c 4
 151 643 175 593 187 567 c 4
 227 473 245 428 252 428 c 4
 257 428 259 434 266 450 c 4
 293 510 352 632 352 655 c 4
 352 702 318 677 318 704 c 4
 318 712 322 714 328 714 c 4
 356 714 357 710 380 710 c 4
 441 710 426 714 441 714 c 4
 446 714 452 712 452 704 c 4
 452 682 431 691 403 661 c 4
 392 649 383 630 369 602 c 4
 329 519 268 396 268 392 c 4
 268 380 277 369 350 205 c 4
 371 157 416 63 434 40 c 4
 440 32 475 32 475 13 c 4
 475 5 474 -1 454 -1 c 4
 433 -1 392 6 385 6 c 4
 343 6 326 0 318 0 c 4
 313 0 310 2 310 13 c 4
 310 39 343 21 343 56 c 4
 343 80 304 159 242 303 c 4
 238 313 233 320 231 320 c 4
 228 320 224 307 217 289 c 4
 175 189 122 100 122 55 c 4
 122 46 124 28 157 28 c 4
 162 28 164 24 164 11 c 4
 164 1 158 0 144 0 c 4
 132 0 93 3 87 3 c 4
 75 3 49 -1 35 -1 c 4
 23 -1 16 0 16 18 c 4
 16 39 37 20 62 51 c 4
 94 91 134 180 168 253 c 4
 195 310 216 349 216 356 c 4
 216 365 193 405 127 551 c 4
 106 598 69 671 39 681 c 4
 31 684 13 684 13 701 c 4
469 696 m 4
 469 709 480 710 487 710 c 4
 501 710 515 706 558 706 c 4
 570 706 587 708 601 708 c 4
 621 708 622 707 622 697 c 4
 622 682 595 683 595 650 c 4
 595 608 616 557 686 312 c 4
 707 236 743 119 751 119 c 4
 757 119 889 596 889 649 c 4
 889 696 842 676 842 700 c 4
 842 709 844 710 856 710 c 4
 864 710 874 709 897 709 c 4
 922 709 923 711 955 711 c 4
 962 711 967 709 967 697 c 4
 967 675 944 687 926 625 c 6
 781 117 l 6
 739 -29 743 -30 736 -30 c 4
 732 -30 723 -24 707 39 c 4
 686 118 669 173 640 271 c 4
 548 579 547 611 529 643 c 4
 497 699 469 661 469 696 c 4
EndSplineSet
EndChar
StartChar: uF206A
Encoding: 991338 991338 25
Width: 1000
VWidth: 0
Flags: MW
LayerCount: 2
Back
Fore
SplineSet
134 14 m 4
 134 26 144 19 180 41 c 4
 241 79 305 155 338 191 c 4
 340 194 342 196 342 202 c 4
 342 212 298 256 256 311 c 4
 222 355 189 382 180 383 c 4
 155 388 136 401 136 413 c 4
 136 421 143 425 150 425 c 4
 191 425 190 420 228 420 c 4
 259 420 281 424 310 424 c 4
 333 424 336 420 336 411 c 4
 336 397 302 402 302 382 c 4
 302 370 320 352 334 332 c 4
 375 274 387 253 394 253 c 4
 396 253 399 255 404 261 c 4
 476 353 480 354 480 373 c 4
 480 401 434 396 434 412 c 4
 434 417 434 424 460 424 c 4
 479 424 499 423 524 423 c 4
 543 423 563 425 592 425 c 4
 601 425 612 419 612 412 c 4
 612 393 584 410 526 352 c 4
 477 303 412 233 412 226 c 4
 412 219 417 221 502 117 c 4
 526 88 563 37 612 23 c 4
 621 21 624 20 624 11 c 4
 624 2 621 -1 590 -1 c 4
 576 -1 558 1 532 1 c 4
 509 1 491 -1 472 -1 c 6
 462 -1 l 6
 439 -1 428 0 428 9 c 4
 428 21 462 17 462 38 c 4
 462 68 407 117 374 166 c 4
 370 172 369 175 366 175 c 4
 363 175 356 167 354 165 c 4
 312 112 278 84 278 54 c 4
 278 9 324 36 324 8 c 4
 324 2 325 -1 284 -1 c 4
 266 -1 254 2 232 2 c 4
 212 2 194 -2 178 -2 c 4
 151 -2 134 1 134 14 c 4
640 381 m 4
 640 397 664 398 720 421 c 4
 756 436 754 439 770 439 c 4
 776 439 786 434 786 420 c 4
 786 408 780 389 780 372 c 6
 780 98 l 6
 780 33 811 27 836 25 c 4
 853 24 866 24 866 10 c 4
 866 4 864 -7 848 -7 c 4
 844 -7 839 -6 834 -6 c 4
 792 -6 800 -4 762 -4 c 4
 720 -4 709 -6 692 -6 c 4
 667 -6 652 -3 652 7 c 4
 652 14 657 23 666 26 c 4
 705 39 708 33 708 206 c 6
 708 294 l 6
 708 377 672 363 650 371 c 4
 645 373 640 377 640 381 c 4
696 590 m 4
 696 603 724 645 746 645 c 4
 769 645 792 608 792 588 c 4
 792 564 755 533 746 533 c 4
 717 533 696 574 696 590 c 4
EndSplineSet
EndChar
StartChar: uF206B
Encoding: 991339 991339 26
Width: 1000
VWidth: 0
Flags: MW
LayerCount: 2
Back
Fore
SplineSet
18 14 m 4
 18 26 28 19 64 41 c 4
 125 79 187 155 220 191 c 4
 222 194 224 196 224 202 c 4
 224 212 182 256 140 311 c 4
 106 355 71 382 62 383 c 4
 37 388 20 401 20 413 c 4
 20 421 27 425 34 425 c 4
 75 425 74 420 112 420 c 4
 143 420 163 424 192 424 c 4
 215 424 218 420 218 411 c 4
 218 397 186 402 186 382 c 4
 186 370 202 352 216 332 c 4
 257 274 271 253 278 253 c 4
 280 253 283 255 288 261 c 4
 360 353 364 354 364 373 c 4
 364 401 318 396 318 412 c 4
 318 417 318 424 344 424 c 4
 363 424 381 423 406 423 c 4
 425 423 447 425 476 425 c 4
 485 425 494 419 494 412 c 4
 494 393 468 410 410 352 c 4
 361 303 294 233 294 226 c 4
 294 219 301 221 386 117 c 4
 410 88 447 37 496 23 c 4
 505 21 508 20 508 11 c 4
 508 2 505 -1 474 -1 c 4
 460 -1 440 1 414 1 c 4
 391 1 375 -1 356 -1 c 6
 344 -1 l 6
 321 -1 310 0 310 9 c 4
 310 21 346 17 346 38 c 4
 346 68 291 117 258 166 c 4
 254 172 251 175 248 175 c 4
 245 175 240 167 238 165 c 4
 196 112 160 84 160 54 c 4
 160 9 208 36 208 8 c 4
 208 2 207 -1 166 -1 c 4
 148 -1 136 2 114 2 c 4
 94 2 78 -2 62 -2 c 4
 35 -2 18 1 18 14 c 4
522 381 m 4
 522 397 548 398 604 421 c 4
 640 436 638 439 654 439 c 4
 660 439 668 434 668 420 c 4
 668 408 662 389 662 372 c 6
 662 98 l 6
 662 33 693 27 718 25 c 4
 735 24 748 24 748 10 c 4
 748 4 748 -7 732 -7 c 4
 728 -7 721 -6 716 -6 c 4
 674 -6 684 -4 646 -4 c 4
 604 -4 591 -6 574 -6 c 4
 549 -6 534 -3 534 7 c 4
 534 14 541 23 550 26 c 4
 589 39 590 33 590 206 c 6
 590 294 l 6
 590 377 554 363 532 371 c 4
 527 373 522 377 522 381 c 4
580 590 m 4
 580 603 608 645 630 645 c 4
 653 645 676 608 676 588 c 4
 676 564 637 533 628 533 c 4
 599 533 580 574 580 590 c 4
756 381 m 4
 756 397 782 398 838 421 c 4
 874 436 872 439 888 439 c 4
 894 439 902 434 902 420 c 4
 902 408 896 389 896 372 c 6
 896 98 l 6
 896 33 927 27 952 25 c 4
 969 24 982 24 982 10 c 4
 982 4 982 -7 966 -7 c 4
 962 -7 955 -6 950 -6 c 4
 908 -6 918 -4 880 -4 c 4
 838 -4 825 -6 808 -6 c 4
 783 -6 768 -3 768 7 c 4
 768 14 775 23 784 26 c 4
 823 39 824 33 824 206 c 6
 824 294 l 6
 824 377 788 363 766 371 c 4
 761 373 756 377 756 381 c 4
814 590 m 4
 814 603 842 645 864 645 c 4
 887 645 910 608 910 588 c 4
 910 564 871 533 862 533 c 4
 833 533 814 574 814 590 c 4
EndSplineSet
EndChar
StartChar: uF206C
Encoding: 991340 991340 27
Width: 1000
VWidth: 0
Flags: MW
LayerCount: 2
Back
Fore
SplineSet
20 14 m 4
 20 26 28 19 57 41 c 4
 106 79 157 155 183 191 c 4
 185 194 186 196 186 202 c 4
 186 212 152 256 118 311 c 4
 91 355 63 382 56 383 c 4
 36 388 22 401 22 413 c 4
 22 421 27 425 33 425 c 4
 66 425 66 420 96 420 c 4
 121 420 137 424 160 424 c 4
 178 424 181 420 181 411 c 4
 181 397 155 402 155 382 c 4
 155 370 169 352 180 332 c 4
 213 274 222 253 228 253 c 4
 230 253 232 255 236 261 c 4
 294 353 297 354 297 373 c 4
 297 401 260 396 260 412 c 4
 260 417 260 424 281 424 c 4
 296 424 312 423 332 423 c 4
 347 423 364 425 387 425 c 4
 394 425 402 419 402 412 c 4
 402 393 380 410 334 352 c 4
 295 303 242 233 242 226 c 4
 242 219 247 221 315 117 c 4
 334 88 364 37 403 23 c 4
 410 21 412 20 412 11 c 4
 412 2 410 -1 385 -1 c 4
 374 -1 359 1 338 1 c 4
 320 1 306 -1 291 -1 c 6
 282 -1 l 6
 264 -1 255 0 255 9 c 4
 255 21 283 17 283 38 c 4
 283 68 238 117 212 166 c 4
 209 172 207 175 205 175 c 4
 203 175 198 167 196 165 c 4
 162 112 135 84 135 54 c 4
 135 9 172 36 172 8 c 4
 172 2 173 -1 140 -1 c 4
 126 -1 116 2 98 2 c 4
 82 2 69 -2 56 -2 c 4
 34 -2 20 1 20 14 c 4
424 381 m 4
 424 397 444 398 489 421 c 4
 518 436 516 439 529 439 c 4
 534 439 541 434 541 420 c 4
 541 408 536 389 536 372 c 6
 536 98 l 6
 536 33 561 27 581 25 c 4
 595 24 605 24 605 10 c 4
 605 4 605 -7 592 -7 c 4
 589 -7 584 -6 580 -6 c 4
 546 -6 553 -4 523 -4 c 4
 489 -4 480 -6 466 -6 c 4
 446 -6 434 -3 434 7 c 4
 434 14 439 23 446 26 c 4
 477 39 479 33 479 206 c 6
 479 294 l 6
 479 377 450 363 432 371 c 4
 428 373 424 377 424 381 c 4
470 590 m 4
 470 603 492 645 510 645 c 4
 528 645 547 608 547 588 c 4
 547 564 516 533 509 533 c 4
 486 533 470 574 470 590 c 4
612 381 m 4
 612 397 631 398 676 421 c 4
 705 436 703 439 716 439 c 4
 721 439 728 434 728 420 c 4
 728 408 724 389 724 372 c 6
 724 98 l 6
 724 33 748 27 768 25 c 4
 782 24 792 24 792 10 c 4
 792 4 792 -7 779 -7 c 4
 776 -7 771 -6 767 -6 c 4
 733 -6 740 -4 710 -4 c 4
 676 -4 667 -6 653 -6 c 4
 633 -6 621 -3 621 7 c 4
 621 14 626 23 633 26 c 4
 664 39 666 33 666 206 c 6
 666 294 l 6
 666 377 638 363 620 371 c 4
 616 373 612 377 612 381 c 4
657 590 m 4
 657 603 679 645 697 645 c 4
 715 645 734 608 734 588 c 4
 734 564 703 533 696 533 c 4
 673 533 657 574 657 590 c 4
799 381 m 4
 799 397 819 398 864 421 c 4
 893 436 891 439 904 439 c 4
 909 439 916 434 916 420 c 4
 916 408 911 389 911 372 c 6
 911 98 l 6
 911 33 936 27 956 25 c 4
 970 24 980 24 980 10 c 4
 980 4 979 -7 966 -7 c 4
 963 -7 958 -6 954 -6 c 4
 920 -6 927 -4 897 -4 c 4
 863 -4 854 -6 840 -6 c 4
 820 -6 808 -3 808 7 c 4
 808 14 813 23 820 26 c 4
 851 39 853 33 853 206 c 6
 853 294 l 6
 853 377 825 363 807 371 c 4
 803 373 799 377 799 381 c 4
844 590 m 4
 844 603 866 645 884 645 c 4
 902 645 921 608 921 588 c 4
 921 564 891 533 884 533 c 4
 861 533 844 574 844 590 c 4
EndSplineSet
EndChar
StartChar: uF206D
Encoding: 991341 991341 28
Width: 1000
VWidth: 0
Flags: MW
LayerCount: 2
Back
Fore
SplineSet
17 14 m 4
 17 26 25 19 54 41 c 4
 103 79 154 155 180 191 c 4
 182 194 183 196 183 202 c 4
 183 212 149 256 115 311 c 4
 88 355 60 382 53 383 c 4
 33 388 19 401 19 413 c 4
 19 421 24 425 30 425 c 4
 63 425 62 420 92 420 c 4
 117 420 134 424 157 424 c 4
 175 424 178 420 178 411 c 4
 178 397 152 402 152 382 c 4
 152 370 165 352 176 332 c 4
 209 274 219 253 225 253 c 4
 227 253 229 255 233 261 c 4
 291 353 294 354 294 373 c 4
 294 401 257 396 257 412 c 4
 257 417 257 424 278 424 c 4
 293 424 308 423 328 423 c 4
 343 423 361 425 384 425 c 4
 391 425 399 419 399 412 c 4
 399 393 377 410 331 352 c 4
 292 303 239 233 239 226 c 4
 239 219 244 221 312 117 c 4
 331 88 361 37 400 23 c 4
 407 21 409 20 409 11 c 4
 409 2 407 -1 382 -1 c 4
 371 -1 356 1 335 1 c 4
 317 1 303 -1 288 -1 c 6
 279 -1 l 6
 261 -1 252 0 252 9 c 4
 252 21 280 17 280 38 c 4
 280 68 235 117 209 166 c 4
 206 172 204 175 202 175 c 4
 200 175 195 167 193 165 c 4
 159 112 132 84 132 54 c 4
 132 9 169 36 169 8 c 4
 169 2 169 -1 136 -1 c 4
 122 -1 113 2 95 2 c 4
 79 2 65 -2 52 -2 c 4
 30 -2 17 1 17 14 c 4
421 381 m 4
 421 397 441 398 486 421 c 4
 515 436 513 439 526 439 c 4
 531 439 538 434 538 420 c 4
 538 408 533 389 533 372 c 6
 533 98 l 6
 533 33 558 27 578 25 c 4
 592 24 602 24 602 10 c 4
 602 4 601 -7 588 -7 c 4
 585 -7 580 -6 576 -6 c 4
 542 -6 550 -4 520 -4 c 4
 486 -4 477 -6 463 -6 c 4
 443 -6 431 -3 431 7 c 4
 431 14 436 23 443 26 c 4
 474 39 476 33 476 206 c 6
 476 294 l 6
 476 377 447 363 429 371 c 4
 425 373 421 377 421 381 c 4
467 590 m 4
 467 603 489 645 507 645 c 4
 525 645 544 608 544 588 c 4
 544 564 513 533 506 533 c 4
 483 533 467 574 467 590 c 4
596 416 m 4
 596 425 606 427 611 427 c 4
 617 427 636 423 668 423 c 4
 691 423 691 422 714 422 c 4
 724 422 736 425 745 425 c 4
 753 425 760 421 760 414 c 4
 760 398 751 397 740 397 c 4
 726 397 707 396 707 369 c 4
 707 348 727 303 762 204 c 4
 779 159 798 95 805 95 c 4
 815 95 895 329 895 360 c 4
 895 420 845 377 845 412 c 4
 845 423 854 425 870 425 c 4
 884 425 902 424 924 424 c 4
 940 424 951 425 960 425 c 4
 978 425 983 421 983 410 c 4
 983 397 969 403 952 374 c 4
 902 288 810 -14 782 -14 c 4
 766 -14 775 -13 675 264 c 4
 616 428 596 391 596 416 c 4
EndSplineSet
EndChar
StartChar: uF206E
Encoding: 991342 991342 29
Width: 1000
VWidth: 0
Flags: MW
LayerCount: 2
Back
Fore
SplineSet
14 14 m 4
 14 26 24 19 60 41 c 4
 121 79 183 155 216 191 c 4
 218 194 220 196 220 202 c 4
 220 212 178 256 136 311 c 4
 102 355 67 382 58 383 c 4
 33 388 16 401 16 413 c 4
 16 421 23 425 30 425 c 4
 71 425 70 420 108 420 c 4
 139 420 159 424 188 424 c 4
 211 424 214 420 214 411 c 4
 214 397 182 402 182 382 c 4
 182 370 198 352 212 332 c 4
 253 274 267 253 274 253 c 4
 276 253 279 255 284 261 c 4
 356 353 360 354 360 373 c 4
 360 401 314 396 314 412 c 4
 314 417 314 424 340 424 c 4
 359 424 377 423 402 423 c 4
 421 423 443 425 472 425 c 4
 481 425 490 419 490 412 c 4
 490 393 464 410 406 352 c 4
 357 303 290 233 290 226 c 4
 290 219 297 221 382 117 c 4
 406 88 443 37 492 23 c 4
 501 21 504 20 504 11 c 4
 504 2 501 -1 470 -1 c 4
 456 -1 436 1 410 1 c 4
 387 1 371 -1 352 -1 c 6
 340 -1 l 6
 317 -1 306 0 306 9 c 4
 306 21 342 17 342 38 c 4
 342 68 287 117 254 166 c 4
 250 172 247 175 244 175 c 4
 241 175 236 167 234 165 c 4
 192 112 156 84 156 54 c 4
 156 9 204 36 204 8 c 4
 204 2 203 -1 162 -1 c 4
 144 -1 132 2 110 2 c 4
 90 2 74 -2 58 -2 c 4
 31 -2 14 1 14 14 c 4
502 416 m 4
 502 425 516 427 522 427 c 4
 529 427 552 423 592 423 c 4
 621 423 621 422 650 422 c 4
 663 422 679 425 690 425 c 4
 700 425 708 421 708 414 c 4
 708 398 698 397 684 397 c 4
 666 397 642 396 642 369 c 4
 642 348 666 303 710 204 c 4
 731 159 755 95 764 95 c 4
 777 95 876 329 876 360 c 4
 876 420 814 377 814 412 c 4
 814 423 826 425 846 425 c 4
 863 425 885 424 912 424 c 4
 932 424 947 425 958 425 c 4
 981 425 986 421 986 410 c 4
 986 397 969 403 948 374 c 4
 886 288 771 -14 736 -14 c 4
 716 -14 727 -13 602 264 c 4
 528 428 502 391 502 416 c 4
EndSplineSet
EndChar
StartChar: uF206F
Encoding: 991343 991343 79
Width: 1000
Flags: MW
LayerCount: 2
Back
Fore
SplineSet
112 388 m 0
 112 409 157 404 200 423 c 0
 221 432 227 438 244 438 c 0
 253 438 256 425 256 409 c 0
 256 397 251 375 251 367 c 0
 251 361 251 355 257 355 c 0
 264 355 290 427 392 427 c 0
 500 427 510 348 520 348 c 0
 527 348 575 430 657 430 c 0
 761 430 808 357 816 280 c 0
 821 231 822 188 822 153 c 2
 822 121 l 2
 822 68 824 38 850 30 c 0
 858 28 888 28 888 11 c 0
 888 -4 866 -4 855 -4 c 0
 842 -4 809 0 789 0 c 0
 761 0 738 -4 717 -4 c 0
 706 -4 693 -2 693 6 c 0
 693 26 731 23 739 42 c 0
 742 50 743 68 743 88 c 2
 743 104 l 2
 743 325 737 313 705 352 c 0
 688 372 660 383 630 383 c 0
 580 383 527 338 527 329 c 0
 527 316 533 304 533 202 c 2
 533 117 l 2
 533 62 541 31 602 22 c 0
 617 20 620 9 620 6 c 0
 620 -5 607 -5 601 -5 c 0
 584 -5 557 0 528 0 c 0
 510 0 446 -5 437 -5 c 0
 430 -5 415 -2 415 8 c 0
 415 17 418 20 438 28 c 0
 445 30 461 32 461 90 c 0
 461 104 462 91 462 199 c 0
 462 262 460 256 460 262 c 0
 460 331 423 379 358 379 c 0
 302 379 250 345 250 306 c 2
 250 292 l 1
 250 104 l 2
 250 0 334 35 334 12 c 0
 334 1 334 -3 313 -3 c 0
 298 -3 272 0 229 0 c 0
 189 0 165 -3 150 -3 c 0
 127 -3 126 5 126 12 c 0
 126 33 158 13 172 56 c 0
 178 77 180 137 180 208 c 0
 180 247 179 289 179 330 c 0
 179 400 112 356 112 388 c 0
EndSplineSet
EndChar
StartChar: uF2071
Encoding: 991345 991345 81
Width: 1000
VWidth: 0
Flags: MW
LayerCount: 2
Back
Fore
SplineSet
108 611 m 4
 108 653 146 713 202 713 c 4
 268 713 292 643 292 606 c 4
 292 533 218 504 201 504 c 4
 118 504 108 581 108 611 c 4
147 610 m 4
 147 573 169 548 201 548 c 4
 210 548 254 558 254 608 c 4
 254 630 246 669 201 669 c 4
 176 669 147 644 147 610 c 4
337 697 m 4
 337 700 340 714 361 714 c 6
 386 714 l 6
 449 714 446 708 585 708 c 4
 707 708 702 713 794 713 c 4
 800 713 810 710 810 689 c 4
 810 669 803 638 797 587 c 4
 796 575 790 567 783 567 c 4
 776 567 770 573 770 587 c 4
 770 622 759 654 728 656 c 4
 647 663 595 668 562 668 c 4
 499 668 503 651 501 604 c 4
 499 568 498 483 498 437 c 4
 498 419 498 388 515 387 c 4
 523 387 532 386 538 386 c 4
 552 386 562 387 577 387 c 6
 606 387 l 6
 685 387 694 392 711 405 c 4
 717 409 721 414 724 419 c 4
 736 439 728 459 746 459 c 4
 757 459 758 455 758 443 c 4
 758 425 750 395 750 360 c 4
 750 326 756 297 756 278 c 4
 756 254 751 253 744 253 c 4
 730 253 726 264 724 278 c 4
 721 296 721 318 704 326 c 4
 684 336 619 340 615 340 c 6
 535 340 l 6
 516 340 497 337 497 321 c 4
 497 264 495 233 495 177 c 4
 495 163 494 150 494 137 c 4
 494 111 502 33 568 33 c 4
 589 33 596 22 596 15 c 4
 596 10 591 -4 567 -4 c 4
 539 -4 502 4 478 4 c 4
 427 4 412 -2 367 -2 c 4
 358 -2 348 -2 348 9 c 4
 348 27 350 25 388 40 c 4
 428 55 422 121 424 357 c 4
 424 412 426 469 426 531 c 6
 426 589 l 6
 426 621 423 657 383 677 c 4
 363 688 337 676 337 697 c 4
EndSplineSet
EndChar
StartChar: uF2072
Encoding: 991346 991346 82
Width: 1000
VWidth: 0
Flags: MW
LayerCount: 2
Back
Fore
SplineSet
16 580 m 4
 16 609 21 658 24 683 c 4
 26 705 25 718 49 718 c 4
 105 718 97 710 273 710 c 4
 391 710 476 712 518 715 c 4
 520 715 521 716 523 716 c 4
 537 716 538 702 538 699 c 4
 538 687 543 626 543 618 c 4
 543 583 540 580 530 580 c 4
 528 580 524 581 522 592 c 4
 512 639 508 658 441 658 c 6
 338 658 l 6
 313 658 310 654 310 594 c 6
 310 545 l 6
 310 312 308 270 308 179 c 4
 308 153 307 132 307 114 c 4
 307 87 308 69 318 57 c 4
 348 20 385 39 385 13 c 4
 385 -3 380 -4 366 -4 c 4
 345 -4 304 4 278 4 c 4
 257 4 221 -3 196 -3 c 4
 179 -3 167 1 167 13 c 4
 167 34 188 30 208 36 c 4
 222 40 237 49 239 76 c 4
 245 146 246 412 246 454 c 4
 246 560 246 633 246 633 c 6
 246 658 243 661 185 661 c 4
 67 661 66 650 57 636 c 4
 36 600 45 563 25 563 c 4
 20 563 16 566 16 580 c 4
535 694 m 4
 535 700 537 709 542 709 c 4
 550 709 550 708 574 708 c 4
 603 708 676 709 690 709 c 4
 724 709 750 712 778 712 c 4
 869 712 947 656 947 545 c 4
 947 440 867 402 867 396 c 4
 867 384 997 379 997 208 c 4
 997 151 966 75 930 44 c 4
 881 1 846 -8 792 -8 c 4
 737 -8 670 3 650 3 c 4
 631 3 608 -1 581 -1 c 6
 570 -1 l 6
 562 -1 553 1 553 14 c 4
 553 18 554 28 562 28 c 4
 571 28 574 29 580 29 c 4
 591 29 614 46 616 122 c 4
 618 187 619 322 619 434 c 6
 619 604 l 6
 619 613 615 682 549 682 c 4
 544 682 535 682 535 694 c 4
679 92 m 4
 679 35 729 32 757 32 c 6
 775 32 l 6
 799 32 823 33 844 37 c 4
 893 47 930 108 930 184 c 4
 930 356 800 364 774 364 c 4
 700 364 707 366 700 366 c 4
 683 366 680 364 680 204 c 6
 680 196 l 6
 680 113 679 102 679 92 c 4
684 545 m 6
 684 413 686 402 694 401 c 4
 709 399 713 398 735 398 c 6
 786 398 l 6
 857 398 886 452 886 516 c 4
 886 576 839 677 725 677 c 4
 694 677 684 665 684 574 c 6
 684 545 l 6
EndSplineSet
EndChar
StartChar: uF2073
Encoding: 991347 991347 83
Width: 1000
VWidth: 0
Flags: MW
LayerCount: 2
Back
Fore
SplineSet
10 697 m 4
 10 700 12 714 23 714 c 6
 36 714 l 6
 70 714 70 708 145 708 c 4
 211 708 208 713 258 713 c 4
 261 713 267 710 267 689 c 4
 267 669 263 638 260 587 c 4
 260 575 256 567 252 567 c 4
 248 567 245 573 245 587 c 4
 245 622 239 654 222 656 c 4
 178 663 150 668 132 668 c 4
 98 668 100 651 99 604 c 4
 98 568 97 483 97 437 c 4
 97 419 97 388 106 387 c 4
 110 387 116 386 119 386 c 4
 126 386 132 387 140 387 c 6
 156 387 l 6
 199 387 204 392 213 405 c 4
 216 409 219 414 220 419 c 4
 226 439 222 459 232 459 c 4
 238 459 239 455 239 443 c 4
 239 425 234 395 234 360 c 4
 234 326 238 297 238 278 c 4
 238 254 235 253 231 253 c 4
 224 253 221 264 220 278 c 4
 219 296 218 318 209 326 c 4
 198 336 163 340 161 340 c 6
 117 340 l 6
 107 340 97 337 97 321 c 4
 97 264 96 233 96 177 c 4
 96 163 95 150 95 137 c 4
 95 111 99 33 135 33 c 4
 146 33 150 22 150 15 c 4
 150 10 148 -4 135 -4 c 4
 120 -4 99 4 86 4 c 4
 59 4 50 -2 26 -2 c 4
 21 -2 16 -2 16 9 c 4
 16 27 17 25 37 40 c 4
 58 55 56 121 57 357 c 4
 57 412 58 469 58 531 c 6
 58 589 l 6
 58 621 56 657 35 677 c 4
 24 688 10 676 10 697 c 4
262 8 m 4
 262 18 265 24 269 27 c 4
 298 49 295 69 443 701 c 4
 447 721 450 724 458 724 c 4
 468 724 462 722 494 563 c 4
 517 447 588 120 592 104 c 4
 617 3 647 49 647 13 c 4
 647 8 646 -2 634 -2 c 4
 623 -2 603 4 589 4 c 4
 571 4 556 0 542 0 c 4
 521 0 518 2 518 14 c 4
 518 36 543 23 543 61 c 4
 543 93 520 213 510 251 c 4
 508 259 505 268 489 268 c 4
 479 268 461 266 429 266 c 6
 403 266 l 6
 372 266 369 261 364 237 c 4
 346 161 332 109 332 81 c 4
 332 12 369 44 369 13 c 4
 369 5 369 -1 361 -1 c 4
 353 -1 336 0 319 0 c 4
 300 0 287 -4 276 -4 c 4
 267 -4 262 -2 262 8 c 4
387 338 m 4
 387 320 392 319 413 319 c 6
 428 319 l 6
 450 319 475 320 475 320 c 6
 488 320 495 325 495 336 c 4
 495 348 448 570 439 570 c 4
 433 570 387 350 387 338 c 4
642 701 m 4
 642 712 644 714 663 714 c 4
 684 714 679 710 708 710 c 4
 713 710 756 712 760 712 c 4
 767 712 771 712 771 703 c 4
 771 675 749 697 749 664 c 4
 749 643 767 593 776 567 c 4
 807 473 821 428 826 428 c 4
 829 428 832 434 837 450 c 4
 857 510 903 632 903 655 c 4
 903 702 876 677 876 704 c 4
 876 712 879 714 884 714 c 4
 905 714 907 710 924 710 c 4
 971 710 960 714 971 714 c 4
 975 714 979 712 979 704 c 4
 979 682 963 691 942 661 c 4
 934 649 925 630 915 602 c 4
 884 519 838 396 838 392 c 4
 838 380 845 369 901 205 c 4
 917 157 952 63 966 40 c 4
 970 32 997 32 997 13 c 4
 997 5 996 -1 981 -1 c 4
 965 -1 933 6 928 6 c 4
 896 6 883 0 877 0 c 4
 873 0 870 2 870 13 c 4
 870 39 896 21 896 56 c 4
 896 80 866 159 818 303 c 4
 815 313 811 320 810 320 c 4
 808 320 804 307 799 289 c 4
 767 189 726 100 726 55 c 4
 726 46 728 28 753 28 c 4
 756 28 759 24 759 11 c 4
 759 1 753 0 743 0 c 4
 734 0 703 3 699 3 c 4
 690 3 669 -1 659 -1 c 4
 650 -1 645 0 645 18 c 4
 645 39 661 20 680 51 c 4
 705 91 735 180 761 253 c 4
 781 310 798 349 798 356 c 4
 798 365 781 405 730 551 c 4
 714 598 685 671 662 681 c 4
 656 684 642 684 642 701 c 4
EndSplineSet
EndChar
StartChar: uF2690
Encoding: 992912 992912 84
Width: 1000
Flags: MW
LayerCount: 2
Back
Fore
SplineSet
292 323 m 0
 292 566 402 712 529 712 c 0
 667 712 735 554 735 362 c 0
 735 161 660 -14 509 -14 c 0
 340 -14 292 151 292 323 c 0
352 390 m 0
 352 219 421 27 535 27 c 0
 632 27 680 165 680 311 c 0
 680 476 619 652 500 652 c 0
 396 652 352 528 352 390 c 0
EndSplineSet
EndChar
StartChar: uF2691
Encoding: 992913 992913 85
Width: 1000
Flags: MW
LayerCount: 2
Back
Fore
SplineSet
386 611 m 0
 386 622 398 631 415 638 c 0
 444 650 453 644 506 672 c 0
 541 691 557 720 572 720 c 0
 587 720 588 705 588 697 c 0
 588 689 579 657 579 646 c 0
 577 604 573 517 573 314 c 0
 573 213 570 154 570 118 c 0
 570 -16 688 59 688 15 c 0
 688 2 672 1 655 1 c 2
 537 1 l 2
 495 1 448 -2 421 -2 c 0
 403 -2 393 2 393 14 c 0
 393 29 409 33 425 33 c 2
 436 33 l 2
 487 33 487 68 487 73 c 0
 495 135 498 245 498 346 c 2
 498 549 l 2
 498 586 494 611 464 611 c 0
 437 611 409 596 397 596 c 0
 395 596 386 600 386 611 c 0
EndSplineSet
EndChar
StartChar: uF2692
Encoding: 992914 992914 86
Width: 1000
Flags: MW
LayerCount: 2
Back
Fore
SplineSet
316 13 m 2
 316 16 l 2
 316 47 421 113 539 369 c 0
 565 427 583 496 583 555 c 0
 583 610 543 651 479 651 c 0
 381 651 353 587 333 587 c 0
 328 587 325 594 325 601 c 0
 325 611 382 719 512 719 c 0
 586 719 667 674 667 578 c 0
 667 398 423 110 423 90 c 0
 423 80 468 78 497 78 c 0
 655 78 630 80 655 92 c 0
 684 106 706 147 720 147 c 0
 727 147 731 142 731 137 c 0
 731 129 661 17 661 17 c 2
 651 3 641 0 632 0 c 0
 518 0 513 2 466 2 c 0
 442 2 376 0 349 0 c 0
 317 0 316 5 316 13 c 2
EndSplineSet
EndChar
StartChar: uF2693
Encoding: 992915 992915 87
Width: 1000
Flags: MW
LayerCount: 2
Back
Fore
SplineSet
310 47 m 0
 310 51 312 63 331 63 c 0
 346 63 367 16 455 16 c 0
 585 16 634 150 634 218 c 0
 634 291 603 365 493 365 c 0
 473 365 465 361 462 361 c 0
 451 361 448 370 448 376 c 0
 448 389 462 385 531 438 c 0
 571 469 594 515 594 556 c 0
 594 607 555 651 502 651 c 0
 436 651 387 591 368 591 c 0
 360 591 360 595 360 600 c 0
 360 648 457 710 526 710 c 0
 598 710 671 674 671 593 c 0
 671 521 632 487 590 445 c 0
 581 436 575 431 575 426 c 0
 575 419 614 423 654 391 c 0
 692 361 718 321 718 258 c 0
 718 96 600 -22 466 -22 c 0
 391 -22 310 14 310 47 c 0
EndSplineSet
EndChar
StartChar: uF2694
Encoding: 992916 992916 88
Width: 1000
Flags: MW
LayerCount: 2
Back
Fore
SplineSet
292 224 m 0
 292 249 303 263 558 617 c 0
 588 659 616 710 637 710 c 0
 646 710 654 704 654 690 c 0
 654 684 642 353 642 305 c 0
 642 284 642 280 655 280 c 0
 724 280 720 312 742 312 c 0
 745 312 754 310 754 298 c 0
 754 285 748 272 743 254 c 0
 741 246 738 208 717 208 c 0
 701 208 672 211 658 211 c 0
 645 211 640 205 640 191 c 0
 640 155 642 121 642 58 c 0
 642 -22 643 -3 643 -30 c 0
 643 -80 642 -72 606 -83 c 0
 592 -87 577 -89 573 -89 c 0
 557 -89 551 -70 551 -62 c 0
 551 -52 568 -20 568 204 c 0
 568 210 563 210 557 210 c 2
 430 210 l 2
 389 210 352 208 321 208 c 0
 301 208 292 209 292 224 c 0
380 286 m 0
 380 278 392 277 408 277 c 2
 540 277 l 2
 568 277 569 281 569 298 c 0
 569 306 573 467 573 530 c 0
 573 549 571 559 568 559 c 0
 561 559 380 310 380 286 c 0
EndSplineSet
EndChar
StartChar: uF2695
Encoding: 992917 992917 89
Width: 1000
Flags: MW
LayerCount: 2
Back
Fore
SplineSet
315 16 m 0
 315 26 322 31 329 31 c 0
 349 31 362 8 441 8 c 0
 556 8 631 108 631 223 c 0
 631 304 585 375 481 375 c 0
 417 375 409 366 393 366 c 0
 374 366 370 384 370 391 c 0
 370 415 394 521 413 660 c 0
 415 674 423 686 445 686 c 0
 634 688 641 685 661 700 c 0
 678 713 682 726 694 726 c 0
 701 726 706 720 706 715 c 0
 706 711 704 705 702 700 c 0
 662 619 662 612 640 612 c 0
 633 612 600 613 574 613 c 0
 499 613 447 603 444 597 c 0
 435 576 420 480 420 457 c 0
 420 449 424 442 427 442 c 0
 430 442 446 450 512 450 c 0
 574 450 630 425 661 390 c 0
 697 350 713 298 713 260 c 0
 713 64 573 -29 455 -29 c 0
 406 -29 315 -17 315 16 c 0
EndSplineSet
EndChar
StartChar: uF2696
Encoding: 992918 992918 90
Width: 1000
Flags: MW
LayerCount: 2
Back
Fore
SplineSet
297 249 m 0
 297 593 624 723 691 723 c 0
 704 723 708 713 708 706 c 0
 708 678 647 704 539 612 c 0
 441 529 399 421 399 388 c 0
 399 382 400 378 403 378 c 0
 413 378 446 448 549 448 c 0
 650 448 730 360 730 229 c 0
 730 88 637 -21 520 -21 c 0
 499 -21 449 -18 407 15 c 0
 364 49 297 119 297 249 c 0
380 240 m 0
 380 182 412 20 543 20 c 0
 623 20 660 100 660 186 c 0
 660 290 606 403 506 403 c 0
 464 403 397 364 387 313 c 0
 383 291 380 272 380 240 c 0
EndSplineSet
EndChar
StartChar: uF2697
Encoding: 992919 992919 91
Width: 1000
Flags: MW
LayerCount: 2
Back
Fore
SplineSet
327 562 m 0
 327 600 344 642 350 679 c 0
 351 688 361 691 366 691 c 0
 398 691 399 687 528 687 c 2
 559 687 l 2
 648 687 656 689 674 689 c 0
 689 689 700 680 700 668 c 0
 700 524 529 232 529 72 c 0
 529 -9 550 -25 550 -42 c 0
 550 -66 496 -73 488 -73 c 0
 461 -73 438 -64 438 15 c 0
 438 170 581 392 624 512 c 0
 639 554 647 587 647 602 c 0
 647 606 640 615 627 615 c 0
 622 615 615 616 608 616 c 0
 596 616 537 614 490 614 c 0
 472 614 474 615 460 615 c 0
 385 615 369 589 359 556 c 0
 355 542 349 522 340 522 c 0
 331 522 327 539 327 562 c 0
EndSplineSet
EndChar
StartChar: uF2698
Encoding: 992920 992920 92
Width: 1000
Flags: MW
LayerCount: 2
Back
Fore
SplineSet
301 182 m 0
 301 329 428 368 428 374 c 0
 428 384 332 411 332 524 c 0
 332 644 424 710 524 710 c 0
 667 710 702 615 702 549 c 0
 702 410 584 406 584 398 c 0
 584 385 726 348 726 197 c 0
 726 114 683 -20 510 -20 c 0
 396 -20 301 49 301 182 c 0
358 211 m 0
 358 87 447 18 529 18 c 0
 598 18 661 68 661 174 c 0
 661 215 638 255 613 276 c 0
 553 327 480 352 461 352 c 0
 424 352 358 292 358 211 c 0
396 549 m 0
 396 442 532 418 550 418 c 0
 588 418 644 453 644 543 c 0
 644 585 614 672 518 672 c 0
 466 672 396 648 396 549 c 0
EndSplineSet
EndChar
StartChar: uF2699
Encoding: 992921 992921 93
Width: 1000
Flags: MW
LayerCount: 2
Back
Fore
SplineSet
307 464 m 0
 307 593 389 710 519 710 c 0
 651 710 740 588 740 441 c 0
 740 312 681 157 556 62 c 0
 477 2 388 -28 346 -28 c 0
 331 -28 330 -20 330 -15 c 0
 330 -11 330 -4 345 -1 c 0
 403 11 476 54 539 119 c 0
 589 171 629 273 629 292 c 0
 629 297 627 298 625 298 c 0
 616 298 571 241 501 241 c 0
 372 241 307 351 307 464 c 0
381 515 m 0
 381 411 441 289 527 289 c 0
 620 289 654 366 654 451 c 0
 654 544 600 666 502 666 c 0
 418 666 381 595 381 515 c 0
EndSplineSet
EndChar
StartChar: uF269A
Encoding: 992922 992922 94
Width: 1000
Flags: MW
LayerCount: 2
Back
Fore
SplineSet
278 323 m 0
 278 566 389 712 516 712 c 0
 549 712 577 703 602 687 c 1
 609 705 612 716 612 717 c 0
 617 732 624 735 642 735 c 0
 651 735 662 733 662 723 c 0
 662 714 653 692 648 679 c 2
 640 654 l 1
 695 591 722 483 722 362 c 0
 722 161 647 -14 496 -14 c 0
 460 -14 430 -6 404 7 c 1
 394 -17 l 1
 394 -17 377 -48 362 -48 c 0
 350 -48 336 -48 336 -35 c 0
 336 -26 348 0 356 22 c 24
 358 28 358 28 362 38 c 1
 300 100 278 210 278 323 c 0
338 390 m 0
 338 298 358 199 394 128 c 1
 443 260 526 483 574 613 c 1
 550 637 520 652 486 652 c 0
 382 652 338 528 338 390 c 0
428 77 m 1
 454 46 486 27 522 27 c 0
 619 27 666 165 666 311 c 0
 666 405 647 501 608 568 c 1
 428 77 l 1
EndSplineSet
EndChar
StartChar: uF269B
Encoding: 992923 992923 95
Width: 1000
VWidth: 0
Flags: MW
LayerCount: 2
Back
Fore
SplineSet
-5 695 m 4
 -5 702 -1 710 20 710 c 4
 45 710 71 706 121 706 c 4
 159 706 144 708 200 708 c 4
 206 708 224 707 224 694 c 4
 224 685 209 679 183 667 c 4
 158 656 154 591 154 552 c 4
 154 317 151 274 151 182 c 4
 151 121 157 89 174 61 c 4
 193 32 208 30 217 30 c 4
 220 30 231 29 234 29 c 4
 243 29 253 23 253 18 c 4
 253 2 246 0 231 0 c 4
 183 0 176 4 146 4 c 4
 99 4 79 -1 47 -1 c 4
 10 -1 7 6 7 14 c 4
 7 41 60 13 73 78 c 4
 75 86 83 277 83 345 c 6
 83 402 l 6
 83 431 84 469 84 510 c 6
 84 556 l 6
 84 582 84 607 81 629 c 4
 77 665 38 679 13 680 c 4
 -5 681 -5 690 -5 695 c 4
243 695 m 4
 243 702 247 710 268 710 c 4
 293 710 320 706 370 706 c 4
 408 706 392 708 448 708 c 4
 454 708 472 707 472 694 c 4
 472 685 457 679 431 667 c 4
 406 656 403 591 403 552 c 4
 403 317 400 274 400 182 c 4
 400 121 405 89 422 61 c 4
 441 32 456 30 465 30 c 4
 468 30 480 29 483 29 c 4
 492 29 502 23 502 18 c 4
 502 2 495 0 480 0 c 4
 432 0 425 4 395 4 c 4
 348 4 328 -1 296 -1 c 4
 259 -1 256 6 256 14 c 4
 256 41 309 13 322 78 c 4
 324 86 332 277 332 345 c 6
 332 402 l 6
 332 431 333 469 333 510 c 6
 333 556 l 6
 333 582 332 607 329 629 c 4
 325 665 287 679 262 680 c 4
 244 681 243 690 243 695 c 4
492 695 m 4
 492 702 496 710 517 710 c 4
 542 710 568 706 618 706 c 4
 656 706 641 708 697 708 c 4
 703 708 721 707 721 694 c 4
 721 685 706 679 680 667 c 4
 655 656 651 591 651 552 c 4
 651 317 649 274 649 182 c 4
 649 121 654 89 671 61 c 4
 690 32 705 30 714 30 c 4
 717 30 729 29 732 29 c 4
 741 29 751 23 751 18 c 4
 751 2 743 0 728 0 c 4
 680 0 673 4 643 4 c 4
 596 4 577 -1 545 -1 c 4
 508 -1 505 6 505 14 c 4
 505 41 558 13 571 78 c 4
 573 86 581 277 581 345 c 6
 581 402 l 6
 581 431 582 469 582 510 c 6
 582 556 l 6
 582 582 581 607 578 629 c 4
 574 665 536 679 511 680 c 4
 493 681 492 690 492 695 c 4
741 695 m 4
 741 702 745 710 766 710 c 4
 791 710 817 706 867 706 c 4
 905 706 890 708 946 708 c 4
 952 708 970 707 970 694 c 4
 970 685 955 679 929 667 c 4
 904 656 900 591 900 552 c 4
 900 317 897 274 897 182 c 4
 897 121 903 89 920 61 c 4
 939 32 954 30 963 30 c 4
 966 30 978 29 981 29 c 4
 990 29 999 23 999 18 c 4
 999 2 992 0 977 0 c 4
 929 0 922 4 892 4 c 4
 845 4 826 -1 794 -1 c 4
 757 -1 753 6 753 14 c 4
 753 41 807 13 820 78 c 4
 822 86 829 277 829 345 c 6
 829 402 l 6
 829 431 830 469 830 510 c 6
 830 556 l 6
 830 582 830 607 827 629 c 4
 823 665 785 679 760 680 c 4
 742 681 741 690 741 695 c 4
EndSplineSet
EndChar
StartChar: uF2E46
Encoding: 994886 994886 96
Width: 1000
VWidth: 0
Flags: MW
LayerCount: 2
Back
Fore
SplineSet
8 8 m 4
 8 18 12 24 17 27 c 4
 52 49 48 69 226 701 c 4
 231 721 234 724 244 724 c 4
 257 724 249 722 287 563 c 4
 315 447 399 120 404 104 c 4
 434 3 471 49 471 13 c 4
 471 8 470 -2 455 -2 c 4
 441 -2 418 4 401 4 c 4
 379 4 362 0 345 0 c 4
 320 0 316 2 316 14 c 4
 316 36 346 23 346 61 c 4
 346 93 319 213 306 251 c 4
 304 259 301 268 281 268 c 4
 268 268 248 266 209 266 c 6
 177 266 l 6
 140 266 138 261 131 237 c 4
 109 161 92 109 92 81 c 4
 92 12 137 44 137 13 c 4
 137 5 137 -1 127 -1 c 4
 117 -1 98 0 77 0 c 4
 54 0 38 -4 25 -4 c 4
 14 -4 8 -2 8 8 c 4
158 338 m 4
 158 320 164 319 189 319 c 6
 208 319 l 6
 234 319 265 320 265 320 c 6
 281 320 288 325 288 336 c 4
 288 348 232 570 221 570 c 4
 213 570 158 350 158 338 c 4
465 695 m 4
 465 702 467 710 476 710 c 4
 483 710 502 706 507 706 c 4
 523 706 541 708 552 708 c 4
 559 708 565 702 567 694 c 4
 623 490 720 137 728 137 c 4
 735 137 740 169 747 192 c 6
 825 458 l 6
 889 679 883 671 887 683 c 4
 891 696 888 710 909 710 c 4
 935 710 923 708 961 708 c 4
 965 708 971 708 971 695 c 4
 971 683 968 677 951 673 c 4
 932 669 924 651 924 564 c 4
 924 329 932 274 932 182 c 4
 932 44 942 27 981 27 c 4
 987 27 992 18 992 13 c 4
 992 -3 989 -3 979 -3 c 4
 947 -3 938 1 918 1 c 4
 887 1 877 -4 855 -4 c 4
 845 -4 845 4 845 10 c 4
 845 39 874 7 884 75 c 4
 885 85 886 109 886 139 c 4
 886 252 878 466 878 469 c 4
 878 497 875 512 872 512 c 4
 867 512 860 485 849 449 c 6
 765 168 l 6
 719 13 723 12 716 12 c 4
 704 12 700 47 683 106 c 4
 570 488 572 489 567 489 c 4
 564 489 562 479 562 449 c 4
 561 303 557 261 557 185 c 6
 557 140 l 6
 557 87 557 34 603 26 c 4
 607 26 611 20 611 15 c 4
 611 -1 609 -3 602 -3 c 4
 582 -3 548 1 540 1 c 4
 533 1 517 -2 491 -2 c 4
 483 -2 478 -1 478 14 c 4
 478 41 511 1 524 90 c 4
 528 120 535 397 535 489 c 4
 535 618 526 659 473 680 c 4
 465 683 465 690 465 695 c 4
EndSplineSet
EndChar
StartChar: uF2E47
Encoding: 994887 994887 97
Width: 1000
VWidth: 0
Flags: MW
LayerCount: 2
Back
Fore
SplineSet
14 695 m 4
 14 702 18 708 35 708 c 4
 55 708 76 706 116 706 c 4
 147 706 128 708 178 708 c 4
 183 708 191 707 191 695 c 4
 191 685 177 683 165 674 c 4
 146 659 143 591 143 552 c 4
 143 462 141 417 141 396 c 4
 141 378 142 375 147 375 c 4
 155 375 362 607 362 655 c 4
 362 677 338 679 326 683 c 4
 320 685 318 694 318 697 c 4
 318 708 324 708 329 708 c 4
 333 708 339 707 347 707 c 4
 353 707 372 705 391 705 c 4
 394 705 480 708 480 708 c 6
 490 708 495 705 495 695 c 4
 495 679 478 681 453 666 c 4
 442 660 433 650 417 636 c 4
 404 625 422 642 210 396 c 4
 204 390 202 382 202 382 c 6
 202 376 206 371 210 366 c 4
 416 84 439 42 484 32 c 4
 499 29 509 28 509 14 c 4
 509 2 507 1 467 1 c 6
 397 1 l 6
 378 1 388 4 327 91 c 4
 162 323 164 324 152 324 c 4
 143 324 142 309 142 297 c 4
 142 295 143 276 143 220 c 4
 143 159 143 89 154 62 c 4
 167 31 195 30 202 30 c 4
 204 30 206 29 208 29 c 4
 215 29 223 23 223 18 c 4
 223 2 217 0 205 0 c 4
 166 0 160 4 136 4 c 4
 98 4 83 -1 57 -1 c 4
 33 -1 31 4 31 10 c 6
 31 14 l 6
 31 30 57 22 71 42 c 4
 86 63 86 148 86 268 c 6
 86 402 l 6
 86 431 84 469 84 510 c 6
 84 556 l 6
 84 582 84 607 82 629 c 4
 79 664 50 679 30 680 c 4
 16 681 14 690 14 695 c 4
501 695 m 4
 501 702 504 708 521 708 c 4
 541 708 563 706 603 706 c 4
 634 706 615 708 665 708 c 4
 670 708 677 707 677 695 c 4
 677 685 664 683 652 674 c 4
 633 659 630 591 630 552 c 4
 630 462 627 417 627 396 c 4
 627 378 629 375 634 375 c 4
 642 375 848 607 848 655 c 4
 848 677 824 679 812 683 c 4
 806 685 804 694 804 697 c 4
 804 708 811 708 816 708 c 4
 820 708 826 707 834 707 c 4
 840 707 858 705 877 705 c 4
 880 705 967 708 967 708 c 6
 977 708 981 705 981 695 c 4
 981 679 964 681 939 666 c 4
 928 660 920 650 904 636 c 4
 891 625 909 642 697 396 c 4
 691 390 689 382 689 382 c 6
 689 376 693 371 697 366 c 4
 903 84 926 42 971 32 c 4
 986 29 996 28 996 14 c 4
 996 2 994 1 954 1 c 6
 884 1 l 6
 865 1 875 4 814 91 c 4
 649 323 651 324 639 324 c 4
 630 324 629 309 629 297 c 4
 629 295 630 276 630 220 c 4
 630 159 629 89 640 62 c 4
 653 31 682 30 689 30 c 4
 691 30 693 29 695 29 c 4
 702 29 710 23 710 18 c 4
 710 2 704 0 692 0 c 4
 653 0 647 4 623 4 c 4
 585 4 570 -1 544 -1 c 4
 520 -1 518 4 518 10 c 6
 518 14 l 6
 518 30 543 22 557 42 c 4
 572 63 573 148 573 268 c 6
 573 402 l 6
 573 431 571 469 571 510 c 6
 571 556 l 6
 571 582 571 607 569 629 c 4
 566 664 536 679 516 680 c 4
 502 681 501 690 501 695 c 4
EndSplineSet
EndChar
StartChar: uF2E48
Encoding: 994888 994888 98
Width: 1000
VWidth: 0
Flags: MW
LayerCount: 2
Back
Fore
SplineSet
16 691 m 4
 16 698 24 708 36 708 c 4
 45 708 59 707 66 707 c 4
 87 707 90 709 105 709 c 4
 115 709 131 700 133 692 c 4
 136 684 160 655 182 618 c 4
 264 484 422 259 471 191 c 4
 493 160 501 146 507 146 c 4
 514 146 515 176 515 208 c 6
 515 325 l 6
 515 478 514 509 514 530 c 6
 514 537 l 6
 514 677 470 663 437 676 c 4
 426 680 421 687 421 693 c 4
 421 701 423 708 436 708 c 4
 446 708 503 707 512 707 c 4
 545 707 568 709 583 709 c 4
 600 709 607 706 607 692 c 4
 607 681 581 673 579 672 c 4
 572 667 553 643 553 559 c 6
 553 521 l 6
 553 380 545 125 545 26 c 6
 545 6 l 6
 545 -7 543 -17 533 -17 c 4
 528 -17 523 -13 521 -10 c 4
 169 503 157 520 149 520 c 4
 143 520 141 493 141 452 c 4
 141 290 134 176 134 128 c 4
 134 -4 212 46 212 13 c 4
 212 -3 209 -4 200 -4 c 4
 177 -4 184 -2 114 -2 c 4
 97 -2 76 -4 47 -4 c 4
 37 -4 29 -3 29 12 c 4
 29 38 69 6 88 88 c 4
 95 121 107 426 107 499 c 4
 107 613 83 668 26 676 c 4
 16 677 16 686 16 691 c 4
626 203 m 4
 626 316 688 431 813 431 c 4
 906 431 998 355 998 209 c 4
 998 59 903 -18 808 -18 c 4
 686 -18 626 92 626 203 c 4
688 237 m 4
 688 91 763 12 831 12 c 4
 887 12 939 66 939 179 c 4
 939 285 892 404 794 404 c 4
 748 404 688 361 688 237 c 4
EndSplineSet
EndChar
StartChar: uF2E49
Encoding: 994889 994889 99
Width: 1000
VWidth: 0
Flags: MW
LayerCount: 2
Back
Fore
SplineSet
15 694 m 4
 15 702 21 710 33 710 c 4
 41 710 39 711 62 711 c 4
 71 711 94 708 108 708 c 4
 141 708 209 711 236 711 c 4
 324 711 414 653 414 527 c 4
 414 354 287 319 246 319 c 4
 213 319 170 331 170 342 c 4
 170 353 175 357 180 357 c 4
 191 357 199 349 219 349 c 4
 261 349 349 377 349 489 c 4
 349 567 297 671 191 671 c 4
 161 671 150 659 150 569 c 4
 150 174 149 468 149 156 c 4
 149 87 162 56 180 41 c 4
 207 19 245 45 245 10 c 4
 245 -4 236 -7 227 -7 c 4
 196 -7 128 -2 116 -2 c 4
 97 -2 78 -6 44 -6 c 4
 35 -6 20 -6 20 5 c 4
 20 28 32 28 50 34 c 4
 61 38 65 31 77 78 c 4
 85 107 88 371 88 431 c 4
 88 536 88 575 88 601 c 4
 88 625 77 681 31 681 c 4
 22 681 15 684 15 694 c 4
414 699 m 4
 414 710 425 710 435 710 c 4
 457 710 480 706 523 706 c 4
 556 706 542 708 591 708 c 4
 596 708 608 707 608 694 c 4
 608 685 606 677 581 677 c 4
 557 677 552 591 552 552 c 6
 552 515 l 6
 552 472 550 443 550 423 c 4
 550 389 554 384 576 384 c 4
 602 384 589 385 703 385 c 4
 720 385 749 384 850 383 c 4
 858 383 858 389 858 522 c 6
 858 576 l 6
 858 716 793 657 793 696 c 4
 793 704 804 706 823 706 c 4
 842 706 869 704 899 704 c 4
 918 704 931 706 959 706 c 4
 966 706 977 703 977 693 c 4
 977 680 969 680 966 680 c 4
 936 680 922 653 922 618 c 4
 921 522 919 451 919 375 c 4
 919 327 918 279 918 225 c 6
 918 188 l 6
 918 134 921 124 921 96 c 4
 921 37 965 25 986 22 c 4
 988 22 995 21 995 11 c 4
 995 1 985 0 957 0 c 4
 939 0 920 5 898 5 c 4
 869 5 861 0 825 0 c 4
 805 0 797 0 797 13 c 4
 797 32 846 27 851 65 c 4
 855 91 856 116 856 138 c 4
 856 158 857 176 857 192 c 4
 857 229 858 270 858 315 c 4
 858 333 852 342 809 342 c 4
 789 342 719 339 714 339 c 4
 650 339 622 342 572 342 c 4
 558 342 552 340 552 305 c 4
 552 257 549 221 549 182 c 6
 549 139 l 6
 549 88 552 62 586 34 c 4
 590 31 603 29 619 29 c 4
 627 29 634 23 634 18 c 4
 634 2 622 0 609 0 c 4
 567 0 571 4 545 4 c 4
 505 4 489 -1 461 -1 c 4
 429 -1 424 6 424 14 c 4
 424 41 470 13 482 78 c 4
 484 94 492 227 492 345 c 6
 492 402 l 6
 492 431 493 469 493 510 c 4
 493 551 492 593 488 629 c 4
 484 665 452 682 430 682 c 4
 418 682 414 696 414 699 c 4
EndSplineSet
EndChar
StartChar: uF2E4A
Encoding: 994890 994890 100
Width: 1000
VWidth: 0
Flags: MW
LayerCount: 2
Back
Fore
SplineSet
9 694 m 4
 9 702 14 710 25 710 c 4
 32 710 30 711 51 711 c 4
 59 711 81 708 94 708 c 4
 124 708 185 711 210 711 c 4
 290 711 372 653 372 527 c 4
 372 354 255 319 218 319 c 4
 188 319 149 331 149 342 c 4
 149 353 154 357 159 357 c 4
 169 357 177 349 195 349 c 4
 233 349 312 377 312 489 c 4
 312 567 266 671 169 671 c 4
 142 671 132 659 132 569 c 4
 132 174 130 468 130 156 c 4
 130 87 143 56 159 41 c 4
 184 19 218 45 218 10 c 4
 218 -4 210 -7 202 -7 c 4
 174 -7 112 -2 101 -2 c 4
 83 -2 66 -6 35 -6 c 4
 27 -6 13 -6 13 5 c 4
 13 28 24 28 40 34 c 4
 50 38 54 31 65 78 c 4
 72 107 75 371 75 431 c 4
 75 536 75 575 75 601 c 4
 75 625 65 681 23 681 c 4
 15 681 9 684 9 694 c 4
371 695 m 4
 371 702 373 710 384 710 c 4
 392 710 415 706 421 706 c 4
 440 706 461 708 474 708 c 4
 482 708 489 702 491 694 c 4
 557 490 670 137 680 137 c 4
 688 137 695 169 703 192 c 6
 794 458 l 6
 869 679 863 671 867 683 c 4
 872 696 869 710 894 710 c 4
 924 710 910 708 954 708 c 4
 959 708 966 708 966 695 c 4
 966 683 963 677 943 673 c 4
 921 669 911 651 911 564 c 4
 911 329 920 274 920 182 c 4
 920 44 932 27 978 27 c 4
 985 27 991 18 991 13 c 4
 991 -3 987 -3 975 -3 c 4
 937 -3 926 1 903 1 c 4
 866 1 855 -4 830 -4 c 4
 819 -4 817 4 817 10 c 4
 817 39 852 7 863 75 c 4
 864 85 866 109 866 139 c 4
 866 252 856 466 856 469 c 4
 856 497 854 512 850 512 c 4
 844 512 835 485 822 449 c 6
 724 168 l 6
 670 13 674 12 666 12 c 4
 652 12 648 47 628 106 c 4
 496 488 497 489 491 489 c 4
 487 489 486 479 486 449 c 4
 485 303 479 261 479 185 c 6
 479 140 l 6
 479 87 479 34 533 26 c 4
 537 26 543 20 543 15 c 4
 543 -1 541 -3 533 -3 c 4
 509 -3 469 1 459 1 c 4
 451 1 433 -2 402 -2 c 4
 393 -2 387 -1 387 14 c 4
 387 41 424 1 440 90 c 4
 445 120 454 397 454 489 c 4
 454 618 444 659 381 680 c 4
 372 683 371 690 371 695 c 4
EndSplineSet
EndChar
StartChar: uF2E4B
Encoding: 994891 994891 101
Width: 1000
VWidth: 0
Flags: MW
LayerCount: 2
Back
Fore
SplineSet
16 694 m 4
 16 702 22 710 35 710 c 4
 43 710 41 711 65 711 c 4
 74 711 98 708 113 708 c 4
 148 708 219 711 247 711 c 4
 339 711 433 653 433 527 c 4
 433 354 300 319 257 319 c 4
 223 319 177 331 177 342 c 4
 177 353 182 357 188 357 c 4
 199 357 208 349 229 349 c 4
 273 349 364 377 364 489 c 4
 364 567 311 671 200 671 c 4
 168 671 157 659 157 569 c 4
 157 174 155 468 155 156 c 4
 155 87 170 56 189 41 c 4
 217 19 256 45 256 10 c 4
 256 -4 246 -7 237 -7 c 4
 205 -7 133 -2 121 -2 c 4
 101 -2 82 -6 46 -6 c 4
 37 -6 21 -6 21 5 c 4
 21 28 33 28 52 34 c 4
 63 38 67 31 80 78 c 4
 88 107 92 371 92 431 c 4
 92 536 91 575 91 601 c 4
 91 625 80 681 32 681 c 4
 23 681 16 684 16 694 c 4
432 696 m 4
 432 709 439 712 456 712 c 6
 590 712 l 6
 625 712 643 715 671 715 c 4
 763 715 848 654 848 547 c 4
 848 399 746 372 746 356 c 4
 746 340 875 119 908 76 c 4
 911 71 940 29 982 29 c 4
 987 29 993 25 993 17 c 4
 993 0 991 -8 933 -8 c 4
 931 -8 893 -6 864 15 c 4
 821 46 760 172 719 255 c 4
 685 323 669 333 659 333 c 6
 642 333 l 5
 593 333 l 6
 581 333 579 333 579 262 c 4
 579 121 580 135 580 121 c 4
 580 0 679 42 679 9 c 4
 679 -1 676 -7 665 -7 c 4
 662 -7 557 0 549 0 c 4
 510 0 469 -4 460 -4 c 4
 452 -4 443 -1 443 12 c 4
 443 47 511 3 511 113 c 4
 511 177 512 317 512 428 c 4
 512 533 511 570 511 597 c 4
 511 705 432 665 432 696 c 4
579 536 m 6
 579 405 579 385 585 380 c 4
 596 372 605 371 620 371 c 6
 628 371 l 5
 652 371 l 6
 751 371 780 439 780 510 c 4
 780 579 739 674 622 674 c 4
 581 674 579 654 579 564 c 6
 579 536 l 6
EndSplineSet
EndChar
StartChar: uF2E4C
Encoding: 994892 994892 102
Width: 1000
VWidth: 0
Flags: MW
LayerCount: 2
Back
Fore
SplineSet
11 748 m 4
 11 765 15 795 17 810 c 4
 19 823 17 831 34 831 c 4
 73 831 68 826 191 826 c 4
 274 826 333 827 363 829 c 4
 364 829 366 830 367 830 c 4
 376 830 378 821 378 819 c 4
 378 812 381 776 381 771 c 4
 381 750 379 748 372 748 c 4
 371 748 368 748 366 755 c 4
 359 783 357 795 310 795 c 6
 237 795 l 6
 219 795 218 792 218 756 c 6
 218 727 l 6
 218 587 216 562 216 507 c 4
 216 491 215 479 215 468 c 4
 215 452 216 441 223 434 c 4
 244 412 270 424 270 408 c 4
 270 398 266 398 257 398 c 4
 242 398 213 402 195 402 c 4
 180 402 156 398 138 398 c 4
 126 398 117 401 117 408 c 4
 117 421 132 418 146 422 c 4
 156 424 165 430 167 446 c 4
 171 488 173 647 173 672 c 4
 173 736 172 780 172 780 c 6
 172 795 171 797 130 797 c 4
 47 797 46 790 40 782 c 4
 25 760 31 738 17 738 c 4
 14 738 11 740 11 748 c 4
376 819 m 4
 376 826 387 828 391 828 c 4
 395 828 400 827 406 827 c 4
 419 827 488 824 543 824 c 4
 565 824 637 826 654 826 c 4
 658 826 665 825 665 812 c 4
 665 800 658 781 658 751 c 4
 658 744 653 738 649 738 c 4
 645 738 641 742 641 750 c 4
 641 771 627 793 608 794 c 4
 572 797 562 798 531 798 c 6
 516 798 l 6
 477 798 479 797 477 761 c 4
 476 739 474 689 474 661 c 4
 474 650 475 631 485 630 c 6
 499 630 l 5
 522 630 l 5
 540 630 l 6
 588 630 593 634 604 642 c 4
 613 649 616 657 617 664 c 4
 618 670 619 674 625 674 c 4
 632 674 632 672 632 665 c 4
 632 654 628 623 628 602 c 4
 628 582 630 576 630 565 c 4
 630 551 628 550 626 550 c 4
 619 550 615 556 613 564 c 4
 610 575 607 588 599 594 c 4
 587 602 548 602 546 602 c 4
 497 602 503 603 497 603 c 4
 485 603 474 601 474 591 c 4
 474 557 473 539 473 505 c 6
 473 481 l 6
 473 461 477 437 486 434 c 4
 498 430 502 429 510 429 c 4
 688 429 668 486 684 486 c 4
 687 486 690 483 690 476 c 4
 690 440 647 397 625 397 c 4
 554 397 505 403 471 403 c 4
 440 403 422 398 395 398 c 4
 389 398 383 397 383 404 c 4
 383 420 384 410 407 422 c 4
 424 431 429 447 429 539 c 6
 429 613 l 6
 429 646 431 680 431 717 c 4
 431 734 431 752 430 771 c 4
 429 796 407 808 385 809 c 4
 376 809 376 814 376 819 c 4
685 817 m 4
 685 826 696 828 700 828 c 4
 704 828 709 827 715 827 c 4
 728 827 742 824 764 824 c 4
 794 824 812 827 822 827 c 4
 829 827 832 826 832 821 c 4
 832 795 790 829 786 756 c 4
 784 719 781 512 781 505 c 6
 781 481 l 6
 781 461 786 437 795 434 c 4
 807 430 811 429 819 429 c 4
 997 429 976 486 992 486 c 4
 995 486 999 483 999 476 c 4
 999 440 955 397 933 397 c 4
 862 397 814 403 780 403 c 4
 749 403 737 398 710 398 c 4
 699 398 694 401 694 405 c 4
 694 412 700 415 703 415 c 4
 705 415 711 415 719 421 c 4
 731 431 738 447 738 539 c 6
 738 613 l 6
 738 646 740 680 740 717 c 4
 740 734 739 752 738 771 c 4
 737 796 715 808 693 809 c 4
 685 809 685 812 685 817 c 4
EndSplineSet
EndChar
StartChar: uF2E4D
Encoding: 994893 994893 103
Width: 1000
Flags: MW
LayerCount: 2
Back
Fore
SplineSet
26 746 m 0
 26 763 30 793 32 808 c 0
 34 821 32 829 50 829 c 0
 92 829 87 824 220 824 c 0
 309 824 372 825 404 827 c 0
 405 827 407 828 408 828 c 0
 418 828 420 819 420 817 c 0
 420 810 424 774 424 769 c 0
 424 748 422 746 414 746 c 0
 413 746 410 746 408 753 c 0
 400 781 396 793 346 793 c 2
 268 793 l 2
 249 793 248 790 248 754 c 2
 248 725 l 2
 248 585 246 560 246 505 c 0
 246 489 246 477 246 466 c 0
 246 450 247 439 254 432 c 0
 277 410 304 422 304 406 c 0
 304 396 300 396 290 396 c 0
 274 396 242 400 222 400 c 0
 206 400 181 396 162 396 c 0
 149 396 140 399 140 406 c 0
 140 419 155 416 170 420 c 0
 181 422 192 428 194 444 c 0
 199 486 200 645 200 670 c 0
 200 734 198 778 198 778 c 2
 198 793 198 795 154 795 c 0
 65 795 63 788 56 780 c 0
 40 758 47 736 32 736 c 0
 28 736 26 738 26 746 c 0
448 815 m 0
 448 819 449 824 458 824 c 0
 465 824 485 822 490 822 c 0
 506 822 525 823 536 823 c 0
 543 823 548 819 550 814 c 0
 606 692 702 480 710 480 c 0
 717 480 723 499 730 513 c 2
 808 673 l 2
 872 806 866 801 870 808 c 0
 874 816 871 824 892 824 c 0
 918 824 906 823 944 823 c 0
 948 823 954 823 954 815 c 0
 954 808 951 804 934 802 c 0
 915 800 908 788 908 736 c 0
 908 595 914 562 914 507 c 0
 914 424 925 414 964 414 c 0
 970 414 974 409 974 406 c 0
 974 396 972 396 962 396 c 0
 930 396 920 399 900 399 c 0
 869 399 860 396 838 396 c 0
 828 396 828 400 828 404 c 0
 828 421 856 402 866 443 c 0
 867 449 868 463 868 481 c 0
 868 549 860 677 860 679 c 0
 860 696 857 705 854 705 c 0
 849 705 843 689 832 667 c 2
 748 499 l 2
 702 406 705 405 698 405 c 0
 686 405 683 427 666 462 c 0
 553 691 555 691 550 691 c 0
 547 691 544 685 544 667 c 0
 543 579 540 555 540 509 c 2
 540 482 l 2
 540 450 540 419 586 414 c 0
 590 414 594 410 594 407 c 0
 594 397 591 396 584 396 c 0
 564 396 530 399 522 399 c 0
 515 399 500 397 474 397 c 0
 466 397 460 397 460 406 c 0
 460 422 493 399 506 452 c 0
 510 470 518 636 518 691 c 0
 518 768 509 793 456 806 c 0
 448 808 448 812 448 815 c 0
EndSplineSet
EndChar
StartChar: uF2E4E
Encoding: 994894 994894 104
Width: 1000
VWidth: 0
Flags: MW
LayerCount: 2
Back
Fore
SplineSet
15 696 m 4
 15 709 29 710 37 710 c 4
 54 710 70 706 121 706 c 4
 135 706 155 708 171 708 c 4
 194 708 196 707 196 697 c 4
 196 682 165 683 165 650 c 4
 165 608 189 557 272 312 c 4
 297 236 339 119 349 119 c 4
 357 119 512 596 512 649 c 4
 512 696 457 676 457 700 c 4
 457 709 459 710 473 710 c 4
 482 710 494 709 521 709 c 4
 550 709 551 711 589 711 c 4
 597 711 604 709 604 697 c 4
 604 675 576 687 555 625 c 6
 384 117 l 6
 335 -29 339 -30 331 -30 c 4
 326 -30 315 -24 296 39 c 4
 271 118 252 173 217 271 c 4
 108 579 108 611 87 643 c 4
 49 699 15 661 15 696 c 4
626 187 m 4
 626 202 632 208 637 208 c 4
 642 208 647 204 649 198 c 4
 668 137 706 31 817 31 c 4
 895 31 945 89 945 174 c 4
 945 309 811 301 711 379 c 4
 667 413 642 458 642 526 c 4
 642 645 716 722 820 722 c 4
 869 722 919 689 930 689 c 4
 935 689 943 697 948 697 c 4
 953 697 958 694 959 689 c 4
 965 643 975 567 975 553 c 4
 975 532 970 525 965 525 c 4
 959 525 956 530 954 539 c 4
 935 600 925 607 903 633 c 4
 875 666 838 681 803 681 c 4
 742 681 691 640 691 570 c 4
 691 410 869 454 963 322 c 4
 981 296 994 261 994 215 c 4
 994 71 912 -13 815 -13 c 4
 750 -13 712 -8 664 25 c 4
 648 37 626 178 626 187 c 4
EndSplineSet
EndChar
StartChar: uF2E4F
Encoding: 994895 994895 105
Width: 1000
Flags: MW
LayerCount: 2
Back
Fore
SplineSet
49 -170 m 0
 49 -161 50 -140 77 -113 c 2
 77 -113 878 712 883 717 c 0
 894 729 900 735 918 735 c 0
 927 735 939 733 939 723 c 0
 939 703 928 689 919 679 c 2
 116 -152 l 2
 96 -173 90 -183 75 -183 c 0
 63 -183 49 -183 49 -170 c 0
68 417 m 0
 68 525 173 535 298 557 c 0
 309 559 315 560 315 573 c 0
 315 593 317 609 317 625 c 0
 317 712 248 733 220 733 c 0
 157 733 148 698 148 673 c 0
 148 658 152 646 152 637 c 0
 152 620 145 617 134 617 c 0
 122 617 72 622 72 656 c 0
 72 707 154 766 240 766 c 0
 390 766 390 678 390 640 c 0
 390 510 385 529 385 454 c 0
 385 321 461 381 461 345 c 0
 461 330 440 324 398 324 c 0
 340 324 323 379 318 379 c 0
 314 379 258 317 186 317 c 0
 143 317 116 323 93 347 c 0
 75 365 68 390 68 417 c 0
146 432 m 0
 146 387 173 357 223 357 c 0
 315 357 315 426 315 459 c 2
 315 531 l 2
 315 537 312 540 308 540 c 0
 305 540 301 538 298 538 c 0
 234 527 146 515 146 432 c 0
532 47 m 0
 532 169 622 284 764 284 c 0
 805 284 878 270 880 251 c 0
 881 239 882 221 882 204 c 0
 882 181 880 160 872 160 c 0
 858 160 855 178 838 192 c 0
 815 212 759 245 706 245 c 0
 686 245 607 218 607 79 c 0
 607 -23 681 -114 778 -114 c 0
 858 -114 897 -62 910 -62 c 0
 916 -62 920 -67 920 -72 c 0
 920 -81 867 -166 738 -166 c 0
 614 -166 532 -87 532 47 c 0
EndSplineSet
EndChar
StartChar: uF2E50
Encoding: 994896 994896 106
Width: 1000
VWidth: 0
Flags: MW
LayerCount: 2
Back
Fore
SplineSet
30 85 m 4
 30 193 92 203 166 225 c 4
 172 227 176 228 176 241 c 4
 176 261 177 277 177 293 c 4
 177 380 137 401 120 401 c 4
 83 401 77 366 77 341 c 4
 77 326 80 314 80 305 c 4
 80 288 76 285 69 285 c 4
 62 285 33 290 33 324 c 4
 33 375 81 434 132 434 c 4
 221 434 220 346 220 308 c 4
 220 178 217 197 217 122 c 4
 217 -11 262 49 262 13 c 4
 262 -2 250 -8 225 -8 c 4
 191 -8 181 47 178 47 c 4
 176 47 143 -15 100 -15 c 4
 75 -15 59 -9 45 15 c 4
 34 33 30 58 30 85 c 4
76 100 m 4
 76 55 92 25 122 25 c 4
 176 25 176 94 176 127 c 6
 176 199 l 6
 176 205 174 208 172 208 c 4
 170 208 168 206 166 206 c 4
 128 195 76 183 76 100 c 4
277 55 m 4
 277 64 286 80 295 94 c 4
 303 106 309 129 320 129 c 4
 325 129 335 109 344 90 c 4
 349 80 362 65 362 55 c 4
 362 43 350 33 341 19 c 4
 334 7 327 -16 319 -16 c 4
 310 -16 303 11 295 21 c 4
 285 33 277 45 277 55 c 4
412 388 m 4
 412 409 439 404 464 423 c 4
 476 432 480 438 490 438 c 4
 495 438 497 425 497 409 c 4
 497 397 494 375 494 367 c 4
 494 361 494 355 498 355 c 4
 502 355 517 427 577 427 c 4
 641 427 647 348 653 348 c 4
 657 348 686 430 734 430 c 4
 795 430 823 357 828 280 c 4
 831 231 832 188 832 153 c 6
 832 121 l 6
 832 68 833 38 848 30 c 4
 853 28 871 28 871 11 c 4
 871 -4 857 -4 851 -4 c 4
 843 -4 824 0 812 0 c 4
 795 0 782 -4 770 -4 c 4
 763 -4 755 -2 755 6 c 4
 755 26 778 23 783 42 c 4
 785 50 785 68 785 88 c 6
 785 104 l 6
 785 325 781 313 762 352 c 4
 752 372 736 383 718 383 c 4
 688 383 657 338 657 329 c 4
 657 316 661 304 661 202 c 6
 661 117 l 6
 661 62 666 31 702 22 c 4
 711 20 712 9 712 6 c 4
 712 -5 705 -5 701 -5 c 4
 691 -5 675 0 658 0 c 4
 647 0 609 -5 604 -5 c 4
 600 -5 591 -2 591 8 c 4
 591 17 593 20 605 28 c 4
 609 30 618 32 618 90 c 4
 618 104 619 91 619 199 c 4
 619 262 618 256 618 262 c 4
 618 331 595 379 557 379 c 4
 524 379 493 345 493 306 c 6
 493 292 l 5
 493 104 l 6
 493 0 543 35 543 12 c 4
 543 1 543 -3 531 -3 c 4
 522 -3 506 0 481 0 c 4
 457 0 443 -3 434 -3 c 4
 420 -3 420 5 420 12 c 4
 420 33 439 13 447 56 c 4
 451 77 452 137 452 208 c 4
 452 247 452 289 452 330 c 4
 452 400 412 356 412 388 c 4
885 55 m 4
 885 64 894 80 903 94 c 4
 911 106 917 129 928 129 c 4
 933 129 943 109 952 90 c 4
 957 80 970 65 970 55 c 4
 970 43 958 33 949 19 c 4
 942 7 935 -16 927 -16 c 4
 918 -16 911 11 903 21 c 4
 893 33 885 45 885 55 c 4
EndSplineSet
EndChar
StartChar: uF2E51
Encoding: 994897 994897 107
Width: 1000
Flags: MW
LayerCount: 2
Back
Fore
SplineSet
532 47 m 0
 532 169 622 284 764 284 c 0
 805 284 878 270 880 251 c 0
 881 239 882 221 882 204 c 0
 882 181 880 160 872 160 c 0
 858 160 855 178 838 192 c 0
 815 212 759 245 706 245 c 0
 686 245 607 218 607 79 c 0
 607 -23 681 -114 778 -114 c 0
 858 -114 897 -62 910 -62 c 0
 916 -62 920 -67 920 -72 c 0
 920 -81 867 -166 738 -166 c 0
 614 -166 532 -87 532 47 c 0
49 -170 m 0
 49 -161 50 -140 77 -113 c 2
 77 -113 878 712 883 717 c 0
 894 729 900 735 918 735 c 0
 927 735 939 733 939 723 c 0
 939 703 928 689 919 679 c 2
 116 -152 l 2
 96 -173 90 -183 75 -183 c 0
 63 -183 49 -183 49 -170 c 0
55 523 m 0
 55 645 145 760 287 760 c 0
 328 760 401 746 403 727 c 0
 404 715 405 697 405 680 c 0
 405 657 403 636 395 636 c 0
 381 636 378 654 361 668 c 0
 338 688 282 721 229 721 c 0
 209 721 130 694 130 555 c 0
 130 453 204 362 301 362 c 0
 381 362 420 414 433 414 c 0
 439 414 443 409 443 404 c 0
 443 395 390 310 261 310 c 0
 137 310 55 389 55 523 c 0
EndSplineSet
EndChar
StartChar: uF2E52
Encoding: 994898 994898 108
Width: 1000
VWidth: 0
Flags: MW
LayerCount: 2
Back
Fore
SplineSet
30 192 m 4
 30 314 98 429 207 429 c 4
 238 429 295 415 297 396 c 4
 298 384 298 366 298 349 c 4
 298 326 296 305 290 305 c 4
 279 305 278 323 265 337 c 4
 247 357 204 390 163 390 c 4
 148 390 87 363 87 224 c 4
 87 122 144 31 218 31 c 4
 279 31 309 83 319 83 c 4
 324 83 327 78 327 73 c 4
 327 64 287 -21 188 -21 c 4
 93 -21 30 58 30 192 c 4
349 55 m 4
 349 64 360 80 372 94 c 4
 382 106 389 129 404 129 c 4
 410 129 424 109 436 90 c 4
 443 80 459 65 459 55 c 4
 459 43 443 33 432 19 c 4
 423 7 414 -16 403 -16 c 4
 391 -16 382 11 372 21 c 4
 359 33 349 45 349 55 c 4
530 192 m 4
 530 314 598 429 707 429 c 4
 738 429 795 415 797 396 c 4
 798 384 798 366 798 349 c 4
 798 326 796 305 790 305 c 4
 779 305 778 323 765 337 c 4
 747 357 704 390 663 390 c 4
 648 390 587 363 587 224 c 4
 587 122 644 31 718 31 c 4
 779 31 809 83 819 83 c 4
 824 83 827 78 827 73 c 4
 827 64 787 -21 688 -21 c 4
 593 -21 530 58 530 192 c 4
849 55 m 4
 849 64 860 80 872 94 c 4
 882 106 889 129 904 129 c 4
 910 129 924 109 936 90 c 4
 943 80 959 65 959 55 c 4
 959 43 943 33 932 19 c 4
 923 7 914 -16 903 -16 c 4
 891 -16 882 11 872 21 c 4
 859 33 849 45 849 55 c 4
EndSplineSet
EndChar
StartChar: uF2E53
Encoding: 994899 994899 109
Width: 1000
Flags: MW
LayerCount: 2
Back
Fore
SplineSet
49 -170 m 0
 49 -161 50 -140 77 -113 c 2
 77 -113 878 712 883 717 c 0
 894 729 900 735 918 735 c 0
 927 735 939 733 939 723 c 0
 939 703 928 689 919 679 c 2
 116 -152 l 2
 96 -173 90 -183 75 -183 c 0
 63 -183 49 -183 49 -170 c 0
55 523 m 0
 55 645 145 760 287 760 c 0
 328 760 401 746 403 727 c 0
 404 715 405 697 405 680 c 0
 405 657 403 636 395 636 c 0
 381 636 378 654 361 668 c 0
 338 688 282 721 229 721 c 0
 209 721 130 694 130 555 c 0
 130 453 204 362 301 362 c 0
 381 362 420 414 433 414 c 0
 439 414 443 409 443 404 c 0
 443 395 390 310 261 310 c 0
 137 310 55 389 55 523 c 0
474 40 m 0
 474 153 553 268 710 268 c 0
 827 268 943 192 943 46 c 0
 943 -104 822 -181 702 -181 c 0
 549 -181 474 -71 474 40 c 0
553 74 m 0
 553 -72 647 -151 732 -151 c 0
 803 -151 868 -97 868 16 c 0
 868 122 809 241 686 241 c 0
 628 241 553 198 553 74 c 0
EndSplineSet
EndChar
StartChar: uF2E54
Encoding: 994900 994900 110
Width: 1000
VWidth: 0
Flags: MW
LayerCount: 2
Back
Fore
SplineSet
121 195 m 0
 121 314 195 438 343 438 c 0
 384 438 434 409 447 409 c 0
 450 409 452 415 452 445 c 0
 452 574 454 538 454 574 c 0
 454 641 453 686 405 686 c 2
 395 686 l 2
 376 686 376 687 376 694 c 2
 376 695 l 2
 376 710 407 707 479 743 c 0
 490 748 504 758 515 758 c 0
 521 758 526 753 526 738 c 0
 526 717 514 605 514 521 c 0
 514 341 512 228 512 156 c 0
 512 65 517 44 544 35 c 0
 559 30 584 31 584 14 c 0
 584 9 580 2 513 -4 c 0
 486 -6 467 -14 456 -14 c 0
 450 -14 446 -11 446 -3 c 0
 446 6 443 16 443 34 c 0
 443 41 442 51 435 51 c 0
 425 51 388 -14 301 -14 c 0
 181 -14 121 88 121 195 c 0
187 242 m 0
 187 150 244 38 339 38 c 0
 392 38 447 71 447 117 c 0
 448 288 448 271 448 288 c 0
 448 343 436 357 423 365 c 0
 394 384 347 409 314 409 c 0
 233 409 187 335 187 242 c 0
575 693 m 0
 575 712 586 706 637 728 c 0
 661 738 688 756 706 756 c 0
 715 756 717 747 717 737 c 0
 717 722 710 676 710 585 c 2
 710 529 l 2
 710 444 708 446 708 396 c 2
 708 98 l 2
 708 66 712 25 782 25 c 0
 788 25 794 17 794 10 c 0
 794 -1 783 -4 766 -4 c 0
 747 -4 701 3 673 3 c 0
 631 3 619 -5 599 -5 c 0
 589 -5 585 2 585 5 c 0
 585 23 602 20 616 27 c 0
 638 38 640 57 640 92 c 0
 640 100 640 108 640 118 c 2
 640 192 l 2
 640 277 643 490 643 617 c 0
 643 648 632 676 621 681 c 0
 615 684 603 685 585 685 c 0
 580 685 575 686 575 693 c 0
EndSplineSet
EndChar
StartChar: uF2E55
Encoding: 994901 994901 111
Width: 1000
VWidth: 0
Flags: MW
LayerCount: 2
Back
Fore
SplineSet
13 697 m 4
 13 716 41 718 59 730 c 4
 77 742 100 758 108 758 c 4
 116 758 116 742 116 735 c 4
 116 721 112 707 112 673 c 4
 110 408 107 408 107 379 c 4
 107 367 108 360 112 360 c 4
 119 360 151 434 206 434 c 4
 275 434 321 376 321 237 c 6
 321 92 l 6
 321 77 324 37 343 34 c 4
 363 31 379 25 379 13 c 4
 379 0 369 -3 358 -3 c 4
 350 -3 316 2 302 2 c 4
 291 2 255 -1 250 -1 c 4
 241 -1 235 1 235 9 c 4
 235 42 271 4 271 72 c 4
 271 89 273 72 273 238 c 4
 273 320 234 388 190 388 c 4
 165 388 140 367 125 349 c 4
 109 330 106 310 106 164 c 6
 106 141 l 6
 106 93 108 46 133 30 c 4
 147 21 167 30 167 12 c 4
 167 6 164 0 160 0 c 4
 159 0 91 5 88 5 c 4
 79 5 51 0 41 0 c 4
 22 0 23 4 23 10 c 4
 23 15 24 20 31 23 c 4
 58 35 61 60 61 100 c 6
 64 441 l 5
 64 490 l 6
 64 665 64 686 36 686 c 4
 26 686 27 687 25 687 c 4
 18 687 13 691 13 697 c 4
372 694 m 4
 372 702 376 710 387 710 c 4
 394 710 392 711 412 711 c 4
 419 711 440 708 452 708 c 4
 481 708 539 711 562 711 c 4
 638 711 716 653 716 527 c 4
 716 354 605 319 570 319 c 4
 542 319 505 331 505 342 c 4
 505 353 509 357 514 357 c 4
 523 357 531 349 548 349 c 4
 584 349 659 377 659 489 c 4
 659 567 616 671 524 671 c 4
 498 671 488 659 488 569 c 4
 488 174 487 468 487 156 c 4
 487 87 499 56 514 41 c 4
 537 19 570 45 570 10 c 4
 570 -4 561 -7 554 -7 c 4
 527 -7 469 -2 459 -2 c 4
 442 -2 426 -6 397 -6 c 4
 390 -6 376 -6 376 5 c 4
 376 28 386 28 401 34 c 4
 410 38 414 31 425 78 c 4
 432 107 435 371 435 431 c 4
 435 536 434 575 434 601 c 4
 434 625 424 681 385 681 c 4
 378 681 372 684 372 694 c 4
734 85 m 4
 734 193 805 203 888 225 c 4
 895 227 899 228 899 241 c 4
 899 261 900 277 900 293 c 4
 900 380 855 401 836 401 c 4
 794 401 788 366 788 341 c 4
 788 326 790 314 790 305 c 4
 790 288 785 285 778 285 c 4
 770 285 737 290 737 324 c 4
 737 375 792 434 849 434 c 4
 949 434 949 346 949 308 c 4
 949 178 946 197 946 122 c 4
 946 -11 997 49 997 13 c 4
 997 -2 983 -8 955 -8 c 4
 916 -8 904 47 901 47 c 4
 898 47 861 -15 813 -15 c 4
 784 -15 766 -9 751 15 c 4
 739 33 734 58 734 85 c 4
786 100 m 4
 786 55 805 25 838 25 c 4
 899 25 899 94 899 127 c 6
 899 199 l 6
 899 205 897 208 894 208 c 4
 892 208 890 206 888 206 c 4
 845 195 786 183 786 100 c 4
EndSplineSet
EndChar
StartChar: uF2E56
Encoding: 994902 994902 112
Width: 1000
VWidth: 0
Flags: MW
LayerCount: 2
Back
Fore
SplineSet
109 689 m 0
 109 697 118 703 152 715 c 0
 198 731 183 724 217 747 c 0
 224 752 237 760 247 760 c 0
 257 760 259 750 259 741 c 0
 259 731 251 677 251 488 c 0
 251 420 249 351 249 283 c 2
 249 262 l 2
 249 241 249 220 252 220 c 0
 264 220 269 232 281 243 c 0
 400 349 406 364 406 370 c 0
 406 394 365 391 365 409 c 0
 365 415 368 419 376 419 c 0
 380 419 385 418 392 418 c 0
 464 420 503 423 523 423 c 0
 543 423 546 420 546 414 c 0
 546 394 519 409 466 371 c 0
 457 365 458 364 424 336 c 0
 335 260 335 262 335 250 c 0
 335 243 340 235 345 227 c 0
 409 139 455 87 484 59 c 0
 541 3 578 36 578 12 c 0
 578 -5 567 -5 542 -5 c 0
 530 -5 458 -4 449 -4 c 0
 422 -4 314 154 285 193 c 0
 282 197 279 199 275 199 c 0
 264 199 248 179 248 153 c 0
 248 148 249 143 249 136 c 0
 253 42 250 65 265 41 c 0
 278 19 332 28 332 9 c 0
 332 -5 308 -7 304 -7 c 0
 295 -7 246 -1 217 -1 c 0
 191 -1 190 -5 152 -5 c 0
 140 -5 131 -4 131 7 c 0
 131 20 147 22 153 24 c 0
 182 36 184 54 184 116 c 0
 184 135 185 152 185 160 c 2
 186 604 l 2
 186 671 161 679 144 679 c 0
 138 679 134 678 127 678 c 0
 117 678 109 680 109 689 c 0
568 693 m 0
 568 712 578 706 628 728 c 0
 651 738 678 756 696 756 c 0
 705 756 707 747 707 737 c 0
 707 722 700 676 700 585 c 2
 700 529 l 2
 700 444 698 446 698 396 c 2
 698 98 l 2
 698 66 702 25 770 25 c 0
 776 25 782 17 782 10 c 0
 782 -1 771 -4 754 -4 c 0
 735 -4 692 3 664 3 c 0
 623 3 612 -5 592 -5 c 0
 582 -5 578 2 578 5 c 0
 578 23 595 20 608 27 c 0
 629 38 632 57 632 92 c 0
 632 100 631 108 631 118 c 2
 631 192 l 2
 631 277 635 490 635 617 c 0
 635 648 624 676 613 681 c 0
 607 684 596 685 578 685 c 0
 573 685 568 686 568 693 c 0
EndSplineSet
EndChar
StartChar: uF2E58
Encoding: 994904 994904 114
Width: 1000
VWidth: 0
Flags: MW
LayerCount: 2
Back
Fore
SplineSet
6 -146 m 4
 6 -46 46 44 74 167 c 4
 126 391 120 421 138 421 c 4
 140 421 184 417 184 396 c 4
 184 372 134 117 134 80 c 4
 134 65 138 44 154 44 c 4
 228 44 336 241 384 354 c 4
 412 421 401 421 418 421 c 4
 434 421 460 411 460 400 c 4
 460 386 398 123 398 75 c 4
 398 59 411 50 424 50 c 4
 463 50 472 122 492 122 c 4
 503 122 502 113 502 105 c 4
 502 64 443 -21 366 -21 c 4
 332 -21 326 13 326 51 c 4
 326 95 344 187 344 198 c 4
 344 202 343 204 342 204 c 4
 333 204 315 143 238 59 c 4
 201 18 149 -18 108 -18 c 4
 74 -18 70 25 66 25 c 4
 62 25 46 -49 46 -85 c 4
 46 -118 72 -157 72 -168 c 4
 72 -173 65 -199 36 -199 c 4
 15 -199 6 -182 6 -146 c 4
572 -97 m 4
 572 -36 644 -22 644 -12 c 4
 644 -6 610 3 610 47 c 4
 610 115 662 136 662 146 c 4
 662 162 594 175 594 280 c 4
 594 332 625 433 768 433 c 4
 856 433 880 393 894 393 c 4
 909 393 925 403 944 411 c 4
 970 422 963 459 980 459 c 4
 983 459 994 459 994 451 c 4
 994 416 981 374 972 360 c 4
 961 343 944 335 930 329 c 5
 930 329 942 299 942 279 c 4
 942 194 868 127 776 127 c 4
 731 127 715 136 700 136 c 4
 698 136 654 134 654 87 c 4
 654 38 705 35 788 35 c 6
 834 35 l 6
 881 35 980 32 980 -53 c 4
 980 -70 978 -86 972 -100 c 4
 946 -165 861 -207 758 -207 c 4
 680 -207 572 -184 572 -97 c 4
630 -91 m 4
 630 -154 692 -180 758 -180 c 4
 835 -180 918 -145 918 -89 c 4
 918 -38 865 -38 808 -38 c 6
 798 -38 l 6
 745 -38 687 -24 676 -24 c 4
 667 -24 630 -49 630 -91 c 4
670 290 m 4
 670 210 712 150 770 150 c 4
 833 150 864 207 864 269 c 4
 864 338 828 411 760 411 c 4
 714 411 670 371 670 290 c 4
EndSplineSet
EndChar
StartChar: uF2E59
Encoding: 994905 994905 115
Width: 1000
VWidth: 0
Flags: MW
LayerCount: 2
Back
Fore
SplineSet
7 -146 m 4
 7 -46 36 44 57 167 c 4
 96 391 92 421 105 421 c 4
 106 421 139 417 139 396 c 4
 139 372 102 117 102 80 c 4
 102 65 105 44 117 44 c 4
 172 44 251 241 287 354 c 4
 308 421 299 421 312 421 c 4
 324 421 344 411 344 400 c 4
 344 386 298 123 298 75 c 4
 298 59 307 50 317 50 c 4
 346 50 352 122 367 122 c 4
 375 122 375 113 375 105 c 4
 375 64 331 -21 274 -21 c 4
 249 -21 244 13 244 51 c 4
 244 95 258 187 258 198 c 4
 258 202 258 204 257 204 c 4
 250 204 236 143 179 59 c 4
 152 18 113 -18 83 -18 c 4
 58 -18 55 25 52 25 c 4
 49 25 37 -49 37 -85 c 4
 37 -118 56 -157 56 -168 c 4
 56 -173 52 -199 30 -199 c 4
 14 -199 7 -182 7 -146 c 4
420 388 m 4
 420 409 454 404 486 423 c 4
 502 432 505 438 518 438 c 4
 525 438 527 425 527 409 c 4
 527 397 524 375 524 367 c 4
 524 361 524 355 528 355 c 4
 533 355 552 427 628 427 c 4
 708 427 716 348 723 348 c 4
 728 348 764 430 825 430 c 4
 902 430 937 357 943 280 c 4
 947 231 947 188 947 153 c 6
 947 121 l 6
 947 68 949 38 968 30 c 4
 974 28 996 28 996 11 c 4
 996 -4 979 -4 971 -4 c 4
 961 -4 938 0 923 0 c 4
 902 0 885 -4 869 -4 c 4
 861 -4 851 -2 851 6 c 4
 851 26 879 23 885 42 c 4
 887 50 888 68 888 88 c 6
 888 104 l 6
 888 325 884 313 860 352 c 4
 847 372 827 383 805 383 c 4
 768 383 728 338 728 329 c 4
 728 316 733 304 733 202 c 6
 733 117 l 6
 733 62 739 31 784 22 c 4
 795 20 797 9 797 6 c 4
 797 -5 787 -5 783 -5 c 4
 770 -5 751 0 729 0 c 4
 716 0 669 -5 662 -5 c 4
 657 -5 645 -2 645 8 c 4
 645 17 647 20 662 28 c 4
 667 30 679 32 679 90 c 4
 679 104 680 91 680 199 c 4
 680 262 679 256 679 262 c 4
 679 331 651 379 603 379 c 4
 561 379 523 345 523 306 c 6
 523 292 l 5
 523 104 l 6
 523 0 585 35 585 12 c 4
 585 1 586 -3 570 -3 c 4
 559 -3 539 0 507 0 c 4
 477 0 460 -3 449 -3 c 4
 432 -3 431 5 431 12 c 4
 431 33 455 13 465 56 c 4
 469 77 471 137 471 208 c 4
 471 247 470 289 470 330 c 4
 470 400 420 356 420 388 c 4
EndSplineSet
EndChar
StartChar: uF2E5A
Encoding: 994906 994906 116
Width: 1000
VWidth: 0
Flags: MW
LayerCount: 2
Back
Fore
SplineSet
30 388 m 0
 30 409 73 404 114 423 c 0
 134 432 140 438 156 438 c 0
 165 438 168 425 168 409 c 0
 168 397 163 375 163 367 c 0
 163 361 163 355 169 355 c 0
 176 355 200 427 298 427 c 0
 402 427 411 348 421 348 c 0
 428 348 473 430 552 430 c 0
 652 430 697 357 705 280 c 0
 710 231 710 188 710 153 c 2
 710 121 l 2
 710 68 712 38 737 30 c 0
 745 28 774 28 774 11 c 0
 774 -4 753 -4 742 -4 c 0
 730 -4 698 0 679 0 c 0
 652 0 630 -4 610 -4 c 0
 599 -4 587 -2 587 6 c 0
 587 26 623 23 631 42 c 0
 634 50 635 68 635 88 c 2
 635 104 l 2
 635 325 629 313 598 352 c 0
 582 372 555 383 526 383 c 0
 478 383 428 338 428 329 c 0
 428 316 433 304 433 202 c 2
 433 117 l 2
 433 62 441 31 499 22 c 0
 513 20 517 9 517 6 c 0
 517 -5 504 -5 498 -5 c 0
 482 -5 456 0 428 0 c 0
 411 0 350 -5 341 -5 c 0
 334 -5 320 -2 320 8 c 0
 320 17 323 20 342 28 c 0
 349 30 364 32 364 90 c 0
 364 104 365 91 365 199 c 0
 365 262 363 256 363 262 c 0
 363 331 328 379 266 379 c 0
 212 379 162 345 162 306 c 2
 162 292 l 1
 162 104 l 2
 162 0 243 35 243 12 c 0
 243 1 242 -3 222 -3 c 0
 208 -3 183 0 142 0 c 0
 104 0 80 -3 66 -3 c 0
 44 -3 43 5 43 12 c 0
 43 33 74 13 87 56 c 0
 93 77 95 137 95 208 c 0
 95 247 94 289 94 330 c 0
 94 400 30 356 30 388 c 0
764 693 m 0
 764 712 775 706 829 728 c 0
 854 738 883 756 902 756 c 0
 912 756 914 747 914 737 c 0
 914 722 906 676 906 585 c 2
 906 529 l 2
 906 444 904 446 904 396 c 2
 904 98 l 2
 904 66 909 25 982 25 c 0
 989 25 994 17 994 10 c 0
 994 -1 982 -4 964 -4 c 0
 944 -4 898 3 868 3 c 0
 824 3 811 -5 790 -5 c 0
 779 -5 775 2 775 5 c 0
 775 23 793 20 807 27 c 0
 830 38 833 57 833 92 c 0
 833 100 832 108 832 118 c 2
 832 192 l 2
 832 277 836 490 836 617 c 0
 836 648 825 676 813 681 c 0
 806 684 794 685 775 685 c 0
 769 685 764 686 764 693 c 0
EndSplineSet
EndChar
StartChar: uF2E5B
Encoding: 994907 994907 117
Width: 1000
Flags: MW
LayerCount: 2
Back
Fore
SplineSet
468 207 m 0
 468 228 500 223 531 242 c 0
 546 251 551 257 563 257 c 0
 569 257 572 244 572 228 c 0
 572 216 570 194 570 186 c 0
 570 180 570 174 574 174 c 0
 578 174 593 246 654 246 c 0
 718 246 724 167 730 167 c 0
 734 167 762 249 811 249 c 0
 873 249 900 176 905 99 c 0
 908 50 909 7 909 -28 c 2
 909 -60 l 2
 909 -113 910 -143 922 -151 c 0
 926 -153 939 -153 939 -171 c 0
 939 -186 924 -186 917 -186 c 0
 908 -186 885 -182 872 -182 c 0
 853 -182 838 -186 824 -186 c 0
 817 -186 807 -184 807 -176 c 0
 807 -156 824 -159 828 -140 c 0
 829 -132 830 -114 830 -94 c 2
 830 -78 l 2
 830 144 827 132 812 171 c 0
 804 191 791 202 777 202 c 0
 754 202 729 157 729 148 c 0
 729 135 735 122 735 20 c 2
 735 -65 l 2
 735 -120 738 -151 766 -160 c 0
 773 -162 774 -173 774 -176 c 0
 774 -187 766 -187 762 -187 c 0
 751 -187 734 -182 715 -182 c 0
 703 -182 663 -187 657 -187 c 0
 653 -187 643 -184 643 -174 c 0
 643 -165 644 -161 653 -153 c 0
 656 -151 663 -149 663 -91 c 0
 663 -77 664 -90 664 18 c 0
 664 81 662 75 662 81 c 0
 662 150 646 198 617 198 c 0
 592 198 569 164 569 125 c 2
 569 111 l 1
 569 -78 l 2
 569 -182 607 -147 607 -170 c 0
 607 -181 606 -185 593 -185 c 0
 583 -185 567 -182 540 -182 c 0
 515 -182 500 -185 490 -185 c 0
 475 -185 474 -177 474 -170 c 0
 474 -149 489 -169 495 -126 c 0
 498 -105 499 -45 499 26 c 0
 499 65 498 108 498 149 c 0
 498 219 468 175 468 207 c 0
49 -170 m 0
 49 -161 50 -140 77 -113 c 2
 77 -113 878 712 883 717 c 0
 894 729 900 735 918 735 c 0
 927 735 939 733 939 723 c 0
 939 703 928 689 919 679 c 2
 116 -152 l 2
 96 -173 90 -183 75 -183 c 0
 63 -183 49 -183 49 -170 c 0
72 696 m 0
 72 717 104 712 135 731 c 0
 150 740 155 746 167 746 c 0
 173 746 176 733 176 717 c 0
 176 705 174 683 174 675 c 0
 174 669 174 663 178 663 c 0
 182 663 197 735 258 735 c 0
 322 735 328 656 334 656 c 0
 338 656 366 738 415 738 c 0
 477 738 504 665 509 588 c 0
 512 539 513 496 513 461 c 2
 513 429 l 2
 513 376 514 346 526 338 c 0
 530 336 543 336 543 318 c 0
 543 303 528 303 521 303 c 0
 512 303 489 307 476 307 c 0
 457 307 442 303 428 303 c 0
 421 303 411 305 411 313 c 0
 411 333 428 330 432 349 c 0
 433 357 434 375 434 395 c 2
 434 411 l 2
 434 633 431 621 416 660 c 0
 408 680 395 691 381 691 c 0
 358 691 333 646 333 637 c 0
 333 624 339 611 339 509 c 2
 339 424 l 2
 339 369 342 338 370 329 c 0
 377 327 378 316 378 313 c 0
 378 302 370 302 366 302 c 0
 355 302 338 307 319 307 c 0
 307 307 267 302 261 302 c 0
 257 302 247 305 247 315 c 0
 247 324 248 328 257 336 c 0
 260 338 267 340 267 398 c 0
 267 412 268 399 268 507 c 0
 268 570 266 564 266 570 c 0
 266 639 250 687 221 687 c 0
 196 687 173 653 173 614 c 2
 173 600 l 1
 173 411 l 2
 173 307 211 342 211 319 c 0
 211 308 210 304 197 304 c 0
 187 304 171 307 144 307 c 0
 119 307 104 304 94 304 c 0
 79 304 78 312 78 319 c 0
 78 340 93 320 99 363 c 0
 102 384 103 444 103 515 c 0
 103 554 102 597 102 638 c 0
 102 708 72 664 72 696 c 0
EndSplineSet
EndChar
StartChar: uF2E5C
Encoding: 994908 994908 118
Width: 1000
Flags: MW
LayerCount: 2
Back
Fore
SplineSet
468 207 m 0
 468 228 500 223 531 242 c 0
 546 251 551 257 563 257 c 0
 569 257 572 244 572 228 c 0
 572 216 570 194 570 186 c 0
 570 180 570 174 574 174 c 0
 578 174 593 246 654 246 c 0
 718 246 724 167 730 167 c 0
 734 167 762 249 811 249 c 0
 873 249 900 176 905 99 c 0
 908 50 909 7 909 -28 c 2
 909 -60 l 2
 909 -113 910 -143 922 -151 c 0
 926 -153 939 -153 939 -171 c 0
 939 -186 924 -186 917 -186 c 0
 908 -186 885 -182 872 -182 c 0
 853 -182 838 -186 824 -186 c 0
 817 -186 807 -184 807 -176 c 0
 807 -156 824 -159 828 -140 c 0
 829 -132 830 -114 830 -94 c 2
 830 -78 l 2
 830 144 827 132 812 171 c 0
 804 191 791 202 777 202 c 0
 754 202 729 157 729 148 c 0
 729 135 735 122 735 20 c 2
 735 -65 l 2
 735 -120 738 -151 766 -160 c 0
 773 -162 774 -173 774 -176 c 0
 774 -187 766 -187 762 -187 c 0
 751 -187 734 -182 715 -182 c 0
 703 -182 663 -187 657 -187 c 0
 653 -187 643 -184 643 -174 c 0
 643 -165 644 -161 653 -153 c 0
 656 -151 663 -149 663 -91 c 0
 663 -77 664 -90 664 18 c 0
 664 81 662 75 662 81 c 0
 662 150 646 198 617 198 c 0
 592 198 569 164 569 125 c 2
 569 111 l 1
 569 -78 l 2
 569 -182 607 -147 607 -170 c 0
 607 -181 606 -185 593 -185 c 0
 583 -185 567 -182 540 -182 c 0
 515 -182 500 -185 490 -185 c 0
 475 -185 474 -177 474 -170 c 0
 474 -149 489 -169 495 -126 c 0
 498 -105 499 -45 499 26 c 0
 499 65 498 108 498 149 c 0
 498 219 468 175 468 207 c 0
68 680 m 0
 68 693 91 692 111 698 c 0
 150 710 182 732 191 732 c 2
 193 732 l 2
 199 732 201 727 201 720 c 0
 201 713 199 693 199 677 c 0
 199 659 200 651 203 651 c 0
 209 651 213 670 243 692 c 0
 263 707 289 720 316 720 c 0
 436 720 462 605 462 552 c 0
 462 535 463 552 463 409 c 2
 463 387 l 2
 463 341 466 323 512 314 c 0
 526 311 528 307 528 299 c 0
 528 291 519 289 510 289 c 0
 474 289 458 294 439 294 c 0
 417 294 382 290 372 290 c 0
 361 290 354 295 354 303 c 0
 354 317 372 317 374 318 c 0
 390 324 392 358 392 385 c 2
 392 520 l 2
 392 631 339 676 289 676 c 0
 236 676 202 627 199 615 c 0
 195 601 192 490 192 457 c 2
 192 419 l 2
 192 361 195 322 237 318 c 0
 242 318 270 315 270 303 c 0
 270 292 262 290 254 290 c 0
 222 290 231 294 191 294 c 0
 154 294 102 290 94 290 c 0
 84 290 81 294 81 300 c 0
 81 331 121 277 124 396 c 0
 126 452 126 442 126 471 c 2
 126 615 l 2
 126 662 110 669 91 669 c 2
 83 669 l 2
 72 669 68 673 68 680 c 0
49 -170 m 0
 49 -161 50 -140 77 -113 c 2
 77 -113 878 712 883 717 c 0
 894 729 900 735 918 735 c 0
 927 735 939 733 939 723 c 0
 939 703 928 689 919 679 c 2
 116 -152 l 2
 96 -173 90 -183 75 -183 c 0
 63 -183 49 -183 49 -170 c 0
EndSplineSet
EndChar
